<svg width="25" height="24" viewBox="0 0 25 24" fill="none" xmlns="http://www.w3.org/2000/svg">
<path d="M12.5001 23C18.6314 23 23.6018 18.0296 23.6018 11.8983C23.6018 5.76703 18.6314 0.796631 12.5001 0.796631C6.36884 0.796631 1.39844 5.76703 1.39844 11.8983C1.39844 18.0296 6.36884 23 12.5001 23Z" stroke="#00A8A8" stroke-width="1.5"/>
<g clip-path="url(#clip0_1645_552)">
<path d="M16.9411 6.34747H16.386V5.79239C16.386 5.64517 16.3275 5.50398 16.2234 5.39989C16.1193 5.29579 15.9781 5.2373 15.8309 5.2373C15.6837 5.2373 15.5425 5.29579 15.4384 5.39989C15.3343 5.50398 15.2758 5.64517 15.2758 5.79239V6.34747H9.72495V5.79239C9.72495 5.64517 9.66647 5.50398 9.56237 5.39989C9.45827 5.29579 9.31708 5.2373 9.16986 5.2373C9.02265 5.2373 8.88146 5.29579 8.77736 5.39989C8.67326 5.50398 8.61478 5.64517 8.61478 5.79239V6.34747H8.05969C7.47082 6.34747 6.90607 6.5814 6.48968 6.9978C6.07328 7.41419 5.83936 7.97894 5.83936 8.56781V16.339C5.83936 16.9279 6.07328 17.4926 6.48968 17.909C6.90607 18.3254 7.47082 18.5593 8.05969 18.5593H16.9411C17.5299 18.5593 18.0947 18.3254 18.5111 17.909C18.9275 17.4926 19.1614 16.9279 19.1614 16.339V8.56781C19.1614 7.97894 18.9275 7.41419 18.5111 6.9978C18.0947 6.5814 17.5299 6.34747 16.9411 6.34747ZM18.0512 16.339C18.0512 16.6334 17.9343 16.9158 17.7261 17.124C17.5179 17.3322 17.2355 17.4492 16.9411 17.4492H8.05969C7.76526 17.4492 7.48288 17.3322 7.27469 17.124C7.06649 16.9158 6.94952 16.6334 6.94952 16.339V8.56781C6.94952 8.27338 7.06649 7.991 7.27469 7.7828C7.48288 7.57461 7.76526 7.45764 8.05969 7.45764H8.61478V8.01273C8.61478 8.15995 8.67326 8.30113 8.77736 8.40523C8.88146 8.50933 9.02265 8.56781 9.16986 8.56781C9.31708 8.56781 9.45827 8.50933 9.56237 8.40523C9.66647 8.30113 9.72495 8.15995 9.72495 8.01273V7.45764H15.2758V8.01273C15.2758 8.15995 15.3343 8.30113 15.4384 8.40523C15.5425 8.50933 15.6837 8.56781 15.8309 8.56781C15.9781 8.56781 16.1193 8.50933 16.2234 8.40523C16.3275 8.30113 16.386 8.15995 16.386 8.01273V7.45764H16.9411C17.2355 7.45764 17.5179 7.57461 17.7261 7.7828C17.9343 7.991 18.0512 8.27338 18.0512 8.56781V16.339Z" fill="#00A8A8"/>
<path d="M16.3858 9.1228H8.61466C8.46744 9.1228 8.32625 9.18128 8.22215 9.28538C8.11805 9.38948 8.05957 9.53067 8.05957 9.67789C8.05957 9.82511 8.11805 9.96629 8.22215 10.0704C8.32625 10.1745 8.46744 10.233 8.61466 10.233H16.3858C16.5331 10.233 16.6742 10.1745 16.7783 10.0704C16.8824 9.96629 16.9409 9.82511 16.9409 9.67789C16.9409 9.53067 16.8824 9.38948 16.7783 9.28538C16.6742 9.18128 16.5331 9.1228 16.3858 9.1228Z" fill="#00A8A8"/>
<path d="M9.72482 11.8984H8.61466C8.46744 11.8984 8.32625 11.9569 8.22215 12.061C8.11805 12.1651 8.05957 12.3063 8.05957 12.4535C8.05957 12.6007 8.11805 12.7419 8.22215 12.846C8.32625 12.9501 8.46744 13.0086 8.61466 13.0086H9.72482C9.87204 13.0086 10.0132 12.9501 10.1173 12.846C10.2214 12.7419 10.2799 12.6007 10.2799 12.4535C10.2799 12.3063 10.2214 12.1651 10.1173 12.061C10.0132 11.9569 9.87204 11.8984 9.72482 11.8984Z" fill="#00A8A8"/>
<path d="M9.72482 14.6738H8.61466C8.46744 14.6738 8.32625 14.7323 8.22215 14.8364C8.11805 14.9405 8.05957 15.0817 8.05957 15.2289C8.05957 15.3761 8.11805 15.5173 8.22215 15.6214C8.32625 15.7255 8.46744 15.784 8.61466 15.784H9.72482C9.87204 15.784 10.0132 15.7255 10.1173 15.6214C10.2214 15.5173 10.2799 15.3761 10.2799 15.2289C10.2799 15.0817 10.2214 14.9405 10.1173 14.8364C10.0132 14.7323 9.87204 14.6738 9.72482 14.6738Z" fill="#00A8A8"/>
<path d="M13.0554 11.8984H11.9452C11.798 11.8984 11.6568 11.9569 11.5527 12.061C11.4486 12.1651 11.3901 12.3063 11.3901 12.4535C11.3901 12.6007 11.4486 12.7419 11.5527 12.846C11.6568 12.9501 11.798 13.0086 11.9452 13.0086H13.0554C13.2026 13.0086 13.3438 12.9501 13.4479 12.846C13.552 12.7419 13.6105 12.6007 13.6105 12.4535C13.6105 12.3063 13.552 12.1651 13.4479 12.061C13.3438 11.9569 13.2026 11.8984 13.0554 11.8984Z" fill="#00A8A8"/>
<path d="M13.0554 14.6738H11.9452C11.798 14.6738 11.6568 14.7323 11.5527 14.8364C11.4486 14.9405 11.3901 15.0817 11.3901 15.2289C11.3901 15.3761 11.4486 15.5173 11.5527 15.6214C11.6568 15.7255 11.798 15.784 11.9452 15.784H13.0554C13.2026 15.784 13.3438 15.7255 13.4479 15.6214C13.552 15.5173 13.6105 15.3761 13.6105 15.2289C13.6105 15.0817 13.552 14.9405 13.4479 14.8364C13.3438 14.7323 13.2026 14.6738 13.0554 14.6738Z" fill="#00A8A8"/>
<path d="M16.386 11.8984H15.2758C15.1286 11.8984 14.9874 11.9569 14.8833 12.061C14.7792 12.1651 14.7207 12.3063 14.7207 12.4535C14.7207 12.6007 14.7792 12.7419 14.8833 12.846C14.9874 12.9501 15.1286 13.0086 15.2758 13.0086H16.386C16.5332 13.0086 16.6744 12.9501 16.7785 12.846C16.8826 12.7419 16.941 12.6007 16.941 12.4535C16.941 12.3063 16.8826 12.1651 16.7785 12.061C16.6744 11.9569 16.5332 11.8984 16.386 11.8984Z" fill="#00A8A8"/>
<path d="M16.386 14.6738H15.2758C15.1286 14.6738 14.9874 14.7323 14.8833 14.8364C14.7792 14.9405 14.7207 15.0817 14.7207 15.2289C14.7207 15.3761 14.7792 15.5173 14.8833 15.6214C14.9874 15.7255 15.1286 15.784 15.2758 15.784H16.386C16.5332 15.784 16.6744 15.7255 16.7785 15.6214C16.8826 15.5173 16.941 15.3761 16.941 15.2289C16.941 15.0817 16.8826 14.9405 16.7785 14.8364C16.6744 14.7323 16.5332 14.6738 16.386 14.6738Z" fill="#00A8A8"/>
</g>
<defs>
<clipPath id="clip0_1645_552">
<rect width="13.322" height="13.322" fill="white" transform="translate(5.83936 5.2373)"/>
</clipPath>
</defs>
</svg>
