<svg width="19" height="18" viewBox="0 0 19 18" fill="none" xmlns="http://www.w3.org/2000/svg">
<path d="M15.7171 9.93605C15.519 9.93605 15.3119 9.87282 15.1137 9.82766C14.7128 9.73774 14.3187 9.62003 13.934 9.47538C13.5162 9.32293 13.057 9.33085 12.6447 9.4976C12.2324 9.66436 11.8961 9.97817 11.7006 10.3787L11.5025 10.7942C10.6279 10.2966 9.81995 9.68959 9.09804 8.98761C8.39818 8.26352 7.79296 7.4531 7.29694 6.57586L7.71119 6.38617C8.11047 6.19008 8.42333 5.85281 8.58958 5.43926C8.75584 5.0257 8.76373 4.56508 8.61174 4.14604C8.46873 3.75676 8.3514 3.35846 8.26053 2.95372C8.2155 2.755 8.17948 2.54724 8.15246 2.34852C8.0431 1.71227 7.71085 1.13609 7.21555 0.723741C6.72024 0.311393 6.09443 0.0899743 5.4508 0.0993604H2.74014C2.35943 0.0988602 1.98291 0.179073 1.63527 0.33474C1.28763 0.490407 0.976711 0.718013 0.722903 1.00264C0.463832 1.29499 0.27093 1.64013 0.157449 2.01434C0.0439691 2.38856 0.012601 2.78298 0.0655001 3.1705C0.555029 6.93007 2.26754 10.4226 4.93749 13.1066C7.61334 15.7846 11.0953 17.5023 14.8436 17.9933C14.9605 18.0022 15.0779 18.0022 15.1948 17.9933C15.8589 17.9943 16.5 17.7499 16.9959 17.3068C17.2797 17.0522 17.5066 16.7404 17.6618 16.3917C17.817 16.043 17.8969 15.6653 17.8964 15.2835V12.5736C17.8916 11.9495 17.6721 11.3462 17.275 10.8656C16.8779 10.385 16.3276 10.0567 15.7171 9.93605ZM16.1584 15.3557C16.1581 15.4818 16.1315 15.6063 16.0803 15.7215C16.0291 15.8366 15.9545 15.9397 15.8612 16.0241C15.7625 16.1143 15.645 16.1814 15.5173 16.2204C15.3896 16.2595 15.2548 16.2696 15.1227 16.25C11.7621 15.8097 8.63898 14.2736 6.23429 11.8781C3.82753 9.46406 2.28269 6.32056 1.83959 2.93565C1.82002 2.80317 1.83008 2.66799 1.86901 2.53988C1.90795 2.41178 1.9748 2.29396 2.06473 2.19496C2.14994 2.10026 2.25418 2.02473 2.3706 1.97335C2.48701 1.92197 2.61296 1.89591 2.74014 1.89688H5.4418C5.64997 1.89178 5.85348 1.95919 6.01767 2.08765C6.18186 2.21611 6.2966 2.39768 6.34235 2.60144C6.34235 2.84532 6.4234 3.09824 6.47743 3.34213C6.58152 3.81532 6.71997 4.28024 6.89169 4.73317L5.63091 5.32934C5.41421 5.42911 5.2458 5.61102 5.16263 5.83517C5.07256 6.05508 5.07256 6.30175 5.16263 6.52166C6.4587 9.30624 8.69031 11.5446 11.4665 12.8446C11.6857 12.9349 11.9317 12.9349 12.1509 12.8446C12.3744 12.7612 12.5557 12.5923 12.6552 12.3749L13.2226 11.1103C13.6872 11.2802 14.1625 11.419 14.6454 11.5258C14.8796 11.58 15.1317 11.6252 15.3749 11.6613C15.578 11.7072 15.7591 11.8223 15.8871 11.987C16.0152 12.1517 16.0824 12.3558 16.0773 12.5646L16.1584 15.3557ZM10.8451 0C10.638 0 10.4219 0 10.2147 0C9.97589 0.0203629 9.75489 0.135058 9.60036 0.318854C9.44583 0.502651 9.37042 0.740492 9.39072 0.980056C9.41102 1.21962 9.52537 1.44128 9.70861 1.59628C9.89186 1.75128 10.129 1.82692 10.3678 1.80655H10.8451C12.2782 1.80655 13.6525 2.37755 14.6658 3.39394C15.6792 4.41032 16.2484 5.78883 16.2484 7.22622C16.2484 7.38881 16.2484 7.54236 16.2484 7.70495C16.2285 7.94325 16.3035 8.17976 16.4571 8.36263C16.6108 8.5455 16.8304 8.65981 17.0679 8.68049H17.14C17.3654 8.68141 17.583 8.59748 17.7497 8.44529C17.9165 8.2931 18.0202 8.08372 18.0405 7.85851C18.0405 7.65076 18.0405 7.43397 18.0405 7.22622C18.0405 5.31127 17.2827 3.47462 15.9336 2.1197C14.5844 0.764782 12.7543 0.00239369 10.8451 0ZM12.6462 7.22622C12.6462 7.46578 12.7411 7.69553 12.91 7.86493C13.0789 8.03433 13.3079 8.12949 13.5468 8.12949C13.7856 8.12949 14.0147 8.03433 14.1836 7.86493C14.3524 7.69553 14.4473 7.46578 14.4473 7.22622C14.4473 6.26796 14.0678 5.34895 13.3923 4.67136C12.7167 3.99377 11.8005 3.61311 10.8451 3.61311C10.6063 3.61311 10.3772 3.70828 10.2083 3.87767C10.0394 4.04707 9.94456 4.27682 9.94456 4.51639C9.94456 4.75595 10.0394 4.9857 10.2083 5.1551C10.3772 5.3245 10.6063 5.41966 10.8451 5.41966C11.3228 5.41966 11.7809 5.61 12.1187 5.94879C12.4565 6.28759 12.6462 6.74709 12.6462 7.22622Z" fill="#00A8A8"/>
</svg>
