<svg width="16" height="16" viewBox="0 0 16 16" fill="none" xmlns="http://www.w3.org/2000/svg">
<path d="M13.7143 0H2.28571C1.02321 0 0 1.02321 0 2.28571V13.7143C0 14.9768 1.02321 16 2.28571 16H13.7143C14.9768 16 16 14.9768 16 13.7143V2.28571C16 1.02321 14.975 0 13.7143 0ZM12.1357 6.42143L7.56429 10.9929C7.36786 11.1893 7.11429 11.2857 6.85714 11.2857C6.6 11.2857 6.345 11.1886 6.14964 10.9933L3.86393 8.70757C3.47429 8.31686 3.47429 7.68293 3.86393 7.29221C4.25464 6.9015 4.88857 6.9015 5.27929 7.29221L6.85714 8.87143L10.7214 5.00714C11.1121 4.61643 11.7461 4.61643 12.1368 5.00714C12.525 5.39643 12.525 6.03214 12.1357 6.42143Z" stroke="#00A8A8" stroke-width="0.6"/>
<path d="M5.93751 11.2054L5.93753 11.2054C6.1916 11.4595 6.52398 11.5857 6.85714 11.5857C7.19048 11.5857 7.52139 11.46 7.77642 11.205L12.3478 6.63356C12.8542 6.12717 12.8542 5.30173 12.3492 4.7953L12.3489 4.79501C11.841 4.28714 11.0172 4.28714 10.5093 4.79501L6.85723 8.44707L5.49151 7.08017L5.49142 7.08008C4.98355 6.57221 4.15967 6.57221 3.6518 7.08008L3.65151 7.08037C3.14509 7.58818 3.14509 8.41161 3.65151 8.91941L3.6518 8.9197L5.93751 11.2054ZM2.28571 0.3H13.7143C14.8095 0.3 15.7 1.18905 15.7 2.28571V13.7143C15.7 14.8111 14.8111 15.7 13.7143 15.7H2.28571C1.1889 15.7 0.3 14.8111 0.3 13.7143V2.28571C0.3 1.1889 1.1889 0.3 2.28571 0.3Z" stroke="#00A8A8" stroke-width="0.6"/>
<path d="M5.93751 11.2054L5.93753 11.2054C6.1916 11.4595 6.52398 11.5857 6.85714 11.5857C7.19048 11.5857 7.52139 11.46 7.77642 11.205L12.3478 6.63356C12.8542 6.12717 12.8542 5.30173 12.3492 4.7953L12.3489 4.79501C11.841 4.28714 11.0172 4.28714 10.5093 4.79501L6.85723 8.44707L5.49151 7.08017L5.49142 7.08008C4.98355 6.57221 4.15967 6.57221 3.6518 7.08008L3.65151 7.08037C3.14509 7.58818 3.14509 8.41161 3.65151 8.91941L3.6518 8.9197L5.93751 11.2054ZM2.28571 0.3H13.7143C14.8095 0.3 15.7 1.18905 15.7 2.28571V13.7143C15.7 14.8111 14.8111 15.7 13.7143 15.7H2.28571C1.1889 15.7 0.3 14.8111 0.3 13.7143V2.28571C0.3 1.1889 1.1889 0.3 2.28571 0.3Z" stroke="#00A8A8" stroke-width="0.6"/>
</svg>
