<svg width="26" height="26" viewBox="0 0 26 26" fill="none" xmlns="http://www.w3.org/2000/svg">
<path d="M13 25C19.6274 25 25 19.6274 25 13C25 6.37258 19.6274 1 13 1C6.37258 1 1 6.37258 1 13C1 19.6274 6.37258 25 13 25Z" fill="#00A8A8" stroke="#00A8A8" stroke-width="1.5"/>
<path d="M13.9446 8.79369C15.3763 7.36207 17.6949 7.36207 19.1265 8.79369C20.5581 10.2253 20.5581 12.5439 19.1265 13.9755L18.0839 15.0181L12.902 20.2L7.72019 15.0181L6.6776 13.9755C5.24598 12.5439 5.24598 10.2253 6.6776 8.79369C8.10922 7.36207 10.4278 7.36207 11.8594 8.79369L12.902 9.83628" fill="#00A8A8"/>
<path d="M13.9446 8.79369C15.3763 7.36207 17.6949 7.36207 19.1265 8.79369C20.5581 10.2253 20.5581 12.5439 19.1265 13.9755L18.0839 15.0181L12.902 20.2L7.72019 15.0181L6.6776 13.9755C5.24598 12.5439 5.24598 10.2253 6.6776 8.79369C8.10922 7.36207 10.4278 7.36207 11.8594 8.79369L12.902 9.83628" stroke="white" stroke-width="1.5" stroke-miterlimit="10" stroke-linecap="round" stroke-linejoin="round"/>
</svg>
