<svg width="26" height="26" viewBox="0 0 26 26" fill="none" xmlns="http://www.w3.org/2000/svg">
<path d="M13 1C6.37258 1 1 6.37258 1 13C1 19.6274 6.37258 25 13 25C19.6274 25 25 19.6274 25 13C25 6.37258 19.6274 1 13 1Z" fill="#00A8A8" stroke="#00A8A8" stroke-width="1.5" stroke-linecap="round" stroke-linejoin="round"/>
<path d="M3.87988 20.1998C3.87988 20.1998 6.51005 17.3198 12.9998 17.3198C19.4896 17.3198 22.1199 20.1998 22.1199 20.1998" fill="#00A8A8"/>
<path d="M3.87988 20.1998C3.87988 20.1998 6.51005 17.3198 12.9998 17.3198C19.4896 17.3198 22.1199 20.1998 22.1199 20.1998" stroke="white" stroke-width="1.5" stroke-linecap="round" stroke-linejoin="round"/>
<path d="M13.0006 13.4798C14.8564 13.4798 16.3606 11.7606 16.3606 9.6398C16.3606 7.51904 14.8564 5.7998 13.0006 5.7998C11.1449 5.7998 9.64062 7.51904 9.64062 9.6398C9.64062 11.7606 11.1449 13.4798 13.0006 13.4798Z" fill="#00A8A8" stroke="white" stroke-width="1.5" stroke-linecap="round" stroke-linejoin="round"/>
</svg>
