<svg width="26" height="26" viewBox="0 0 26 26" fill="none" xmlns="http://www.w3.org/2000/svg">
<path d="M13 25C19.6274 25 25 19.6274 25 13C25 6.37258 19.6274 1 13 1C6.37258 1 1 6.37258 1 13C1 19.6274 6.37258 25 13 25Z" fill="#00A8A8" stroke="#00A8A8" stroke-width="1.5"/>
<path d="M17.7998 6.9998H17.1998V6.3998C17.1998 6.24067 17.1366 6.08806 17.0241 5.97554C16.9115 5.86302 16.7589 5.7998 16.5998 5.7998C16.4407 5.7998 16.2881 5.86302 16.1755 5.97554C16.063 6.08806 15.9998 6.24067 15.9998 6.3998V6.9998H9.9998V6.3998C9.9998 6.24067 9.93659 6.08806 9.82407 5.97554C9.71155 5.86302 9.55893 5.7998 9.3998 5.7998C9.24067 5.7998 9.08806 5.86302 8.97554 5.97554C8.86302 6.08806 8.7998 6.24067 8.7998 6.3998V6.9998H8.1998C7.56328 6.9998 6.95284 7.25266 6.50275 7.70275C6.05266 8.15284 5.7998 8.76328 5.7998 9.3998L5.7998 17.7998C5.7998 18.4363 6.05266 19.0468 6.50275 19.4969C6.95284 19.9469 7.56328 20.1998 8.1998 20.1998H17.7998C18.4363 20.1998 19.0468 19.9469 19.4969 19.4969C19.9469 19.0468 20.1998 18.4363 20.1998 17.7998V9.3998C20.1998 8.76328 19.9469 8.15284 19.4969 7.70275C19.0468 7.25266 18.4363 6.9998 17.7998 6.9998ZM18.9998 17.7998C18.9998 18.1181 18.8734 18.4233 18.6483 18.6483C18.4233 18.8734 18.1181 18.9998 17.7998 18.9998H8.1998C7.88154 18.9998 7.57632 18.8734 7.35128 18.6483C7.12623 18.4233 6.9998 18.1181 6.9998 17.7998V9.3998C6.9998 9.08154 7.12623 8.77632 7.35128 8.55128C7.57632 8.32623 7.88154 8.1998 8.1998 8.1998H8.7998V8.7998C8.7998 8.95893 8.86302 9.11155 8.97554 9.22407C9.08806 9.33659 9.24067 9.3998 9.3998 9.3998C9.55893 9.3998 9.71155 9.33659 9.82407 9.22407C9.93659 9.11155 9.9998 8.95893 9.9998 8.7998V8.1998H15.9998V8.7998C15.9998 8.95893 16.063 9.11155 16.1755 9.22407C16.2881 9.33659 16.4407 9.3998 16.5998 9.3998C16.7589 9.3998 16.9115 9.33659 17.0241 9.22407C17.1366 9.11155 17.1998 8.95893 17.1998 8.7998V8.1998H17.7998C18.1181 8.1998 18.4233 8.32623 18.6483 8.55128C18.8734 8.77632 18.9998 9.08154 18.9998 9.3998V17.7998Z" fill="white"/>
<path d="M17.2002 10H8.8002C8.64107 10 8.48845 10.0632 8.37593 10.1757C8.26341 10.2883 8.2002 10.4409 8.2002 10.6C8.2002 10.7591 8.26341 10.9117 8.37593 11.0243C8.48845 11.1368 8.64107 11.2 8.8002 11.2H17.2002C17.3593 11.2 17.5119 11.1368 17.6245 11.0243C17.737 10.9117 17.8002 10.7591 17.8002 10.6C17.8002 10.4409 17.737 10.2883 17.6245 10.1757C17.5119 10.0632 17.3593 10 17.2002 10Z" fill="white"/>
<path d="M10.0002 13H8.8002C8.64107 13 8.48845 13.0632 8.37593 13.1757C8.26341 13.2883 8.2002 13.4409 8.2002 13.6C8.2002 13.7591 8.26341 13.9117 8.37593 14.0243C8.48845 14.1368 8.64107 14.2 8.8002 14.2H10.0002C10.1593 14.2 10.3119 14.1368 10.4245 14.0243C10.537 13.9117 10.6002 13.7591 10.6002 13.6C10.6002 13.4409 10.537 13.2883 10.4245 13.1757C10.3119 13.0632 10.1593 13 10.0002 13Z" fill="white"/>
<path d="M10.0002 16H8.8002C8.64107 16 8.48845 16.0632 8.37593 16.1757C8.26341 16.2883 8.2002 16.4409 8.2002 16.6C8.2002 16.7591 8.26341 16.9117 8.37593 17.0243C8.48845 17.1368 8.64107 17.2 8.8002 17.2H10.0002C10.1593 17.2 10.3119 17.1368 10.4245 17.0243C10.537 16.9117 10.6002 16.7591 10.6002 16.6C10.6002 16.4409 10.537 16.2883 10.4245 16.1757C10.3119 16.0632 10.1593 16 10.0002 16Z" fill="white"/>
<path d="M13.5998 13H12.3998C12.2407 13 12.0881 13.0632 11.9755 13.1757C11.863 13.2883 11.7998 13.4409 11.7998 13.6C11.7998 13.7591 11.863 13.9117 11.9755 14.0243C12.0881 14.1368 12.2407 14.2 12.3998 14.2H13.5998C13.7589 14.2 13.9115 14.1368 14.0241 14.0243C14.1366 13.9117 14.1998 13.7591 14.1998 13.6C14.1998 13.4409 14.1366 13.2883 14.0241 13.1757C13.9115 13.0632 13.7589 13 13.5998 13Z" fill="white"/>
<path d="M13.5998 16H12.3998C12.2407 16 12.0881 16.0632 11.9755 16.1757C11.863 16.2883 11.7998 16.4409 11.7998 16.6C11.7998 16.7591 11.863 16.9117 11.9755 17.0243C12.0881 17.1368 12.2407 17.2 12.3998 17.2H13.5998C13.7589 17.2 13.9115 17.1368 14.0241 17.0243C14.1366 16.9117 14.1998 16.7591 14.1998 16.6C14.1998 16.4409 14.1366 16.2883 14.0241 16.1757C13.9115 16.0632 13.7589 16 13.5998 16Z" fill="white"/>
<path d="M17.1999 13H15.9999C15.8408 13 15.6882 13.0632 15.5756 13.1757C15.4631 13.2883 15.3999 13.4409 15.3999 13.6C15.3999 13.7591 15.4631 13.9117 15.5756 14.0243C15.6882 14.1368 15.8408 14.2 15.9999 14.2H17.1999C17.359 14.2 17.5116 14.1368 17.6242 14.0243C17.7367 13.9117 17.7999 13.7591 17.7999 13.6C17.7999 13.4409 17.7367 13.2883 17.6242 13.1757C17.5116 13.0632 17.359 13 17.1999 13Z" fill="white"/>
<path d="M17.1999 16H15.9999C15.8408 16 15.6882 16.0632 15.5756 16.1757C15.4631 16.2883 15.3999 16.4409 15.3999 16.6C15.3999 16.7591 15.4631 16.9117 15.5756 17.0243C15.6882 17.1368 15.8408 17.2 15.9999 17.2H17.1999C17.359 17.2 17.5116 17.1368 17.6242 17.0243C17.7367 16.9117 17.7999 16.7591 17.7999 16.6C17.7999 16.4409 17.7367 16.2883 17.6242 16.1757C17.5116 16.0632 17.359 16 17.1999 16Z" fill="white"/>
</svg>
