<svg width="21" height="20" viewBox="0 0 21 20" fill="none" xmlns="http://www.w3.org/2000/svg">
<path d="M20.0403 9.99988C20.0403 4.4771 15.5632 0 10.0404 0C4.51762 0 0.0405273 4.4771 0.0405273 9.99988C0.0405273 14.9911 3.69736 19.1281 8.47793 19.8783V12.8905H5.93889V9.99988H8.47793V7.79678C8.47793 5.29056 9.97084 3.9062 12.255 3.9062C13.3491 3.9062 14.4935 4.10151 14.4935 4.10151V6.56242H13.2325C11.9903 6.56242 11.6029 7.33323 11.6029 8.12404V9.99988H14.3763L13.9329 12.8905H11.6029V19.8783C16.3835 19.1281 20.0403 14.9911 20.0403 9.99988Z" fill="#1877F2"/>
<path d="M13.9335 12.8905L14.3769 9.99993H11.6034V8.12409C11.6034 7.33328 11.9908 6.56247 13.2331 6.56247H14.494V4.10156C14.494 4.10156 13.3496 3.90625 12.2556 3.90625C9.9714 3.90625 8.47849 5.29061 8.47849 7.79683V9.99993H5.93945V12.8905H8.47849V19.8783C8.98758 19.9582 9.50941 19.9998 10.041 19.9998C10.5725 19.9998 11.0943 19.9582 11.6034 19.8783V12.8905H13.9335Z" fill="white"/>
</svg>
