<svg width="17" height="21" viewBox="0 0 17 21" fill="none" xmlns="http://www.w3.org/2000/svg">
<path d="M12.1005 6.1795C12.0436 6.23592 11.9985 6.30304 11.9677 6.37699C11.9369 6.45094 11.921 6.53025 11.921 6.61036C11.921 6.69048 11.9369 6.76979 11.9677 6.84374C11.9985 6.91769 12.0436 6.98481 12.1005 7.04122L14.892 9.83271H0.606846C0.4459 9.83271 0.291547 9.89665 0.177741 10.0105C0.0639353 10.1243 0 10.2786 0 10.4396C0 10.6005 0.0639353 10.7549 0.177741 10.8687C0.291547 10.9825 0.4459 11.0464 0.606846 11.0464H14.8799L12.1005 13.8197C11.9875 13.9334 11.924 14.0872 11.924 14.2475C11.924 14.4078 11.9875 14.5616 12.1005 14.6753C12.2142 14.7884 12.368 14.8518 12.5283 14.8518C12.6886 14.8518 12.8425 14.7884 12.9562 14.6753L16.8157 10.8158C16.8676 10.766 16.909 10.7061 16.9372 10.6399C16.9654 10.5737 16.98 10.5024 16.98 10.4305C16.98 10.3585 16.9654 10.2872 16.9372 10.221C16.909 10.1548 16.8676 10.095 16.8157 10.0451L12.9622 6.1795C12.9058 6.12263 12.8387 6.07748 12.7647 6.04667C12.6908 6.01586 12.6115 6 12.5314 6C12.4513 6 12.3719 6.01586 12.298 6.04667C12.224 6.07748 12.1569 6.12263 12.1005 6.1795Z" fill="black"/>
</svg>
