<svg width="23" height="20" viewBox="0 0 23 20" fill="none" xmlns="http://www.w3.org/2000/svg">
<path fill-rule="evenodd" clip-rule="evenodd" d="M5.50357 9.99932C5.50357 9.34979 5.61721 8.72698 5.82028 8.14292L2.2678 5.56934C1.57542 6.90292 1.18542 8.40573 1.18542 9.99932C1.18542 11.5917 1.57509 13.0934 2.26632 14.4262L5.81682 11.8476C5.61573 11.2662 5.50357 10.6457 5.50357 9.99932Z" fill="#EFBF14"/>
<path fill-rule="evenodd" clip-rule="evenodd" d="M11.7402 4.09092C13.2276 4.09092 14.571 4.59092 15.6265 5.40904L18.6971 2.49999C16.826 0.954527 14.427 0 11.7402 0C7.5688 0 3.98371 2.26312 2.26709 5.56998L5.8194 8.14356C6.63794 5.78638 8.97118 4.09092 11.7402 4.09092Z" fill="#EA4335"/>
<path fill-rule="evenodd" clip-rule="evenodd" d="M11.7402 15.9091C8.97134 15.9091 6.6381 14.2136 5.81957 11.8564L2.26709 14.4296C3.98371 17.7369 7.5688 20 11.7402 20C14.3147 20 16.7728 19.1327 18.6175 17.5077L15.2456 15.0346C14.2941 15.6031 13.096 15.9091 11.7402 15.9091Z" fill="#34A853"/>
<path fill-rule="evenodd" clip-rule="evenodd" d="M21.8153 9.99976C21.8153 9.40882 21.7193 8.77242 21.5753 8.18164H11.7397V12.0452H17.4013C17.1182 13.3626 16.3478 14.3752 15.2451 15.0343L18.6171 17.5074C20.5549 15.8011 21.8153 13.2593 21.8153 9.99976Z" fill="#4285F4"/>
</svg>
