<svg width="16" height="17" viewBox="0 0 16 17" fill="none" xmlns="http://www.w3.org/2000/svg">
<g clip-path="url(#clip0_616_103881)">
<path d="M14.0798 6.90001C14.0798 6.54673 13.7931 6.26001 13.4398 6.26001C13.0865 6.26001 12.7998 6.54673 12.7998 6.90001C12.7998 7.05233 12.7998 11.5477 12.7998 11.7C12.7998 12.0533 13.0865 12.34 13.4398 12.34C13.7931 12.34 14.0798 12.0533 14.0798 11.7C14.0798 11.5477 14.0798 7.05233 14.0798 6.90001Z" stroke="black" stroke-miterlimit="10"/>
<path d="M8.95973 15.54C9.31301 15.54 9.59973 15.2533 9.59973 14.9C9.59973 14.5467 9.31301 14.26 8.95973 14.26C8.80741 14.26 7.51205 14.26 7.35973 14.26C7.00645 14.26 6.71973 14.5467 6.71973 14.9C6.71973 15.2533 7.00645 15.54 7.35973 15.54C7.51205 15.54 8.80741 15.54 8.95973 15.54Z" stroke="black" stroke-miterlimit="10"/>
<path d="M2.55957 6.57989C2.55957 3.57541 4.99509 1.13989 7.99957 1.13989C11.004 1.13989 13.4396 3.57541 13.4396 6.57989" stroke="black" stroke-miterlimit="10"/>
<path d="M14.0801 6.8999C14.9639 6.8999 15.6801 7.97414 15.6801 9.2999C15.6801 10.625 14.9639 11.6999 14.0801 11.6999" stroke="black" stroke-miterlimit="10"/>
<path d="M1.91992 6.90001C1.91992 6.54673 2.20664 6.26001 2.55992 6.26001C2.9132 6.26001 3.19992 6.54673 3.19992 6.90001C3.19992 7.05233 3.19992 11.5477 3.19992 11.7C3.19992 12.0533 2.9132 12.34 2.55992 12.34C2.20664 12.34 1.91992 12.0533 1.91992 11.7C1.91992 11.5477 1.91992 7.05233 1.91992 6.90001Z" stroke="black" stroke-miterlimit="10"/>
<path d="M1.92031 6.8999C1.03679 6.8999 0.320312 7.97414 0.320312 9.2999C0.320312 10.625 1.03679 11.6999 1.92031 11.6999" stroke="black" stroke-miterlimit="10"/>
<path d="M13.4396 12.3401C13.4396 13.9401 12.4796 14.9001 10.8796 14.9001H9.59961" stroke="black" stroke-miterlimit="10"/>
</g>
<defs>
<clipPath id="clip0_616_103881">
<rect width="16" height="16" fill="white" transform="translate(0 0.5)"/>
</clipPath>
</defs>
</svg>
