<svg width="301" height="200" viewBox="0 0 301 200" fill="none" xmlns="http://www.w3.org/2000/svg">
<g clip-path="url(#clip0_325_30441)">
<path d="M269.891 133.444H197.492C196.87 133.443 196.274 133.195 195.834 132.756C195.393 132.317 195.146 131.721 195.145 131.1V25.7878C195.146 25.1665 195.393 24.5709 195.834 24.1316C196.274 23.6922 196.87 23.4449 197.492 23.4438H269.891C270.514 23.4438 271.112 23.6907 271.553 24.1301C271.994 24.5696 272.242 25.1658 272.243 25.7878V131.1C272.242 131.722 271.994 132.318 271.553 132.758C271.112 133.197 270.514 133.444 269.891 133.444ZM197.492 23.5438C196.896 23.5438 196.325 23.7803 195.903 24.2011C195.482 24.6219 195.245 25.1927 195.245 25.7878V131.1C195.245 131.695 195.482 132.266 195.903 132.687C196.325 133.107 196.896 133.344 197.492 133.344H269.891C270.488 133.344 271.06 133.108 271.482 132.687C271.904 132.266 272.142 131.695 272.143 131.1V25.7878C272.142 25.1923 271.904 24.6216 271.482 24.2009C271.06 23.7801 270.488 23.5438 269.891 23.5438H197.492Z" fill="#E0E0E0"/>
<path d="M186.4 133.444H113.993C113.37 133.443 112.774 133.195 112.334 132.756C111.894 132.317 111.646 131.721 111.645 131.1V25.7878C111.646 25.1665 111.894 24.5709 112.334 24.1316C112.774 23.6922 113.37 23.4449 113.993 23.4438H186.4C187.022 23.4449 187.619 23.6922 188.059 24.1316C188.499 24.5709 188.746 25.1665 188.747 25.7878V131.1C188.746 131.721 188.499 132.317 188.059 132.756C187.619 133.195 187.022 133.443 186.4 133.444ZM113.993 23.5438C113.401 23.5502 112.835 23.7892 112.418 24.2093C112.001 24.6293 111.766 25.1965 111.765 25.7878V131.1C111.766 131.695 112.004 132.265 112.425 132.685C112.846 133.106 113.417 133.343 114.013 133.344H186.4C186.996 133.343 187.567 133.106 187.988 132.685C188.409 132.265 188.646 131.695 188.647 131.1V25.7878C188.646 25.193 188.409 24.6229 187.988 24.2023C187.567 23.7817 186.996 23.5449 186.4 23.5438H113.993Z" fill="#E0E0E0"/>
<path d="M102.952 133.444H30.5531C29.9302 133.444 29.3327 133.197 28.8918 132.758C28.4509 132.318 28.2027 131.722 28.2017 131.1V25.7878C28.2027 25.1658 28.4509 24.5696 28.8918 24.1301C29.3327 23.6907 29.9302 23.4438 30.5531 23.4438H102.952C103.575 23.4449 104.171 23.6922 104.611 24.1316C105.051 24.5709 105.299 25.1665 105.3 25.7878V131.1C105.299 131.721 105.051 132.317 104.611 132.756C104.171 133.195 103.575 133.443 102.952 133.444ZM30.5531 23.5438C29.9567 23.5438 29.3847 23.7801 28.9626 24.2009C28.5405 24.6216 28.3029 25.1923 28.3018 25.7878V131.1C28.3029 131.695 28.5405 132.266 28.9626 132.687C29.3847 133.108 29.9567 133.344 30.5531 133.344H102.952C103.548 133.344 104.12 133.107 104.541 132.687C104.963 132.266 105.2 131.695 105.2 131.1V25.7878C105.2 25.1927 104.963 24.6219 104.541 24.2011C104.12 23.7803 103.548 23.5438 102.952 23.5438H30.5531Z" fill="#E0E0E0"/>
<path d="M300.444 157.872H0V157.92H300.444V157.872Z" fill="#E0E0E0"/>
<path d="M99.1187 48.632C100.996 46.7774 103.532 45.7402 106.172 45.7471C108.813 45.754 111.343 46.8045 113.211 48.669C115.078 50.5334 116.13 53.0602 116.137 55.6969C116.144 58.3336 115.105 60.8658 113.248 62.74L107.603 68.376C107.417 68.5623 107.196 68.7101 106.953 68.8109C106.709 68.9117 106.449 68.9636 106.185 68.9636C105.922 68.9636 105.661 68.9117 105.417 68.8109C105.174 68.7101 104.953 68.5623 104.767 68.376L99.1187 62.736C97.2464 60.8653 96.1946 58.3288 96.1946 55.684C96.1946 53.0393 97.2464 50.5027 99.1187 48.632ZM106.185 60.324C107.103 60.324 108 60.0524 108.762 59.5434C109.525 59.0344 110.12 58.311 110.471 57.4646C110.822 56.6182 110.914 55.6869 110.735 54.7884C110.556 53.8898 110.114 53.0645 109.465 52.4167C108.817 51.7689 107.99 51.3278 107.09 51.149C106.19 50.9703 105.258 51.062 104.41 51.4126C103.562 51.7632 102.838 52.3569 102.328 53.1186C101.818 53.8804 101.546 54.7759 101.546 55.692C101.548 56.9191 102.038 58.0952 102.908 58.9622C103.778 59.8291 104.956 60.316 106.185 60.316V60.324Z" fill="#E6E6E6"/>
<path d="M265.425 97.0598V78.0598H253.643V82.3918H245.792V34.9238H230.689V53.6078H226.158V44.2798H214.377V89.7758H197.76V73.6998H187.345V38.8478H174.486V62.0838H162.404V112.14H153.042V87.7638H143.376V72.0798H133.105V60.0398L121.648 66.0718V98.2878H109.566V91.6438H93.4221V138.336L281.304 138.428V97.0598H265.425Z" fill="#EBEBEB"/>
<path d="M144.161 138.364V68.8916H131.342V138.428C135.4 138.328 144.161 138.364 144.161 138.364Z" fill="#E6E6E6"/>
<path d="M132.472 138.428V100.22H106.053V138.344L132.472 138.428Z" fill="white"/>
<path d="M164.571 138.372V82.2798H149.605V138.364L164.571 138.372Z" fill="#E0E0E0"/>
<path d="M152.558 84.48H150.743V88.216H152.558V84.48Z" fill="white"/>
<path d="M156.183 84.48H154.368V88.216H156.183V84.48Z" fill="white"/>
<path d="M159.812 84.48H157.998V88.216H159.812V84.48Z" fill="white"/>
<path d="M163.442 84.48H161.627V88.216H163.442V84.48Z" fill="white"/>
<path d="M152.558 90.748H150.743V94.4841H152.558V90.748Z" fill="white"/>
<path d="M156.183 90.748H154.368V94.4841H156.183V90.748Z" fill="white"/>
<path d="M159.812 90.748H157.998V94.4841H159.812V90.748Z" fill="white"/>
<path d="M163.442 90.748H161.627V94.4841H163.442V90.748Z" fill="white"/>
<path d="M152.558 97.0117H150.743V100.748H152.558V97.0117Z" fill="white"/>
<path d="M156.183 97.0117H154.368V100.748H156.183V97.0117Z" fill="white"/>
<path d="M159.812 97.0117H157.998V100.748H159.812V97.0117Z" fill="white"/>
<path d="M163.442 97.0117H161.627V100.748H163.442V97.0117Z" fill="white"/>
<path d="M152.558 103.276H150.743V107.012H152.558V103.276Z" fill="white"/>
<path d="M156.183 103.276H154.368V107.012H156.183V103.276Z" fill="white"/>
<path d="M159.812 103.276H157.998V107.012H159.812V103.276Z" fill="white"/>
<path d="M163.442 103.276H161.627V107.012H163.442V103.276Z" fill="white"/>
<path d="M152.558 109.54H150.743V113.276H152.558V109.54Z" fill="white"/>
<path d="M156.183 109.54H154.368V113.276H156.183V109.54Z" fill="white"/>
<path d="M159.812 109.54H157.998V113.276H159.812V109.54Z" fill="white"/>
<path d="M163.442 109.54H161.627V113.276H163.442V109.54Z" fill="white"/>
<path d="M152.558 115.804H150.743V119.54H152.558V115.804Z" fill="white"/>
<path d="M156.183 115.804H154.368V119.54H156.183V115.804Z" fill="white"/>
<path d="M159.812 115.804H157.998V119.54H159.812V115.804Z" fill="white"/>
<path d="M163.442 115.804H161.627V119.54H163.442V115.804Z" fill="white"/>
<path d="M152.558 122.068H150.743V125.804H152.558V122.068Z" fill="white"/>
<path d="M156.183 122.068H154.368V125.804H156.183V122.068Z" fill="white"/>
<path d="M159.812 122.068H157.998V125.804H159.812V122.068Z" fill="white"/>
<path d="M163.442 122.068H161.627V125.804H163.442V122.068Z" fill="white"/>
<path d="M152.558 128.336H150.743V132.072H152.558V128.336Z" fill="white"/>
<path d="M156.183 128.336H154.368V132.072H156.183V128.336Z" fill="white"/>
<path d="M159.812 128.336H157.998V132.072H159.812V128.336Z" fill="white"/>
<path d="M163.442 128.336H161.627V132.072H163.442V128.336Z" fill="white"/>
<path d="M216.58 138.4V74.292H185.55V138.42C185.55 138.42 216.344 138.428 216.58 138.4Z" fill="#F5F5F5"/>
<path d="M191.64 76.8477H187.878V81.1517H191.64V76.8477Z" fill="#E6E6E6"/>
<path d="M199.171 76.8477H195.409V81.1517H199.171V76.8477Z" fill="#E6E6E6"/>
<path d="M206.694 76.8477H202.932V81.1517H206.694V76.8477Z" fill="#E6E6E6"/>
<path d="M214.221 76.8477H210.459V81.1517H214.221V76.8477Z" fill="#E6E6E6"/>
<path d="M191.64 84.0679H187.878V88.3719H191.64V84.0679Z" fill="#E6E6E6"/>
<path d="M199.171 84.0679H195.409V88.3719H199.171V84.0679Z" fill="#E6E6E6"/>
<path d="M206.694 84.0679H202.932V88.3719H206.694V84.0679Z" fill="#E6E6E6"/>
<path d="M214.221 84.0679H210.459V88.3719H214.221V84.0679Z" fill="#E6E6E6"/>
<path d="M191.64 91.2876H187.878V95.5916H191.64V91.2876Z" fill="#E6E6E6"/>
<path d="M199.171 91.2876H195.409V95.5916H199.171V91.2876Z" fill="#E6E6E6"/>
<path d="M206.694 91.2876H202.932V95.5916H206.694V91.2876Z" fill="#E6E6E6"/>
<path d="M214.221 91.2876H210.459V95.5916H214.221V91.2876Z" fill="#E6E6E6"/>
<path d="M191.64 98.5039H187.878V102.808H191.64V98.5039Z" fill="#E6E6E6"/>
<path d="M199.171 98.5039H195.409V102.808H199.171V98.5039Z" fill="#E6E6E6"/>
<path d="M206.694 98.5039H202.932V102.808H206.694V98.5039Z" fill="#E6E6E6"/>
<path d="M214.221 98.5039H210.459V102.808H214.221V98.5039Z" fill="#E6E6E6"/>
<path d="M191.64 105.728H187.878V110.032H191.64V105.728Z" fill="#E6E6E6"/>
<path d="M199.171 105.728H195.409V110.032H199.171V105.728Z" fill="#E6E6E6"/>
<path d="M206.694 105.728H202.932V110.032H206.694V105.728Z" fill="#E6E6E6"/>
<path d="M214.221 105.728H210.459V110.032H214.221V105.728Z" fill="#E6E6E6"/>
<path d="M191.64 112.944H187.878V117.248H191.64V112.944Z" fill="#E6E6E6"/>
<path d="M199.171 112.944H195.409V117.248H199.171V112.944Z" fill="#E6E6E6"/>
<path d="M206.694 112.944H202.932V117.248H206.694V112.944Z" fill="#E6E6E6"/>
<path d="M214.221 112.944H210.459V117.248H214.221V112.944Z" fill="#E6E6E6"/>
<path d="M191.64 120.164H187.878V124.468H191.64V120.164Z" fill="#E6E6E6"/>
<path d="M199.171 120.164H195.409V124.468H199.171V120.164Z" fill="#E6E6E6"/>
<path d="M206.694 120.164H202.932V124.468H206.694V120.164Z" fill="#E6E6E6"/>
<path d="M214.221 120.164H210.459V124.468H214.221V120.164Z" fill="#E6E6E6"/>
<path d="M191.64 127.384H187.878V131.688H191.64V127.384Z" fill="#E6E6E6"/>
<path d="M199.171 127.384H195.409V131.688H199.171V127.384Z" fill="#E6E6E6"/>
<path d="M206.694 127.384H202.932V131.688H206.694V127.384Z" fill="#E6E6E6"/>
<path d="M214.221 127.384H210.459V131.688H214.221V127.384Z" fill="#E6E6E6"/>
<path d="M137.159 73.6118H133.694V77.5798H137.159V73.6118Z" fill="white"/>
<path d="M137.159 80.2637H133.694V84.2317H137.159V80.2637Z" fill="white"/>
<path d="M137.159 86.9199H133.694V90.8879H137.159V86.9199Z" fill="white"/>
<path d="M137.159 93.5679H133.694V97.5359H137.159V93.5679Z" fill="white"/>
<path d="M137.159 100.22H133.694V104.188H137.159V100.22Z" fill="white"/>
<path d="M137.159 106.876H133.694V110.844H137.159V106.876Z" fill="white"/>
<path d="M137.159 113.528H133.694V117.496H137.159V113.528Z" fill="white"/>
<path d="M137.159 120.18H133.694V124.148H137.159V120.18Z" fill="white"/>
<path d="M141.794 73.6118H138.329V77.5798H141.794V73.6118Z" fill="white"/>
<path d="M141.794 80.2637H138.329V84.2317H141.794V80.2637Z" fill="white"/>
<path d="M141.794 86.9199H138.329V90.8879H141.794V86.9199Z" fill="white"/>
<path d="M141.794 93.5679H138.329V97.5359H141.794V93.5679Z" fill="white"/>
<path d="M141.794 100.22H138.329V104.188H141.794V100.22Z" fill="white"/>
<path d="M141.794 106.876H138.329V110.844H141.794V106.876Z" fill="white"/>
<path d="M141.794 113.528H138.329V117.496H141.794V113.528Z" fill="white"/>
<path d="M141.794 120.18H138.329V124.148H141.794V120.18Z" fill="white"/>
<path d="M181.192 43.46H177.43V47.764H181.192V43.46Z" fill="white"/>
<path d="M181.192 50.6758H177.43V54.9798H181.192V50.6758Z" fill="white"/>
<path d="M181.192 57.4038H177.43V61.7078H181.192V57.4038Z" fill="white"/>
<path d="M181.192 64.6196H177.43V68.9236H181.192V64.6196Z" fill="white"/>
<path d="M181.192 71.8359H177.43V76.1399H181.192V71.8359Z" fill="white"/>
<path d="M181.192 79.0601H177.43V83.3641H181.192V79.0601Z" fill="white"/>
<path d="M181.192 86.2759H177.43V90.5799H181.192V86.2759Z" fill="white"/>
<path d="M181.192 93.5H177.43V97.804H181.192V93.5Z" fill="white"/>
<path d="M237.703 37.1997H233.942V41.5037H237.703V37.1997Z" fill="white"/>
<path d="M237.703 44.416H233.942V48.72H237.703V44.416Z" fill="white"/>
<path d="M237.703 51.6396H233.942V55.9436H237.703V51.6396Z" fill="white"/>
<path d="M237.703 58.856H233.942V63.16H237.703V58.856Z" fill="white"/>
<path d="M237.703 66.0796H233.942V70.3836H237.703V66.0796Z" fill="white"/>
<path d="M237.703 73.2959H233.942V77.5999H237.703V73.2959Z" fill="white"/>
<path d="M237.703 80.5156H233.942V84.8196H237.703V80.5156Z" fill="white"/>
<path d="M237.703 87.7358H233.942V92.0398H237.703V87.7358Z" fill="white"/>
<path d="M264.655 70.3638H241.998V138.428H264.655V70.3638Z" fill="#E6E6E6"/>
<path d="M251.993 73.7197H245.351V78.0237H251.993V73.7197Z" fill="white"/>
<path d="M251.993 80.9438H245.351V85.2478H251.993V80.9438Z" fill="white"/>
<path d="M251.993 88.1597H245.351V92.4637H251.993V88.1597Z" fill="white"/>
<path d="M251.993 95.3799H245.351V99.6839H251.993V95.3799Z" fill="white"/>
<path d="M251.993 102.6H245.351V106.904H251.993V102.6Z" fill="white"/>
<path d="M251.993 109.816H245.351V114.12H251.993V109.816Z" fill="white"/>
<path d="M251.993 117.04H245.351V121.344H251.993V117.04Z" fill="white"/>
<path d="M251.993 124.256H245.351V128.56H251.993V124.256Z" fill="white"/>
<path d="M260.878 73.7197H254.236V78.0237H260.878V73.7197Z" fill="white"/>
<path d="M260.878 80.9438H254.236V85.2478H260.878V80.9438Z" fill="white"/>
<path d="M260.878 88.1597H254.236V92.4637H260.878V88.1597Z" fill="white"/>
<path d="M260.878 95.3799H254.236V99.6839H260.878V95.3799Z" fill="white"/>
<path d="M260.878 102.6H254.236V106.904H260.878V102.6Z" fill="white"/>
<path d="M260.878 109.816H254.236V114.12H260.878V109.816Z" fill="white"/>
<path d="M260.878 117.04H254.236V121.344H260.878V117.04Z" fill="white"/>
<path d="M260.878 124.256H254.236V128.56H260.878V124.256Z" fill="white"/>
<path d="M229.644 138.4V91.2876H219.761V138.4H229.644Z" fill="#E0E0E0"/>
<path d="M221.708 93.1919H220.51V96.3999H221.708V93.1919Z" fill="white"/>
<path d="M224.104 93.1919H222.906V96.3999H224.104V93.1919Z" fill="white"/>
<path d="M226.495 93.1919H225.297V96.3999H226.495V93.1919Z" fill="white"/>
<path d="M228.895 93.1919H227.697V96.3999H228.895V93.1919Z" fill="white"/>
<path d="M221.708 98.5757H220.51V101.784H221.708V98.5757Z" fill="white"/>
<path d="M224.104 98.5757H222.906V101.784H224.104V98.5757Z" fill="white"/>
<path d="M226.495 98.5757H225.297V101.784H226.495V98.5757Z" fill="white"/>
<path d="M228.895 98.5757H227.697V101.784H228.895V98.5757Z" fill="white"/>
<path d="M221.708 103.956H220.51V107.164H221.708V103.956Z" fill="white"/>
<path d="M224.104 103.956H222.906V107.164H224.104V103.956Z" fill="white"/>
<path d="M226.495 103.956H225.297V107.164H226.495V103.956Z" fill="white"/>
<path d="M228.895 103.956H227.697V107.164H228.895V103.956Z" fill="white"/>
<path d="M221.708 109.34H220.51V112.548H221.708V109.34Z" fill="white"/>
<path d="M224.104 109.34H222.906V112.548H224.104V109.34Z" fill="white"/>
<path d="M226.495 109.34H225.297V112.548H226.495V109.34Z" fill="white"/>
<path d="M228.895 109.34H227.697V112.548H228.895V109.34Z" fill="white"/>
<path d="M221.708 114.728H220.51V117.936H221.708V114.728Z" fill="white"/>
<path d="M224.104 114.728H222.906V117.936H224.104V114.728Z" fill="white"/>
<path d="M226.495 114.728H225.297V117.936H226.495V114.728Z" fill="white"/>
<path d="M228.895 114.728H227.697V117.936H228.895V114.728Z" fill="white"/>
<path d="M221.708 120.108H220.51V123.316H221.708V120.108Z" fill="white"/>
<path d="M224.104 120.108H222.906V123.316H224.104V120.108Z" fill="white"/>
<path d="M226.495 120.108H225.297V123.316H226.495V120.108Z" fill="white"/>
<path d="M228.895 120.108H227.697V123.316H228.895V120.108Z" fill="white"/>
<path d="M221.708 125.492H220.51V128.7H221.708V125.492Z" fill="white"/>
<path d="M224.104 125.492H222.906V128.7H224.104V125.492Z" fill="white"/>
<path d="M226.495 125.492H225.297V128.7H226.495V125.492Z" fill="white"/>
<path d="M228.895 125.492H227.697V128.7H228.895V125.492Z" fill="white"/>
<path d="M221.708 130.872H220.51V134.08H221.708V130.872Z" fill="white"/>
<path d="M224.104 130.872H222.906V134.08H224.104V130.872Z" fill="white"/>
<path d="M226.495 130.872H225.297V134.08H226.495V130.872Z" fill="white"/>
<path d="M228.895 130.872H227.697V134.08H228.895V130.872Z" fill="white"/>
<path d="M111.256 101.816H108.052V104.508H111.256V101.816Z" fill="#E6E6E6"/>
<path d="M117.662 101.816H114.457V104.508H117.662V101.816Z" fill="#E6E6E6"/>
<path d="M124.063 101.816H120.859V104.508H124.063V101.816Z" fill="#E6E6E6"/>
<path d="M130.473 101.816H127.268V104.508H130.473V101.816Z" fill="#E6E6E6"/>
<path d="M111.256 106.332H108.052V109.024H111.256V106.332Z" fill="#E6E6E6"/>
<path d="M117.662 106.332H114.457V109.024H117.662V106.332Z" fill="#E6E6E6"/>
<path d="M124.063 106.332H120.859V109.024H124.063V106.332Z" fill="#E6E6E6"/>
<path d="M130.473 106.332H127.268V109.024H130.473V106.332Z" fill="#E6E6E6"/>
<path d="M111.256 110.844H108.052V113.536H111.256V110.844Z" fill="#E6E6E6"/>
<path d="M117.662 110.844H114.457V113.536H117.662V110.844Z" fill="#E6E6E6"/>
<path d="M124.063 110.844H120.859V113.536H124.063V110.844Z" fill="#E6E6E6"/>
<path d="M130.473 110.844H127.268V113.536H130.473V110.844Z" fill="#E6E6E6"/>
<path d="M111.256 115.36H108.052V118.052H111.256V115.36Z" fill="#E6E6E6"/>
<path d="M117.662 115.36H114.457V118.052H117.662V115.36Z" fill="#E6E6E6"/>
<path d="M124.063 115.36H120.859V118.052H124.063V115.36Z" fill="#E6E6E6"/>
<path d="M130.473 115.36H127.268V118.052H130.473V115.36Z" fill="#E6E6E6"/>
<path d="M111.256 119.872H108.052V122.564H111.256V119.872Z" fill="#E6E6E6"/>
<path d="M117.662 119.872H114.457V122.564H117.662V119.872Z" fill="#E6E6E6"/>
<path d="M124.063 119.872H120.859V122.564H124.063V119.872Z" fill="#E6E6E6"/>
<path d="M130.473 119.872H127.268V122.564H130.473V119.872Z" fill="#E6E6E6"/>
<path d="M111.256 124.384H108.052V127.076H111.256V124.384Z" fill="#E6E6E6"/>
<path d="M117.662 124.384H114.457V127.076H117.662V124.384Z" fill="#E6E6E6"/>
<path d="M124.063 124.384H120.859V127.076H124.063V124.384Z" fill="#E6E6E6"/>
<path d="M130.473 124.384H127.268V127.076H130.473V124.384Z" fill="#E6E6E6"/>
<path d="M111.256 128.9H108.052V131.592H111.256V128.9Z" fill="#E6E6E6"/>
<path d="M117.662 128.9H114.457V131.592H117.662V128.9Z" fill="#E6E6E6"/>
<path d="M124.063 128.9H120.859V131.592H124.063V128.9Z" fill="#E6E6E6"/>
<path d="M130.473 128.9H127.268V131.592H130.473V128.9Z" fill="#E6E6E6"/>
<path d="M284.164 169.624H261.839V169.792H284.164V169.624Z" fill="#EBEBEB"/>
<path d="M204.17 171.448H198.309V171.616H204.17V171.448Z" fill="#EBEBEB"/>
<path d="M45.3911 164.504H16.28V164.672H45.3911V164.504Z" fill="#EBEBEB"/>
<path d="M55.6663 164.504H51.396V164.672H55.6663V164.504Z" fill="#EBEBEB"/>
<path d="M132.676 167.344H69.5388V167.512H132.676V167.344Z" fill="#EBEBEB"/>
<path d="M263.189 180.652C263.189 182.008 216.092 183.104 157.994 183.104C99.8958 183.104 52.7981 182.008 52.7981 180.652C52.7981 179.296 99.8958 178.2 157.994 178.2C216.092 178.2 263.189 179.3 263.189 180.652Z" fill="#F5F5F5"/>
<path d="M23.1502 33.564H79.3734C80.766 33.564 82.1018 34.115 83.0884 35.0963C84.075 36.0777 84.6319 37.4095 84.6372 38.8V155.576C84.6372 157.379 83.9197 159.109 82.6425 160.384C81.3654 161.66 79.6332 162.376 77.8271 162.376H24.7085C22.9024 162.376 21.1702 161.66 19.8931 160.384C18.6159 159.109 17.8984 157.379 17.8984 155.576V38.8C17.9037 37.4115 18.459 36.0816 19.443 35.1006C20.427 34.1195 21.7597 33.5671 23.1502 33.564Z" fill="#263238"/>
<path d="M65.1003 36.4561L64.0307 38.5641H37.912L36.3577 36.4561H24.0115C23.543 36.453 23.0785 36.5422 22.6446 36.7188C22.2108 36.8954 21.8162 37.1558 21.4834 37.4851C21.1506 37.8144 20.8863 38.2061 20.7055 38.6377C20.5248 39.0693 20.4312 39.5323 20.4302 40.0001V153.64C20.4344 154.345 20.5776 155.042 20.8517 155.691C21.1258 156.341 21.5254 156.93 22.0276 157.425C22.5299 157.92 23.1249 158.312 23.7787 158.577C24.4326 158.843 25.1324 158.977 25.8382 158.972H76.6854C77.3908 158.976 78.0902 158.842 78.7436 158.576C79.397 158.31 79.9915 157.919 80.4933 157.424C80.9952 156.929 81.3944 156.34 81.6682 155.69C81.9421 155.041 82.0852 154.345 82.0894 153.64V40.0001C82.0883 39.533 81.995 39.0707 81.8148 38.6396C81.6345 38.2085 81.3709 37.8172 81.039 37.488C80.7071 37.1588 80.3134 36.8982 79.8805 36.7211C79.4476 36.5441 78.9839 36.454 78.5161 36.4561H65.1003Z" fill="white"/>
<path d="M51.2318 36.2562C51.235 36.4689 51.1747 36.6777 51.0587 36.8561C50.9427 37.0344 50.7761 37.1743 50.5803 37.2579C50.3844 37.3415 50.168 37.365 49.9587 37.3255C49.7494 37.286 49.5566 37.1852 49.4049 37.0359C49.2531 36.8866 49.1493 36.6957 49.1065 36.4873C49.0638 36.2789 49.0841 36.0626 49.1649 35.8657C49.2456 35.6689 49.3832 35.5005 49.5601 35.382C49.737 35.2635 49.9452 35.2002 50.1582 35.2002C50.4402 35.2002 50.7108 35.3109 50.9117 35.5085C51.1126 35.7061 51.2276 35.9747 51.2318 36.2562Z" fill="white"/>
<path d="M52.8181 36.2557C52.8181 36.3617 52.7866 36.4654 52.7276 36.5535C52.6686 36.6417 52.5848 36.7104 52.4867 36.7509C52.3886 36.7915 52.2807 36.8021 52.1766 36.7814C52.0724 36.7607 51.9768 36.7097 51.9017 36.6347C51.8267 36.5598 51.7755 36.4643 51.7548 36.3603C51.7341 36.2563 51.7447 36.1485 51.7854 36.0506C51.826 35.9527 51.8948 35.869 51.9831 35.8101C52.0713 35.7512 52.1751 35.7197 52.2813 35.7197C52.4237 35.7197 52.5602 35.7762 52.6609 35.8767C52.7615 35.9772 52.8181 36.1136 52.8181 36.2557Z" fill="white"/>
<path d="M78.5161 36.4561H65.1003L64.0307 38.5641H37.912L36.3577 36.4561H24.0115C23.543 36.453 23.0785 36.5422 22.6446 36.7188C22.2108 36.8954 21.8162 37.1558 21.4834 37.4851C21.1506 37.8144 20.8863 38.2061 20.7055 38.6377C20.5248 39.0693 20.4312 39.5323 20.4302 40.0001V69.0761H82.0894V40.0001C82.0883 39.533 81.995 39.0707 81.8148 38.6396C81.6345 38.2085 81.3709 37.8172 81.039 37.488C80.7071 37.1588 80.3134 36.8982 79.8805 36.7211C79.4476 36.5441 78.9839 36.454 78.5161 36.4561Z" fill="#00A8A8"/>
<path d="M43.0584 71.0442C42.1483 71.0442 41.3007 70.8963 40.5157 70.6005C39.742 70.2933 39.0651 69.8667 38.4849 69.3206C37.916 68.7631 37.4723 68.1089 37.1538 67.358C36.8352 66.6072 36.6759 65.788 36.6759 64.9006C36.6759 64.0132 36.8352 63.194 37.1538 62.4432C37.4723 61.6923 37.9217 61.0438 38.5019 60.4977C39.0822 59.9402 39.7591 59.5136 40.5327 59.2178C41.3064 58.9106 42.154 58.757 43.0755 58.757C44.0539 58.757 44.947 58.9277 45.7548 59.269C46.5626 59.5989 47.2452 60.0938 47.8027 60.7537L46.3692 62.1019C45.9368 61.6354 45.4533 61.2884 44.9186 61.0609C44.3839 60.8219 43.8036 60.7025 43.1779 60.7025C42.5522 60.7025 41.9776 60.8049 41.4543 61.0097C40.9423 61.2144 40.4929 61.5046 40.1061 61.88C39.7307 62.2554 39.4349 62.6991 39.2187 63.2111C39.0139 63.7231 38.9115 64.2862 38.9115 64.9006C38.9115 65.515 39.0139 66.0781 39.2187 66.5901C39.4349 67.1021 39.7307 67.5458 40.1061 67.9212C40.4929 68.2966 40.9423 68.5868 41.4543 68.7915C41.9776 68.9963 42.5522 69.0987 43.1779 69.0987C43.8036 69.0987 44.3839 68.9849 44.9186 68.7574C45.4533 68.5185 45.9368 68.1601 46.3692 67.6823L47.8027 69.0475C47.2452 69.696 46.5626 70.1909 45.7548 70.5322C44.947 70.8735 44.0482 71.0442 43.0584 71.0442ZM55.1048 70.8735V69.0305L54.9854 68.638V65.4126C54.9854 64.7868 54.7977 64.3033 54.4222 63.962C54.0468 63.6093 53.4779 63.433 52.7157 63.433C52.2037 63.433 51.6974 63.5126 51.1968 63.6719C50.7076 63.8312 50.2924 64.053 49.951 64.3374L49.1148 62.7845C49.604 62.409 50.1843 62.1303 50.8555 61.9483C51.5381 61.7549 52.2435 61.6581 52.9716 61.6581C54.2914 61.6581 55.3096 61.9767 56.0264 62.6138C56.7545 63.2396 57.1186 64.2123 57.1186 65.532V70.8735H55.1048ZM52.2378 70.993C51.5552 70.993 50.9579 70.8792 50.4459 70.6517C49.934 70.4128 49.5358 70.0885 49.2514 69.6789C48.9783 69.258 48.8418 68.7859 48.8418 68.2625C48.8418 67.7505 48.9612 67.2898 49.2002 66.8802C49.4505 66.4706 49.8543 66.1464 50.4118 65.9075C50.9693 65.6685 51.7088 65.5491 52.6303 65.5491H55.2755V66.9655H52.7839C52.0558 66.9655 51.5666 67.085 51.3163 67.3239C51.066 67.5514 50.9408 67.8359 50.9408 68.1772C50.9408 68.564 51.0944 68.8712 51.4016 69.0987C51.7088 69.3263 52.1354 69.44 52.6815 69.44C53.2049 69.44 53.6713 69.3206 54.0809 69.0817C54.5019 68.8427 54.8033 68.49 54.9854 68.0236L55.3438 69.3035C55.139 69.8382 54.7692 70.2535 54.2345 70.5493C53.7112 70.8451 53.0456 70.993 52.2378 70.993ZM59.8563 70.8735V61.7605H61.8871V64.2692L61.6481 63.5354C61.9212 62.921 62.3478 62.4545 62.9281 62.136C63.5197 61.8174 64.2535 61.6581 65.1295 61.6581V63.6889C65.0385 63.6662 64.9532 63.6548 64.8735 63.6548C64.7939 63.6434 64.7142 63.6377 64.6346 63.6377C63.8268 63.6377 63.184 63.8767 62.7062 64.3545C62.2284 64.821 61.9894 65.5206 61.9894 66.4536V70.8735H59.8563ZM37.5292 91.8735V79.9277H42.427C44.0198 79.9277 45.2656 80.3031 46.1644 81.054C47.0745 81.8049 47.5296 82.8459 47.5296 84.177C47.5296 85.053 47.3248 85.8096 46.9153 86.4467C46.5057 87.0724 45.9198 87.556 45.1575 87.8973C44.4066 88.2272 43.5021 88.3922 42.4441 88.3922H38.7579L39.7477 87.3853V91.8735H37.5292ZM45.3452 91.8735L42.3246 87.5389H44.6967L47.7344 91.8735H45.3452ZM39.7477 87.6242L38.7579 86.5662H42.3417C43.3201 86.5662 44.0539 86.3557 44.5431 85.9347C45.0437 85.5138 45.294 84.9279 45.294 84.177C45.294 83.4147 45.0437 82.8288 44.5431 82.4192C44.0539 82.0097 43.3201 81.8049 42.3417 81.8049H38.7579L39.7477 80.7127V87.6242ZM54.0904 91.993C53.0778 91.993 52.1904 91.7939 51.4282 91.3957C50.6773 90.9861 50.0914 90.4287 49.6704 89.7233C49.2608 89.0179 49.056 88.2158 49.056 87.317C49.056 86.4069 49.2551 85.6048 49.6533 84.9108C50.0629 84.2054 50.6204 83.6536 51.3258 83.2554C52.0425 82.8572 52.856 82.6581 53.7661 82.6581C54.6535 82.6581 55.4442 82.8516 56.1382 83.2384C56.8322 83.6252 57.3783 84.1713 57.7765 84.8767C58.1747 85.582 58.3738 86.4126 58.3738 87.3682C58.3738 87.4593 58.3681 87.5616 58.3568 87.6754C58.3568 87.7892 58.3511 87.8973 58.3397 87.9997H50.7455V86.5832H57.2134L56.3772 87.0269C56.3885 86.5036 56.2805 86.0428 56.0529 85.6446C55.8254 85.2464 55.5125 84.9336 55.1143 84.706C54.7275 84.4785 54.2781 84.3647 53.7661 84.3647C53.2428 84.3647 52.782 84.4785 52.3838 84.706C51.997 84.9336 51.6898 85.2521 51.4623 85.6617C51.2461 86.0599 51.138 86.532 51.138 87.0781V87.4194C51.138 87.9655 51.2632 88.4491 51.5135 88.87C51.7638 89.291 52.1165 89.6152 52.5715 89.8427C53.0266 90.0703 53.55 90.184 54.1416 90.184C54.6535 90.184 55.1143 90.1044 55.5239 89.9451C55.9335 89.7859 56.2975 89.5356 56.6161 89.1942L57.7595 90.5083C57.3499 90.9861 56.8322 91.3559 56.2065 91.6176C55.5921 91.8678 54.8868 91.993 54.0904 91.993ZM37.3244 112.874V103.761H39.3552V106.218L38.9968 105.467C39.3154 104.887 39.7762 104.443 40.3792 104.136C40.9935 103.817 41.6989 103.658 42.4953 103.658C43.2234 103.658 43.8719 103.8 44.4407 104.085C45.021 104.369 45.4761 104.807 45.806 105.399C46.1359 105.979 46.3009 106.73 46.3009 107.651V112.874H44.1677V107.925C44.1677 107.117 43.9743 106.514 43.5875 106.116C43.212 105.717 42.683 105.518 42.0004 105.518C41.4998 105.518 41.0561 105.621 40.6693 105.825C40.2824 106.03 39.981 106.337 39.7648 106.747C39.56 107.145 39.4576 107.651 39.4576 108.266V112.874H37.3244ZM52.4372 112.993C51.436 112.993 50.6623 112.737 50.1162 112.225C49.5701 111.702 49.2971 110.934 49.2971 109.921V101.747H51.4303V109.87C51.4303 110.302 51.5384 110.638 51.7545 110.877C51.9821 111.116 52.2949 111.235 52.6931 111.235C53.171 111.235 53.5692 111.11 53.8877 110.86L54.485 112.379C54.2347 112.583 53.9275 112.737 53.5635 112.839C53.1994 112.942 52.824 112.993 52.4372 112.993ZM47.7953 105.467V103.761H53.8707V105.467H47.7953Z" fill="white"/>
<path d="M57.9136 51.3522V49.2362C57.9116 49.1509 57.89 49.0672 57.8504 48.9916C57.8108 48.916 57.7543 48.8505 57.6853 48.8002L57.6372 48.7722L56.135 47.9722C56.1237 47.9643 56.1153 47.9531 56.1109 47.9402C56.1071 47.9302 56.1053 47.9196 56.1057 47.9089C56.106 47.8982 56.1085 47.8878 56.113 47.8781C56.1175 47.8684 56.1239 47.8597 56.1318 47.8525C56.1397 47.8453 56.1489 47.8397 56.159 47.8362L56.3393 47.7722C56.347 47.7689 56.3538 47.764 56.3594 47.7578C56.3649 47.7516 56.369 47.7442 56.3713 47.7362C56.3715 47.7247 56.3675 47.7136 56.3602 47.7048C56.3528 47.696 56.3426 47.6901 56.3313 47.6882C55.6182 47.5882 52.8421 47.2282 51.3839 47.4042C51.0743 47.4342 50.7691 47.5 50.4746 47.6002C49.6696 47.9025 48.9198 48.3349 48.2553 48.8802L48.035 49.0602C47.0393 49.0538 46.0535 49.2583 45.1427 49.6602C45.0636 49.6957 44.9925 49.7471 44.934 49.8111C44.8754 49.875 44.8306 49.9503 44.8022 50.0322L44.634 50.5362C44.6101 50.6002 44.5979 50.6679 44.5979 50.7362V51.8002C44.5975 51.9115 44.6332 52.0199 44.6997 52.1093C44.7661 52.1987 44.8597 52.2643 44.9664 52.2962L45.0506 52.3242C45.1053 52.34 45.1619 52.3481 45.2188 52.3482H45.7917V52.3002H46.04C46.0994 52.4946 46.2052 52.6717 46.3485 52.8162C46.4993 52.9714 46.6894 53.0831 46.8985 53.1393C47.1077 53.1956 47.3282 53.1943 47.5367 53.1357C47.7452 53.0771 47.934 52.9633 48.0831 52.8064C48.2321 52.6494 48.3359 52.4552 48.3835 52.2442H48.6319V52.3002L54.3403 52.1642H54.4805C54.4805 52.1642 54.4805 52.1282 54.4805 52.1122H54.7209C54.7283 52.4304 54.8621 52.7327 55.0927 52.9525C55.3233 53.1723 55.632 53.2916 55.9507 53.2842C56.2694 53.2768 56.5721 53.1432 56.7923 52.9129C57.0124 52.6826 57.1319 52.3744 57.1244 52.0562H57.3648H57.3888L57.501 52.0042L57.5851 51.9682C57.6817 51.925 57.7638 51.8548 57.8214 51.7661C57.8789 51.6773 57.9096 51.5739 57.9096 51.4682V51.4122L57.9136 51.3522Z" fill="white"/>
<path d="M73.2644 109.52L26.8597 110.604V102.68H73.709L73.2644 109.52Z" fill="#263238"/>
<path d="M25.073 104.712V108.732C25.0718 109.152 25.2059 109.561 25.4555 109.899C25.7052 110.236 26.057 110.485 26.4591 110.608L26.7875 110.708C26.9896 110.771 27.2007 110.801 27.4125 110.796L29.5797 110.744C29.348 109.938 29.3044 109.09 29.4523 108.264C29.6002 107.439 29.9356 106.659 30.4328 105.983C30.93 105.307 31.5758 104.755 32.3204 104.367C33.065 103.98 33.8887 103.768 34.7281 103.748C35.5675 103.728 36.4003 103.901 37.1625 104.252C37.9247 104.604 38.596 105.126 39.1248 105.777C39.6536 106.428 40.0258 107.192 40.2127 108.009C40.3997 108.827 40.3965 109.676 40.2034 110.492L62.256 109.968C62.2207 109.711 62.2033 109.451 62.2039 109.192C62.1876 108.46 62.3183 107.731 62.5884 107.05C62.8586 106.369 63.2626 105.749 63.7766 105.227C64.2906 104.704 64.9043 104.29 65.5814 104.008C66.2584 103.726 66.9852 103.583 67.7187 103.586C68.4523 103.589 69.1778 103.739 69.8523 104.027C70.5269 104.314 71.1369 104.734 71.6464 105.261C72.1558 105.788 72.5543 106.412 72.8185 107.095C73.0826 107.778 73.2069 108.508 73.1842 109.24C73.1842 109.348 73.1842 109.452 73.1842 109.556L73.2723 109.52L74.0254 109.184C74.386 109.016 74.6909 108.749 74.9039 108.414C75.1169 108.078 75.2291 107.689 75.2272 107.292V99.1078C75.228 98.7297 75.125 98.3587 74.9293 98.035C74.7337 97.7113 74.4529 97.4473 74.1176 97.2718L68.4492 94.2958C68.3855 94.26 68.3361 94.2036 68.309 94.1358C68.293 94.0979 68.2851 94.0571 68.2856 94.016C68.2862 93.9748 68.2952 93.9342 68.3121 93.8967C68.329 93.8592 68.3534 93.8256 68.3839 93.7979C68.4144 93.7702 68.4502 93.7491 68.4892 93.7358L69.1823 93.4878C69.2104 93.4775 69.2353 93.4598 69.2544 93.4365C69.2734 93.4133 69.2858 93.3855 69.2904 93.3558C69.2932 93.3348 69.2918 93.3134 69.2862 93.2929C69.2807 93.2724 69.2711 93.2533 69.2581 93.2365C69.245 93.2198 69.2288 93.2058 69.2102 93.1953C69.1917 93.1849 69.1713 93.1783 69.1502 93.1758C66.4582 92.7998 55.9827 91.4318 50.4746 92.1038C44.1372 92.8958 38.0562 98.3998 38.0562 98.3998C33.3813 98.2238 29.0188 99.8518 27.1401 100.664C26.8401 100.794 26.5709 100.987 26.3501 101.228C26.1293 101.469 25.9617 101.754 25.8582 102.064L25.2132 103.964C25.1269 104.204 25.0796 104.457 25.073 104.712Z" fill="#00A8A8"/>
<path d="M62.26 109.968C62.2279 109.726 62.2118 109.483 62.2119 109.24C62.2119 109.116 62.2119 108.992 62.2119 108.872L58.206 107.24C57.9721 107.146 57.7204 107.105 57.4689 107.12L43.5964 108.032C43.37 108.044 43.1488 108.104 42.9474 108.208L40.3115 109.564C40.2936 109.876 40.2494 110.187 40.1793 110.492L62.26 109.968Z" fill="#263238"/>
<path d="M75.2433 107.292V107.084L72.9879 107.772C73.1171 108.251 73.1831 108.744 73.1842 109.24C73.1842 109.348 73.1842 109.452 73.1842 109.556L73.2723 109.52L74.0295 109.184C74.392 109.018 74.6991 108.751 74.9142 108.416C75.1294 108.08 75.2436 107.69 75.2433 107.292Z" fill="#263238"/>
<path d="M25.714 110.176C25.9287 110.375 26.1863 110.523 26.4671 110.608L26.7956 110.708C26.9977 110.771 27.2088 110.801 27.4205 110.796L29.5877 110.744C29.5081 110.47 29.4505 110.191 29.4155 109.908L25.714 110.176Z" fill="#263238"/>
<path d="M67.7001 103.24C67.4509 103.24 67.202 103.256 66.955 103.288C65.3765 103.487 63.9418 104.304 62.9655 105.559C61.9893 106.813 61.5511 108.403 61.7473 109.98H62.268C62.2327 109.723 62.2153 109.463 62.216 109.204C62.1996 108.471 62.3304 107.743 62.6005 107.062C62.8706 106.381 63.2746 105.761 63.7886 105.239C64.3026 104.716 64.9163 104.302 65.5934 104.02C66.2705 103.738 66.9972 103.594 67.7308 103.598C68.4643 103.601 69.1898 103.751 69.8644 104.039C70.5389 104.326 71.1489 104.746 71.6584 105.273C72.1678 105.8 72.5664 106.424 72.8305 107.107C73.0946 107.79 73.219 108.52 73.1962 109.252C73.1962 109.36 73.1962 109.464 73.1962 109.568L73.2843 109.532L73.717 109.336V109.252C73.717 107.66 73.0839 106.134 71.957 105.009C70.8301 103.884 69.3017 103.252 67.7081 103.252L67.7001 103.24Z" fill="#263238"/>
<path d="M34.8514 103.24C34.3378 103.241 33.8263 103.306 33.3292 103.436C31.7878 103.838 30.4695 104.835 29.6642 106.208C28.8589 107.581 28.6325 109.216 29.0348 110.756H29.5716C29.3399 109.95 29.2963 109.102 29.4442 108.276C29.5921 107.451 29.9276 106.671 30.4248 105.995C30.922 105.319 31.5677 104.767 32.3123 104.379C33.0569 103.992 33.8806 103.78 34.72 103.76C35.5595 103.74 36.3923 103.913 37.1545 104.264C37.9167 104.616 38.588 105.138 39.1168 105.789C39.6455 106.44 40.0177 107.204 40.2047 108.021C40.3917 108.839 40.3885 109.688 40.1953 110.504H40.7241C40.8123 110.095 40.8566 109.678 40.8563 109.26C40.8563 107.668 40.2232 106.142 39.0964 105.017C37.9695 103.892 36.4411 103.26 34.8474 103.26L34.8514 103.24Z" fill="#263238"/>
<path d="M40.1273 98.3038C40.0639 98.3506 40.0197 98.4189 40.0031 98.4958C39.9861 98.5826 40.0033 98.6726 40.051 98.7471C40.0988 98.8216 40.1734 98.8748 40.2595 98.8958L42.5629 99.4238C42.768 99.4684 42.9791 99.4792 43.1878 99.4558L60.1449 97.3518C60.5572 97.2998 60.9392 97.1077 61.2265 96.8078L63.4097 94.4998C63.4831 94.4238 63.5283 94.325 63.5379 94.2198C63.544 94.1581 63.5378 94.0958 63.5198 94.0364C63.5017 93.9771 63.4721 93.9219 63.4327 93.8739C63.3932 93.826 63.3447 93.7863 63.2899 93.7571C63.2351 93.728 63.1751 93.7098 63.1133 93.7038C59.0352 93.3038 53.8796 92.9398 50.6388 93.3358C46.3885 93.8678 42.1583 96.7358 40.1273 98.3038Z" fill="#263238"/>
<g opacity="0.3">
<path d="M51.2758 100.248C51.2499 100.239 51.2262 100.224 51.206 100.206C51.1857 100.187 51.1693 100.165 51.1578 100.14C51.1463 100.115 51.1398 100.088 51.1387 100.06C51.1376 100.033 51.142 100.006 51.1516 99.9799C51.1744 99.9136 51.217 99.8559 51.2735 99.8145C51.3301 99.773 51.3979 99.7498 51.4681 99.7479L53.4911 99.6639C53.5172 99.6563 53.545 99.6563 53.5712 99.6639C53.6234 99.6829 53.6662 99.7216 53.6901 99.7717C53.7141 99.8218 53.7174 99.8793 53.6994 99.9319C53.6754 99.9981 53.632 100.056 53.5748 100.097C53.5177 100.138 53.4494 100.162 53.3789 100.164L51.3559 100.248C51.3293 100.252 51.3024 100.252 51.2758 100.248Z" fill="black"/>
</g>
<path d="M66.314 94.4596C66.2294 94.5369 66.1784 94.644 66.1717 94.7583C66.1649 94.8726 66.2031 94.9849 66.2779 95.0716L66.7587 95.5916C66.8143 95.6506 66.8849 95.6935 66.963 95.7156L72.8397 97.3436C72.9415 97.3711 73.0466 97.3846 73.1521 97.3836H74.3178C74.2571 97.3431 74.1942 97.3057 74.1296 97.2716L68.4612 94.2916C68.4252 94.2752 68.393 94.2514 68.3667 94.2218C68.3404 94.1923 68.3206 94.1575 68.3086 94.1199C68.2965 94.0822 68.2924 94.0425 68.2966 94.0032C68.3009 93.9639 68.3132 93.9259 68.333 93.8916L66.4903 94.3516C66.4238 94.3731 66.3633 94.4101 66.314 94.4596Z" fill="#263238"/>
<path d="M38.0562 98.3999L38.3766 98.4919C38.4991 98.5247 38.6275 98.528 38.7515 98.5016C38.8754 98.4752 38.9913 98.4198 39.0897 98.3399C40.9484 96.7679 44.1772 94.3399 47.6624 93.2399C47.6704 93.2376 47.6778 93.2335 47.684 93.228C47.6902 93.2224 47.6952 93.2156 47.6984 93.2079C47.7027 93.2006 47.7055 93.1924 47.7066 93.184C47.7077 93.1756 47.7071 93.1671 47.7049 93.1589C47.7026 93.1507 47.6988 93.143 47.6935 93.1363C47.6883 93.1296 47.6818 93.1241 47.6744 93.1199L47.2417 92.8999C42.2063 94.6359 38.0562 98.3999 38.0562 98.3999Z" fill="#263238"/>
<path d="M67.704 113.808C70.2306 113.808 72.2788 111.763 72.2788 109.24C72.2788 106.717 70.2306 104.672 67.704 104.672C65.1775 104.672 63.1293 106.717 63.1293 109.24C63.1293 111.763 65.1775 113.808 67.704 113.808Z" fill="#263238"/>
<path opacity="0.4" d="M67.7041 112.04C69.2527 112.04 70.5082 110.786 70.5082 109.24C70.5082 107.694 69.2527 106.44 67.7041 106.44C66.1554 106.44 64.8999 107.694 64.8999 109.24C64.8999 110.786 66.1554 112.04 67.7041 112.04Z" fill="white"/>
<g opacity="0.3">
<path d="M67.9277 106.944C67.9277 106.82 67.8274 106.72 67.7037 106.72C67.58 106.72 67.4797 106.82 67.4797 106.944V108.38C67.4797 108.503 67.58 108.604 67.7037 108.604C67.8274 108.604 67.9277 108.503 67.9277 108.38V106.944Z" fill="white"/>
</g>
<g opacity="0.3">
<path d="M67.9277 110.1C67.9277 109.976 67.8274 109.876 67.7037 109.876C67.58 109.876 67.4797 109.976 67.4797 110.1V111.536C67.4797 111.66 67.58 111.76 67.7037 111.76C67.8274 111.76 67.9277 111.66 67.9277 111.536V110.1Z" fill="white"/>
</g>
<g opacity="0.3">
<path d="M68.5613 109.004C68.5091 109.033 68.4475 109.041 68.3899 109.025C68.3322 109.009 68.283 108.971 68.2528 108.92C68.2239 108.868 68.2165 108.808 68.2322 108.751C68.248 108.694 68.2856 108.645 68.3369 108.616L69.5828 107.892C69.6344 107.863 69.6953 107.856 69.7523 107.871C69.8094 107.887 69.8578 107.925 69.8872 107.976C69.9023 108.001 69.9121 108.029 69.9163 108.058C69.9204 108.087 69.9186 108.116 69.9112 108.145C69.9037 108.173 69.8907 108.2 69.8728 108.223C69.8549 108.246 69.8326 108.265 69.8071 108.28L68.5613 109.004Z" fill="white"/>
</g>
<g opacity="0.3">
<path d="M65.8253 110.576C65.7731 110.605 65.7116 110.613 65.6539 110.597C65.5962 110.581 65.547 110.544 65.5169 110.492C65.4879 110.44 65.4805 110.38 65.4963 110.323C65.512 110.266 65.5497 110.217 65.601 110.188L66.8428 109.464C66.895 109.435 66.9566 109.427 67.0142 109.443C67.0719 109.459 67.1211 109.496 67.1513 109.548C67.1798 109.6 67.1873 109.661 67.1724 109.718C67.1575 109.775 67.1213 109.825 67.0712 109.856L65.8253 110.576Z" fill="white"/>
</g>
<g opacity="0.3">
<path d="M69.5828 110.58L68.337 109.86C68.2854 109.83 68.2477 109.781 68.2319 109.723C68.2162 109.665 68.2237 109.604 68.2529 109.552C68.2678 109.526 68.2876 109.504 68.3112 109.486C68.3348 109.468 68.3617 109.455 68.3904 109.448C68.4191 109.44 68.4489 109.438 68.4783 109.443C68.5076 109.447 68.5358 109.457 68.5613 109.472L69.8072 110.192C69.8581 110.223 69.895 110.272 69.9099 110.33C69.9249 110.387 69.9168 110.448 69.8873 110.5C69.8728 110.525 69.8533 110.548 69.8301 110.565C69.8068 110.583 69.7802 110.596 69.7519 110.604C69.7235 110.611 69.694 110.613 69.6649 110.609C69.6359 110.605 69.608 110.595 69.5828 110.58Z" fill="white"/>
</g>
<g opacity="0.3">
<path d="M67.1513 108.92C67.1211 108.971 67.0719 109.009 67.0142 109.025C66.9566 109.04 66.895 109.033 66.8428 109.004L65.601 108.28C65.5497 108.25 65.512 108.202 65.4963 108.145C65.4805 108.088 65.4879 108.027 65.5169 107.976C65.547 107.924 65.5962 107.887 65.6539 107.871C65.7116 107.855 65.7731 107.863 65.8253 107.892L67.0712 108.616C67.1218 108.646 67.1586 108.694 67.1736 108.751C67.1886 108.808 67.1806 108.869 67.1513 108.92Z" fill="white"/>
</g>
<path d="M67.3275 109.236C67.3286 109.137 67.3687 109.042 67.4392 108.972C67.5097 108.903 67.6049 108.864 67.7041 108.864C67.7785 108.864 67.8514 108.886 67.9133 108.927C67.9752 108.968 68.0235 109.027 68.052 109.096C68.0805 109.165 68.0879 109.24 68.0734 109.313C68.0589 109.386 68.023 109.453 67.9703 109.506C67.9177 109.558 67.8506 109.594 67.7775 109.609C67.7045 109.623 67.6288 109.616 67.56 109.587C67.4912 109.559 67.4324 109.51 67.391 109.449C67.3496 109.387 67.3275 109.314 67.3275 109.24V109.236Z" fill="#263238"/>
<path d="M34.8635 113.808C37.39 113.808 39.4382 111.763 39.4382 109.24C39.4382 106.717 37.39 104.672 34.8635 104.672C32.3369 104.672 30.2887 106.717 30.2887 109.24C30.2887 111.763 32.3369 113.808 34.8635 113.808Z" fill="#263238"/>
<path opacity="0.4" d="M34.8635 112.04C36.4122 112.04 37.6676 110.786 37.6676 109.24C37.6676 107.694 36.4122 106.44 34.8635 106.44C33.3148 106.44 32.0593 107.694 32.0593 109.24C32.0593 110.786 33.3148 112.04 34.8635 112.04Z" fill="white"/>
<g opacity="0.3">
<path d="M35.0872 106.944C35.0872 106.82 34.9869 106.72 34.8632 106.72C34.7394 106.72 34.6392 106.82 34.6392 106.944V108.38C34.6392 108.503 34.7394 108.604 34.8632 108.604C34.9869 108.604 35.0872 108.503 35.0872 108.38V106.944Z" fill="white"/>
</g>
<g opacity="0.3">
<path d="M35.0872 110.1C35.0872 109.976 34.9869 109.876 34.8632 109.876C34.7394 109.876 34.6392 109.976 34.6392 110.1V111.536C34.6392 111.66 34.7394 111.76 34.8632 111.76C34.9869 111.76 35.0872 111.66 35.0872 111.536V110.1Z" fill="white"/>
</g>
<g opacity="0.3">
<path d="M35.7207 109.004C35.6692 109.033 35.6082 109.04 35.5512 109.025C35.4942 109.009 35.4457 108.971 35.4163 108.92C35.387 108.869 35.379 108.808 35.394 108.752C35.409 108.695 35.4458 108.646 35.4964 108.616L36.7423 107.892C36.7938 107.863 36.8548 107.856 36.9118 107.871C36.9688 107.887 37.0173 107.925 37.0467 107.976C37.0757 108.027 37.0831 108.088 37.0673 108.145C37.0516 108.202 37.0139 108.251 36.9626 108.28L35.7207 109.004Z" fill="white"/>
</g>
<g opacity="0.3">
<path d="M32.6802 110.492C32.6652 110.467 32.6553 110.439 32.6512 110.41C32.6471 110.381 32.6488 110.351 32.6563 110.323C32.6638 110.295 32.6768 110.268 32.6947 110.245C32.7125 110.222 32.7349 110.202 32.7603 110.188L34.0062 109.464C34.0584 109.435 34.1199 109.427 34.1776 109.443C34.2353 109.459 34.2845 109.496 34.3146 109.548C34.3438 109.6 34.3513 109.662 34.3356 109.719C34.3198 109.777 34.2821 109.826 34.2305 109.856L32.9887 110.576C32.9365 110.605 32.8749 110.613 32.8173 110.597C32.7596 110.581 32.7104 110.544 32.6802 110.492Z" fill="white"/>
</g>
<g opacity="0.3">
<path d="M37.0507 110.5C37.0358 110.525 37.016 110.548 36.9924 110.566C36.9688 110.584 36.9419 110.597 36.9132 110.604C36.8845 110.611 36.8547 110.613 36.8253 110.609C36.796 110.605 36.7678 110.595 36.7423 110.58L35.4964 109.86C35.4463 109.828 35.41 109.779 35.3952 109.722C35.3803 109.664 35.3878 109.604 35.4163 109.552C35.4312 109.526 35.451 109.504 35.4746 109.486C35.4982 109.468 35.5252 109.455 35.5538 109.448C35.5825 109.44 35.6124 109.438 35.6417 109.443C35.6711 109.447 35.6993 109.457 35.7248 109.472L36.9666 110.192C37.0182 110.222 37.0559 110.271 37.0717 110.329C37.0874 110.386 37.0799 110.448 37.0507 110.5Z" fill="white"/>
</g>
<g opacity="0.3">
<path d="M34.3106 108.924C34.2806 108.974 34.2318 109.011 34.1748 109.026C34.1179 109.041 34.0573 109.033 34.0062 109.004L32.7603 108.28C32.7349 108.265 32.7125 108.246 32.6947 108.223C32.6768 108.199 32.6638 108.173 32.6563 108.145C32.6488 108.116 32.6471 108.087 32.6512 108.058C32.6553 108.029 32.6652 108.001 32.6802 107.976C32.7104 107.924 32.7596 107.887 32.8173 107.871C32.8749 107.855 32.9365 107.863 32.9887 107.892L34.2305 108.616C34.2819 108.645 34.3195 108.694 34.3352 108.75C34.351 108.807 34.3436 108.868 34.3146 108.92L34.3106 108.924Z" fill="white"/>
</g>
<path d="M34.8515 108.864C34.9248 108.869 34.9951 108.895 35.0538 108.939C35.1125 108.983 35.157 109.043 35.1818 109.112C35.2067 109.181 35.2108 109.256 35.1936 109.327C35.1765 109.398 35.1389 109.463 35.0854 109.513C35.0319 109.563 34.9649 109.597 34.8926 109.61C34.8202 109.622 34.7458 109.614 34.6784 109.585C34.611 109.556 34.5535 109.507 34.5131 109.446C34.4727 109.385 34.4511 109.313 34.4509 109.24C34.4508 109.189 34.4613 109.138 34.4817 109.09C34.5021 109.043 34.532 109.001 34.5696 108.965C34.6071 108.93 34.6515 108.903 34.7 108.885C34.7485 108.868 34.8001 108.861 34.8515 108.864Z" fill="#263238"/>
<path opacity="0.3" d="M74.7625 100.624C74.8355 100.6 74.8961 100.548 74.9313 100.48C74.9666 100.412 74.9736 100.333 74.9508 100.26C74.8987 99.2996 74.6944 98.4436 74.1056 97.8596C74.0872 97.7959 74.0471 97.7407 73.9922 97.7035C73.9373 97.6662 73.8712 97.6493 73.8051 97.6556L70.32 97.9836C70.259 97.9898 70.2016 98.015 70.1557 98.0556C70.1038 98.1093 70.0748 98.181 70.0748 98.2556C70.0748 98.3302 70.1038 98.4019 70.1557 98.4556L71.1532 99.5316C71.1892 99.5677 71.2331 99.5951 71.2814 99.6116L74.6183 100.62C74.6653 100.633 74.7149 100.634 74.7625 100.624Z" fill="black"/>
<path d="M40.0031 98.4957C39.9841 98.5827 40.0004 98.6737 40.0484 98.7487C40.0965 98.8237 40.1724 98.8766 40.2595 98.8957L42.5629 99.4237C42.7676 99.4723 42.9793 99.4832 43.1879 99.4557L43.8048 99.3797L44.5419 95.4277C42.9975 96.2612 41.5237 97.219 40.1353 98.2917C40.067 98.3406 40.0198 98.4135 40.0031 98.4957Z" fill="black"/>
<path d="M54.8331 93.1997L53.4711 98.2077L55.3979 97.9717L56.139 93.1997H54.8331Z" fill="black"/>
<path d="M63.5419 94.2278C63.5532 94.1033 63.5149 93.9795 63.4355 93.8829C63.356 93.7864 63.2418 93.7249 63.1173 93.7118C62.5725 93.6558 61.9957 93.6038 61.4148 93.5518L61.1985 96.8478L61.2265 96.8198L63.4098 94.5118C63.4836 94.434 63.53 94.3343 63.5419 94.2278Z" fill="black"/>
<path d="M43.7366 98.6718C43.6275 98.6723 43.5195 98.6513 43.4186 98.6099C43.3178 98.5684 43.2262 98.5075 43.149 98.4305C43.0719 98.3535 43.0109 98.262 42.9694 98.1613C42.9279 98.0606 42.9068 97.9527 42.9074 97.8438C42.9092 97.6569 42.9744 97.4761 43.0922 97.3309C43.21 97.1856 43.3736 97.0844 43.5563 97.0438L44.666 96.7998L44.9263 98.6518L43.7566 98.6798L43.7366 98.6718Z" fill="#00A8A8"/>
<path opacity="0.3" d="M44.6015 98.652L44.9255 98.644L44.6655 96.792L44.3495 96.86L44.6015 98.652Z" fill="black"/>
<path opacity="0.6" d="M53.8636 107.408C53.8505 107.405 53.839 107.397 53.8315 107.386C53.824 107.375 53.8212 107.361 53.8236 107.348C53.8236 107.292 55.0254 101.632 55.2016 100.86C55.3779 100.088 55.2016 97.6599 55.2016 97.6599C55.2016 97.6468 55.2065 97.6341 55.2154 97.6245C55.2243 97.6148 55.2366 97.6089 55.2497 97.6079C55.2777 97.6079 55.3018 97.6279 55.3018 97.6559C55.3018 97.7559 55.458 100.112 55.3018 100.888C55.1455 101.664 53.9397 107.32 53.9277 107.38C53.9224 107.392 53.9129 107.401 53.9011 107.406C53.8892 107.411 53.8759 107.412 53.8636 107.408Z" fill="black"/>
<path opacity="0.6" d="M42.9795 108.26C42.9713 108.26 42.9631 108.258 42.956 108.254C42.949 108.25 42.9432 108.243 42.9395 108.236C42.9395 108.236 41.3651 105.912 40.8283 104.944C40.2915 103.976 39.9671 98.8721 39.955 98.6561C39.9539 98.6429 39.9578 98.6298 39.966 98.6194C39.9742 98.609 39.986 98.6021 39.9991 98.6001C40.0127 98.6 40.0259 98.6047 40.0362 98.6136C40.0465 98.6224 40.0532 98.6347 40.0552 98.6481C40.0552 98.7001 40.3717 103.92 40.9165 104.896C41.4613 105.872 43.0076 108.16 43.0196 108.18C43.0289 108.19 43.0341 108.203 43.0341 108.216C43.0341 108.23 43.0289 108.242 43.0196 108.252L42.9795 108.26Z" fill="black"/>
<path opacity="0.6" d="M27.7209 101.264C27.7106 101.264 27.7006 101.261 27.692 101.255C27.6835 101.249 27.6768 101.241 27.6729 101.232C27.6696 101.226 27.6677 101.219 27.6674 101.213C27.6671 101.206 27.6683 101.199 27.6711 101.193C27.6738 101.187 27.6779 101.181 27.683 101.177C27.6882 101.173 27.6943 101.17 27.7009 101.168C29.6488 100.521 31.6357 99.9969 33.6497 99.5999C34.7834 99.4199 38.6491 98.4679 38.6891 98.4559C38.7024 98.4535 38.7161 98.4564 38.7273 98.4638C38.7385 98.4713 38.7463 98.4828 38.7492 98.4959C38.751 98.5022 38.7515 98.5088 38.7506 98.5153C38.7498 98.5218 38.7476 98.5281 38.7442 98.5337C38.7408 98.5393 38.7363 98.5442 38.731 98.548C38.7257 98.5518 38.7196 98.5545 38.7132 98.5559C38.6731 98.5559 34.8034 99.5199 33.6657 99.6999C31.6657 100.092 29.6922 100.609 27.757 101.248L27.7209 101.264Z" fill="black"/>
<path d="M65.9695 79.3281H38.8734V82.0121H65.9695V79.3281Z" fill="#263238"/>
<path opacity="0.7" d="M65.9695 79.3281H38.8734V82.0121H65.9695V79.3281Z" fill="white"/>
<path d="M65.533 121.012H41.4053V123.696H65.533V121.012Z" fill="#263238"/>
<path opacity="0.7" d="M65.533 121.012H41.4053V123.696H65.533V121.012Z" fill="white"/>
<path d="M48.664 126.572H41.4053V129.256H48.664V126.572Z" fill="#263238"/>
<path opacity="0.7" d="M48.664 126.572H41.4053V129.256H48.664V126.572Z" fill="white"/>
<path d="M73.036 137.164H31.0499V150.316H73.036V137.164Z" fill="#00A8A8"/>
<path opacity="0.3" d="M73.036 137.164H69.0741V150.316H73.036V137.164Z" fill="black"/>
<path d="M45.3965 153.821V143.966H49.4369C50.7509 143.966 51.7786 144.276 52.5201 144.895C53.2709 145.515 53.6463 146.373 53.6463 147.472C53.6463 148.194 53.4774 148.818 53.1395 149.344C52.8016 149.86 52.3183 150.259 51.6895 150.541C51.07 150.813 50.3239 150.949 49.451 150.949H46.4101L47.2267 150.118V153.821H45.3965ZM51.8443 153.821L49.3525 150.245H51.3094L53.8153 153.821H51.8443ZM47.2267 150.315L46.4101 149.442H49.3665C50.1737 149.442 50.7791 149.269 51.1826 148.922C51.5956 148.574 51.8021 148.091 51.8021 147.472C51.8021 146.843 51.5956 146.359 51.1826 146.021C50.7791 145.684 50.1737 145.515 49.3665 145.515H46.4101L47.2267 144.614V150.315ZM48.7612 170.919C47.9259 170.919 47.1938 170.755 46.565 170.427C45.9455 170.089 45.4622 169.629 45.1149 169.047C44.777 168.465 44.6081 167.803 44.6081 167.062C44.6081 166.311 44.7723 165.649 45.1008 165.077C45.4387 164.495 45.8986 164.04 46.4805 163.711C47.0718 163.383 47.7429 163.219 48.4937 163.219C49.2258 163.219 49.8781 163.378 50.4506 163.697C51.0231 164.016 51.4736 164.467 51.8021 165.049C52.1306 165.631 52.2948 166.316 52.2948 167.104C52.2948 167.179 52.2901 167.264 52.2808 167.358C52.2808 167.451 52.2761 167.541 52.2667 167.625H46.0018V166.457H51.3375L50.6477 166.823C50.6571 166.391 50.5679 166.011 50.3802 165.682C50.1925 165.354 49.9344 165.096 49.6059 164.908C49.2868 164.72 48.916 164.626 48.4937 164.626C48.062 164.626 47.6819 164.72 47.3534 164.908C47.0342 165.096 46.7808 165.358 46.5931 165.696C46.4148 166.025 46.3256 166.414 46.3256 166.865V167.146C46.3256 167.597 46.4289 167.996 46.6354 168.343C46.8418 168.69 47.1328 168.958 47.5082 169.145C47.8836 169.333 48.3154 169.427 48.8034 169.427C49.2258 169.427 49.6059 169.361 49.9438 169.23C50.2816 169.099 50.582 168.892 50.8448 168.611L51.788 169.695C51.4501 170.089 51.0231 170.394 50.5069 170.61C50.0001 170.816 49.4182 170.919 48.7612 170.919ZM45.2275 187.821V180.303H46.9029V182.33L46.6072 181.711C46.87 181.232 47.2501 180.866 47.7475 180.613C48.2544 180.35 48.8363 180.219 49.4933 180.219C50.0939 180.219 50.6289 180.336 51.0982 180.57C51.5768 180.805 51.9523 181.166 52.2244 181.655C52.4966 182.133 52.6327 182.753 52.6327 183.513V187.821H50.8729V183.738C50.8729 183.072 50.7134 182.574 50.3943 182.246C50.0845 181.917 49.6481 181.753 49.085 181.753C48.672 181.753 48.306 181.838 47.9869 182.006C47.6678 182.175 47.4191 182.429 47.2407 182.767C47.0718 183.095 46.9873 183.513 46.9873 184.02V187.821H45.2275ZM48.0573 204.919C47.2313 204.919 46.5931 204.708 46.1426 204.286C45.6921 203.854 45.4669 203.221 45.4669 202.385V195.642H47.2267V202.343C47.2267 202.7 47.3158 202.977 47.4941 203.174C47.6819 203.371 47.94 203.469 48.2684 203.469C48.6626 203.469 48.9911 203.366 49.2539 203.16L49.7467 204.413C49.5402 204.581 49.2868 204.708 48.9864 204.793C48.6861 204.877 48.3764 204.919 48.0573 204.919ZM44.228 198.711V197.303H49.2398V198.711H44.228Z" fill="white"/>
<path d="M32.6042 120.508C33.2169 119.942 34.0252 119.635 34.8597 119.651C35.6942 119.667 36.49 120.005 37.0802 120.595C37.6704 121.184 38.0091 121.979 38.0253 122.812C38.0415 123.645 37.7339 124.452 37.167 125.064L35.3443 126.884C35.2226 127.005 35.0576 127.074 34.8856 127.074C34.7136 127.074 34.5486 127.005 34.4269 126.884L32.6042 125.064C31.9998 124.46 31.6603 123.64 31.6603 122.786C31.6603 121.932 31.9998 121.113 32.6042 120.508ZM34.8876 124.284C35.1845 124.284 35.4746 124.196 35.7212 124.031C35.9679 123.866 36.1599 123.632 36.2729 123.358C36.3859 123.084 36.4149 122.782 36.3561 122.492C36.2973 122.201 36.1534 121.935 35.9427 121.726C35.732 121.517 35.4639 121.376 35.1725 121.319C34.8811 121.263 34.5795 121.294 34.3059 121.409C34.0324 121.524 33.7992 121.718 33.636 121.966C33.4729 122.213 33.387 122.504 33.3894 122.8C33.3894 122.996 33.4282 123.191 33.5035 123.372C33.5789 123.553 33.6893 123.718 33.8285 123.856C33.9676 123.995 34.1328 124.105 34.3146 124.18C34.4963 124.254 34.6911 124.293 34.8876 124.292V124.284Z" fill="#263238"/>
<path opacity="0.7" d="M32.6042 120.508C33.2169 119.942 34.0252 119.635 34.8597 119.651C35.6942 119.667 36.49 120.005 37.0802 120.595C37.6704 121.184 38.0091 121.979 38.0253 122.812C38.0415 123.645 37.7339 124.452 37.167 125.064L35.3443 126.884C35.2226 127.005 35.0576 127.074 34.8856 127.074C34.7136 127.074 34.5486 127.005 34.4269 126.884L32.6042 125.064C31.9998 124.46 31.6603 123.64 31.6603 122.786C31.6603 121.932 31.9998 121.113 32.6042 120.508ZM34.8876 124.284C35.1845 124.284 35.4746 124.196 35.7212 124.031C35.9679 123.866 36.1599 123.632 36.2729 123.358C36.3859 123.084 36.4149 122.782 36.3561 122.492C36.2973 122.201 36.1534 121.935 35.9427 121.726C35.732 121.517 35.4639 121.376 35.1725 121.319C34.8811 121.263 34.5795 121.294 34.3059 121.409C34.0324 121.524 33.7992 121.718 33.636 121.966C33.4729 122.213 33.387 122.504 33.3894 122.8C33.3894 122.996 33.4282 123.191 33.5035 123.372C33.5789 123.553 33.6893 123.718 33.8285 123.856C33.9676 123.995 34.1328 124.105 34.3146 124.18C34.4963 124.254 34.6911 124.293 34.8876 124.292V124.284Z" fill="white"/>
<path d="M29.724 101.432L27.721 101.212L26.5673 101.684C26.4481 101.733 26.342 101.81 26.2572 101.907C26.1725 102.004 26.1113 102.119 26.0786 102.244C26.042 102.39 26.0635 102.545 26.1387 102.676V102.712C26.2018 102.82 26.2956 102.907 26.4083 102.962C26.521 103.017 26.6474 103.037 26.7716 103.02L27.9293 102.86C28.0412 102.844 28.1473 102.8 28.2378 102.732L29.5717 101.724L29.724 101.432Z" fill="white"/>
<path d="M157.136 78.4307C157.548 73.7632 154.092 69.6452 149.418 69.233C144.744 68.8208 140.621 72.2703 140.209 76.9379C139.798 81.6054 143.253 85.7233 147.927 86.1356C152.602 86.5478 156.725 83.0982 157.136 78.4307Z" fill="#00A8A8"/>
<path d="M152.017 83.4438L151.428 85.5478L153.864 86.8438L154.16 84.1478L152.017 83.4438Z" fill="#00A8A8"/>
<path d="M159.035 77.3839C159.009 77.3809 158.985 77.3681 158.968 77.348C158.951 77.328 158.942 77.3022 158.943 77.2759C159.002 75.9112 158.723 74.5531 158.132 73.3212C157.541 72.0894 156.656 71.0216 155.554 70.2119C155.543 70.2043 155.534 70.1947 155.527 70.1835C155.52 70.1724 155.515 70.1599 155.513 70.1469C155.511 70.1339 155.511 70.1206 155.514 70.1077C155.517 70.0948 155.522 70.0827 155.53 70.0719C155.538 70.0611 155.547 70.0519 155.559 70.0448C155.57 70.0378 155.582 70.033 155.595 70.0307C155.608 70.0285 155.622 70.0289 155.634 70.0318C155.647 70.0348 155.66 70.0402 155.67 70.0479C156.799 70.8778 157.707 71.9722 158.312 73.2348C158.918 74.4973 159.203 75.8893 159.143 77.2879C159.143 77.3014 159.14 77.3147 159.134 77.3269C159.128 77.3391 159.12 77.35 159.11 77.359C159.1 77.368 159.088 77.3748 159.075 77.3791C159.062 77.3834 159.049 77.385 159.035 77.3839Z" fill="#00A8A8"/>
<path d="M158.667 79.8759H158.631C158.618 79.8711 158.607 79.8638 158.597 79.8545C158.588 79.8452 158.58 79.8341 158.575 79.8218C158.57 79.8095 158.567 79.7962 158.567 79.7829C158.567 79.7695 158.57 79.7563 158.575 79.7439C158.732 79.3639 158.808 78.9552 158.799 78.5439C158.799 78.5174 158.809 78.492 158.828 78.4732C158.847 78.4545 158.872 78.4439 158.899 78.4439C158.912 78.4434 158.925 78.4455 158.937 78.4501C158.949 78.4546 158.96 78.4616 158.969 78.4706C158.979 78.4796 158.986 78.4903 158.991 78.5022C158.996 78.5142 158.999 78.527 158.999 78.5399C159.008 78.976 158.926 79.4093 158.759 79.8119C158.752 79.8306 158.739 79.8466 158.723 79.858C158.706 79.8694 158.687 79.8757 158.667 79.8759Z" fill="#00A8A8"/>
<path d="M148.524 81.2642L144.245 78.4082L145.243 76.9162L148.111 78.8322L151.68 74.1162L153.114 75.1962L148.524 81.2642Z" fill="white"/>
<path d="M278.468 160.876L80.3308 165.516V131.676H280.375L278.468 160.876Z" fill="#263238"/>
<path opacity="0.5" d="M278.468 160.876L80.3308 165.516V131.676H280.375L278.468 160.876Z" fill="black"/>
<path d="M72.7115 140.36V157.52C72.7124 159.31 73.2874 161.052 74.3522 162.492C75.4169 163.932 76.9155 164.993 78.6283 165.52L80.0264 165.944C80.8897 166.211 81.7907 166.337 82.6943 166.316L91.948 166.1C90.9629 162.662 90.7801 159.043 91.4135 155.523C92.047 152.003 93.4799 148.674 95.6022 145.793C97.7245 142.912 100.48 140.555 103.657 138.902C106.833 137.25 110.347 136.347 113.928 136.261C117.509 136.176 121.062 136.911 124.314 138.41C127.566 139.91 130.43 142.133 132.688 144.91C134.945 147.687 136.535 150.943 137.336 154.43C138.137 157.916 138.127 161.539 137.307 165.02L231.446 162.784C231.293 161.687 231.219 160.58 231.226 159.472C231.159 156.348 231.719 153.242 232.873 150.338C234.027 147.433 235.752 144.789 237.946 142.561C240.14 140.332 242.758 138.565 245.647 137.363C248.536 136.162 251.636 135.549 254.766 135.563C257.895 135.577 260.99 136.216 263.868 137.443C266.746 138.67 269.349 140.459 271.523 142.707C273.698 144.954 275.399 147.613 276.528 150.528C277.657 153.442 278.19 156.553 278.095 159.676C278.095 160.132 278.055 160.58 278.055 161.032C278.18 160.98 278.308 160.932 278.432 160.872L281.637 159.436C283.19 158.733 284.507 157.597 285.431 156.166C286.354 154.734 286.845 153.067 286.844 151.364V116.42C286.845 114.807 286.404 113.225 285.569 111.844C284.733 110.464 283.536 109.338 282.105 108.588L257.982 95.8802C257.764 95.7644 257.584 95.5882 257.465 95.3728C257.345 95.1574 257.291 94.9121 257.308 94.6663C257.324 94.4206 257.412 94.1851 257.56 93.9881C257.708 93.7911 257.91 93.6411 258.142 93.5562L261.102 92.4962C261.251 92.4468 261.378 92.3483 261.463 92.217C261.548 92.0857 261.586 91.9293 261.57 91.7737C261.554 91.6181 261.486 91.4725 261.376 91.361C261.266 91.2495 261.122 91.1787 260.966 91.1602C249.469 89.5602 204.743 83.7202 181.248 86.5882C154.128 89.9042 128.138 113.388 128.138 113.388C108.16 112.656 89.5204 119.6 81.5006 123.076C80.2201 123.634 79.0708 124.453 78.1263 125.481C77.1818 126.509 76.4631 127.723 76.0164 129.044L73.2724 137.164C72.9124 138.192 72.723 139.271 72.7115 140.36Z" fill="#00A8A8"/>
<path d="M231.49 162.8C231.354 161.77 231.286 160.731 231.286 159.692C231.286 159.16 231.286 158.636 231.338 158.116L214.317 151.152C213.321 150.748 212.246 150.573 211.172 150.64L151.949 154.52C150.981 154.582 150.036 154.842 149.173 155.284L137.92 161.064C137.84 162.399 137.648 163.725 137.347 165.028L231.49 162.8Z" fill="#263238"/>
<path d="M286.912 151.372V150.48L277.298 153.424C277.859 155.463 278.143 157.569 278.143 159.684C278.143 160.14 278.103 160.588 278.103 161.04C278.227 160.988 278.356 160.94 278.48 160.88L281.709 159.444C283.261 158.74 284.577 157.604 285.5 156.173C286.423 154.741 286.913 153.074 286.912 151.372Z" fill="#263238"/>
<path d="M75.4436 163.68C76.3612 164.526 77.456 165.157 78.6483 165.528L80.0504 165.952C80.9124 166.219 81.8121 166.345 82.7144 166.324L91.968 166.108C91.6337 164.94 91.3926 163.747 91.247 162.54L75.4436 163.68Z" fill="#263238"/>
<path d="M254.749 134.076C251.113 134.075 247.518 134.846 244.204 136.338C240.889 137.829 237.93 140.008 235.523 142.729C233.117 145.45 231.317 148.651 230.244 152.12C229.171 155.589 228.849 159.246 229.299 162.848L231.542 162.8C231.389 161.703 231.315 160.596 231.322 159.488C231.255 156.364 231.815 153.258 232.969 150.354C234.123 147.449 235.848 144.805 238.042 142.577C240.236 140.348 242.854 138.581 245.743 137.379C248.632 136.178 251.732 135.565 254.862 135.579C257.991 135.593 261.086 136.232 263.964 137.459C266.842 138.686 269.445 140.475 271.619 142.723C273.794 144.97 275.495 147.629 276.624 150.544C277.753 153.458 278.286 156.569 278.191 159.692C278.191 160.148 278.155 160.596 278.155 161.048C278.28 160.996 278.408 160.948 278.532 160.888L280.383 160.048V159.692C280.373 152.906 277.669 146.4 272.863 141.601C268.057 136.802 261.541 134.102 254.745 134.092L254.749 134.076Z" fill="#263238"/>
<path d="M114.517 134.076C110.595 134.071 106.723 134.965 103.201 136.688C99.6785 138.412 96.5992 140.92 94.2001 144.019C91.8009 147.118 90.1459 150.725 89.3624 154.563C88.5788 158.401 88.6877 162.367 89.6806 166.156L91.956 166.108C90.9723 162.67 90.7906 159.052 91.4248 155.533C92.059 152.013 93.4924 148.686 95.6148 145.806C97.7372 142.925 100.492 140.569 103.669 138.917C106.845 137.265 110.358 136.362 113.938 136.277C117.518 136.192 121.071 136.927 124.322 138.425C127.574 139.924 130.438 142.147 132.695 144.923C134.953 147.699 136.543 150.954 137.345 154.439C138.146 157.925 138.138 161.547 137.319 165.028L139.59 164.976C140.381 161.246 140.327 157.387 139.433 153.681C138.539 149.974 136.827 146.514 134.422 143.553C132.017 140.591 128.98 138.204 125.533 136.564C122.086 134.925 118.316 134.075 114.497 134.076H114.517Z" fill="#263238"/>
<path d="M136.834 114.4C136.553 114.645 136.36 114.975 136.286 115.34C136.181 115.746 136.233 116.176 136.43 116.546C136.627 116.916 136.956 117.199 137.351 117.34L147.138 120.08C148.001 120.324 148.904 120.392 149.794 120.28L222.369 111.3C224.189 111.047 225.849 110.127 227.028 108.72L236.546 97.644C236.874 97.2642 237.074 96.7914 237.119 96.292C237.247 95.032 236.458 93.892 235.348 93.752C217.97 91.452 195.998 89.352 182.125 91.052C163.943 93.268 145.631 106.916 136.834 114.4Z" fill="#00A8A8"/>
<path opacity="0.8" d="M137.163 114.4C136.88 114.644 136.686 114.975 136.61 115.34C136.507 115.747 136.559 116.177 136.757 116.547C136.955 116.917 137.284 117.199 137.68 117.34L147.466 120.08C148.329 120.324 149.232 120.392 150.122 120.28L221.071 115.424C222.838 115.2 225.566 111.956 227.48 109.328L236.858 97.644C237.182 97.2617 237.382 96.7902 237.431 96.292C237.559 95.032 236.766 93.892 235.661 93.752C218.283 91.452 196.31 89.352 182.434 91.052C164.267 93.268 145.96 106.916 137.163 114.4Z" fill="white"/>
<g opacity="0.3">
<path d="M184.569 121.292C184.458 121.253 184.357 121.191 184.27 121.112C184.183 121.033 184.113 120.938 184.063 120.832C184.013 120.725 183.985 120.61 183.979 120.493C183.974 120.376 183.992 120.259 184.032 120.148C184.132 119.867 184.314 119.622 184.555 119.445C184.796 119.269 185.084 119.168 185.382 119.156L194.019 118.792C194.136 118.787 194.253 118.805 194.364 118.844C194.475 118.884 194.578 118.946 194.666 119.025C194.753 119.104 194.825 119.2 194.875 119.307C194.926 119.414 194.955 119.53 194.96 119.649C194.966 119.767 194.948 119.885 194.908 119.996C194.805 120.277 194.621 120.521 194.38 120.697C194.138 120.874 193.849 120.975 193.55 120.988L184.914 121.344C184.796 121.349 184.68 121.331 184.569 121.292Z" fill="black"/>
</g>
<path d="M248.8 96.5843C248.618 96.7453 248.47 96.9406 248.364 97.159C248.258 97.3773 248.196 97.6145 248.182 97.8568C248.167 98.099 248.201 98.3417 248.281 98.5709C248.361 98.8001 248.486 99.0113 248.648 99.1923L250.695 101.416C250.93 101.666 251.229 101.847 251.56 101.94L276.649 108.888C277.086 109.004 277.535 109.065 277.987 109.068H282.971C282.713 108.893 282.446 108.733 282.169 108.588L257.982 95.8643C257.836 95.7928 257.707 95.6934 257.6 95.5718C257.494 95.4502 257.412 95.3088 257.361 95.1557C257.309 95.0026 257.288 94.8408 257.299 94.6796C257.31 94.5184 257.353 94.361 257.425 94.2163L249.569 96.1803C249.285 96.2528 249.021 96.3912 248.8 96.5843Z" fill="#00A8A8"/>
<path d="M92.5649 126.344L84.0043 125.412L79.089 127.412C78.5777 127.621 78.1228 127.947 77.761 128.364C77.3991 128.781 77.1405 129.277 77.0059 129.812C76.8447 130.437 76.9353 131.101 77.2583 131.66L77.3464 131.808C77.6143 132.271 78.0142 132.644 78.495 132.879C78.9759 133.114 79.516 133.201 80.0464 133.128L84.9817 132.448C85.463 132.38 85.9191 132.192 86.3077 131.9L92.0041 127.6L92.5649 126.344Z" fill="white"/>
<path d="M128.13 113.392L129.492 113.792C130.013 113.94 130.563 113.958 131.093 113.844C131.623 113.73 132.117 113.489 132.532 113.14C140.468 106.436 154.26 96.1562 169.146 91.3642C169.212 91.3414 169.267 91.296 169.303 91.2362C169.321 91.2043 169.333 91.169 169.337 91.1325C169.342 91.0959 169.339 91.0589 169.329 91.0234C169.319 90.988 169.301 90.955 169.278 90.9263C169.255 90.8976 169.227 90.8737 169.194 90.8562L167.344 89.9082C145.872 97.3322 128.13 113.392 128.13 113.392Z" fill="#00A8A8"/>
<path opacity="0.8" d="M128.13 113.392L129.492 113.792C130.013 113.94 130.563 113.958 131.093 113.844C131.623 113.73 132.117 113.489 132.532 113.14C140.468 106.436 154.26 96.1562 169.146 91.3642C169.212 91.3414 169.267 91.296 169.303 91.2362C169.321 91.2043 169.333 91.169 169.337 91.1325C169.342 91.0959 169.339 91.0589 169.329 91.0234C169.319 90.988 169.301 90.955 169.278 90.9263C169.255 90.8976 169.227 90.8737 169.194 90.8562L167.344 89.9082C145.872 97.3322 128.13 113.392 128.13 113.392Z" fill="white"/>
<path opacity="0.2" d="M209.486 122.44L137.339 127.6L138.697 136.484C139.114 139.204 140.125 141.798 141.657 144.084L147.686 153.084L209.266 144.768L238.377 122.44H209.486Z" fill="white"/>
<path d="M254.725 179.184C265.513 179.184 274.258 170.452 274.258 159.68C274.258 148.909 265.513 140.176 254.725 140.176C243.937 140.176 235.192 148.909 235.192 159.68C235.192 170.452 243.937 179.184 254.725 179.184Z" fill="#263238"/>
<path opacity="0.4" d="M254.725 171.636C261.338 171.636 266.698 166.283 266.698 159.68C266.698 153.077 261.338 147.724 254.725 147.724C248.112 147.724 242.751 153.077 242.751 159.68C242.751 166.283 248.112 171.636 254.725 171.636Z" fill="white"/>
<g opacity="0.3">
<path d="M254.729 148.928H254.725C254.196 148.928 253.767 149.356 253.767 149.884V156.012C253.767 156.54 254.196 156.968 254.725 156.968H254.729C255.258 156.968 255.686 156.54 255.686 156.012V149.884C255.686 149.356 255.258 148.928 254.729 148.928Z" fill="white"/>
</g>
<g opacity="0.3">
<path d="M254.729 162.4H254.725C254.196 162.4 253.767 162.828 253.767 163.356V169.484C253.767 170.012 254.196 170.44 254.725 170.44H254.729C255.258 170.44 255.686 170.012 255.686 169.484V163.356C255.686 162.828 255.258 162.4 254.729 162.4Z" fill="white"/>
</g>
<g opacity="0.3">
<path d="M258.382 158.68C258.273 158.742 258.152 158.782 258.027 158.798C257.903 158.813 257.776 158.804 257.655 158.771C257.533 158.737 257.42 158.68 257.321 158.603C257.221 158.526 257.138 158.43 257.076 158.32C256.95 158.101 256.916 157.84 256.983 157.596C257.049 157.351 257.209 157.143 257.429 157.016L262.741 153.936C262.85 153.873 262.971 153.832 263.096 153.816C263.221 153.799 263.349 153.808 263.471 153.84C263.593 153.873 263.707 153.929 263.807 154.006C263.908 154.083 263.992 154.179 264.055 154.288C264.18 154.508 264.213 154.769 264.147 155.013C264.081 155.257 263.921 155.465 263.702 155.592L258.382 158.672V158.68Z" fill="white"/>
</g>
<g opacity="0.3">
<path d="M246.701 165.388C246.481 165.514 246.22 165.548 245.975 165.482C245.73 165.416 245.522 165.256 245.395 165.036C245.333 164.928 245.292 164.808 245.276 164.684C245.26 164.56 245.269 164.434 245.301 164.313C245.334 164.193 245.39 164.08 245.467 163.981C245.543 163.882 245.639 163.799 245.747 163.736L251.059 160.656C251.279 160.53 251.541 160.495 251.786 160.561C252.032 160.626 252.241 160.785 252.369 161.004C252.496 161.225 252.531 161.486 252.465 161.732C252.4 161.978 252.24 162.188 252.021 162.316L246.705 165.396L246.701 165.388Z" fill="white"/>
</g>
<g opacity="0.3">
<path d="M262.745 165.412L257.433 162.332C257.323 162.269 257.227 162.185 257.15 162.085C257.073 161.985 257.017 161.871 256.984 161.749C256.952 161.627 256.943 161.5 256.96 161.375C256.976 161.25 257.017 161.129 257.08 161.02C257.209 160.801 257.42 160.641 257.666 160.577C257.912 160.512 258.174 160.548 258.394 160.676L263.706 163.756C263.925 163.883 264.085 164.092 264.151 164.336C264.217 164.58 264.184 164.84 264.059 165.06C263.996 165.169 263.912 165.265 263.811 165.342C263.711 165.419 263.597 165.475 263.475 165.508C263.353 165.541 263.225 165.549 263.1 165.533C262.975 165.516 262.854 165.475 262.745 165.412Z" fill="white"/>
</g>
<g opacity="0.3">
<path d="M252.373 158.324C252.246 158.543 252.037 158.702 251.792 158.767C251.547 158.833 251.287 158.798 251.067 158.672L245.747 155.6C245.528 155.473 245.369 155.264 245.303 155.02C245.238 154.776 245.272 154.515 245.399 154.296C245.526 154.077 245.735 153.918 245.98 153.853C246.225 153.787 246.485 153.822 246.705 153.948L252.021 157.028C252.24 157.155 252.399 157.364 252.465 157.608C252.53 157.853 252.496 158.113 252.369 158.332L252.373 158.324Z" fill="white"/>
</g>
<path d="M253.118 159.676C253.118 159.252 253.287 158.845 253.588 158.545C253.888 158.245 254.296 158.076 254.721 158.076C255.038 158.076 255.348 158.17 255.611 158.346C255.875 158.522 256.08 158.772 256.201 159.064C256.322 159.356 256.354 159.678 256.292 159.988C256.231 160.299 256.078 160.584 255.854 160.808C255.63 161.031 255.344 161.184 255.033 161.245C254.723 161.307 254.4 161.275 254.108 161.154C253.815 161.033 253.565 160.828 253.388 160.565C253.212 160.302 253.118 159.993 253.118 159.676Z" fill="#263238"/>
<path d="M114.517 179.188C125.305 179.188 134.05 170.456 134.05 159.684C134.05 148.912 125.305 140.18 114.517 140.18C103.73 140.18 94.9844 148.912 94.9844 159.684C94.9844 170.456 103.73 179.188 114.517 179.188Z" fill="#263238"/>
<path opacity="0.4" d="M114.517 171.64C121.13 171.64 126.491 166.287 126.491 159.684C126.491 153.081 121.13 147.728 114.517 147.728C107.905 147.728 102.544 153.081 102.544 159.684C102.544 166.287 107.905 171.64 114.517 171.64Z" fill="white"/>
<g opacity="0.3">
<path d="M114.517 148.928H114.513C113.985 148.928 113.556 149.356 113.556 149.884V156.012C113.556 156.54 113.985 156.968 114.513 156.968H114.517C115.046 156.968 115.475 156.54 115.475 156.012V149.884C115.475 149.356 115.046 148.928 114.517 148.928Z" fill="white"/>
</g>
<g opacity="0.3">
<path d="M114.517 162.4H114.513C113.985 162.4 113.556 162.828 113.556 163.356V169.484C113.556 170.012 113.985 170.44 114.513 170.44H114.517C115.046 170.44 115.475 170.012 115.475 169.484V163.356C115.475 162.828 115.046 162.4 114.517 162.4Z" fill="white"/>
</g>
<g opacity="0.3">
<path d="M118.175 158.68C118.066 158.742 117.947 158.782 117.823 158.797C117.699 158.812 117.573 158.803 117.453 158.77C117.332 158.736 117.22 158.679 117.122 158.602C117.024 158.525 116.942 158.429 116.881 158.32C116.817 158.212 116.775 158.093 116.758 157.968C116.741 157.844 116.748 157.718 116.78 157.596C116.812 157.475 116.868 157.361 116.945 157.262C117.021 157.162 117.117 157.079 117.225 157.016L122.541 153.936C122.65 153.873 122.77 153.833 122.895 153.816C123.02 153.8 123.146 153.808 123.268 153.841C123.389 153.874 123.503 153.93 123.602 154.007C123.702 154.084 123.785 154.179 123.847 154.288C123.91 154.397 123.951 154.517 123.967 154.641C123.984 154.766 123.975 154.892 123.943 155.014C123.91 155.135 123.853 155.248 123.777 155.348C123.7 155.447 123.604 155.53 123.495 155.592L118.175 158.672V158.68Z" fill="white"/>
</g>
<g opacity="0.3">
<path d="M105.184 165.036C105.121 164.928 105.081 164.808 105.065 164.684C105.049 164.56 105.057 164.434 105.09 164.313C105.123 164.192 105.179 164.079 105.256 163.98C105.332 163.881 105.427 163.798 105.536 163.736L110.848 160.656C111.068 160.528 111.33 160.492 111.576 160.557C111.822 160.621 112.033 160.781 112.162 161C112.225 161.109 112.266 161.23 112.283 161.355C112.299 161.48 112.291 161.607 112.258 161.729C112.225 161.851 112.169 161.965 112.092 162.065C112.015 162.165 111.919 162.249 111.809 162.312L106.497 165.392C106.276 165.518 106.013 165.551 105.767 165.485C105.521 165.418 105.311 165.257 105.184 165.036Z" fill="white"/>
</g>
<g opacity="0.3">
<path d="M123.843 165.064C123.716 165.283 123.507 165.442 123.262 165.508C123.017 165.573 122.757 165.538 122.537 165.412L117.221 162.332C117.002 162.204 116.842 161.993 116.777 161.747C116.713 161.501 116.748 161.24 116.877 161.02C116.939 160.911 117.023 160.816 117.123 160.74C117.222 160.664 117.336 160.608 117.458 160.576C117.579 160.544 117.706 160.536 117.83 160.553C117.955 160.571 118.075 160.612 118.183 160.676L123.495 163.756C123.714 163.883 123.873 164.092 123.939 164.336C124.004 164.581 123.97 164.841 123.843 165.06V165.064Z" fill="white"/>
</g>
<g opacity="0.3">
<path d="M112.166 158.332C112.037 158.551 111.827 158.709 111.581 158.773C111.336 158.837 111.075 158.8 110.856 158.672L105.536 155.6C105.427 155.538 105.331 155.455 105.254 155.355C105.177 155.256 105.121 155.143 105.088 155.021C105.055 154.9 105.047 154.774 105.063 154.649C105.08 154.525 105.121 154.405 105.184 154.296C105.312 154.076 105.522 153.916 105.768 153.85C106.014 153.784 106.276 153.818 106.498 153.944L111.809 157.024C112.028 157.151 112.188 157.36 112.253 157.604C112.319 157.849 112.284 158.109 112.158 158.328L112.166 158.332Z" fill="white"/>
</g>
<path d="M114.517 158.076C114.834 158.076 115.144 158.17 115.408 158.346C115.671 158.522 115.877 158.772 115.998 159.064C116.119 159.356 116.151 159.678 116.089 159.988C116.027 160.299 115.875 160.584 115.65 160.808C115.426 161.031 115.141 161.184 114.83 161.245C114.519 161.307 114.197 161.275 113.904 161.154C113.611 161.033 113.361 160.828 113.185 160.565C113.009 160.302 112.915 159.993 112.915 159.676C112.915 159.252 113.084 158.845 113.384 158.545C113.685 158.245 114.092 158.076 114.517 158.076Z" fill="#263238"/>
<path opacity="0.3" d="M284.865 122.892C285.176 122.793 285.435 122.575 285.585 122.285C285.736 121.996 285.765 121.659 285.667 121.348C285.442 117.244 284.569 113.588 282.061 111.072C281.98 110.804 281.809 110.572 281.578 110.414C281.346 110.256 281.067 110.182 280.787 110.204L265.893 111.6C265.666 111.621 265.448 111.705 265.265 111.843C265.083 111.981 264.942 112.166 264.859 112.379C264.776 112.592 264.753 112.824 264.795 113.049C264.836 113.273 264.939 113.482 265.092 113.652L269.355 118.24C269.503 118.399 269.691 118.517 269.899 118.58L284.148 122.892C284.382 122.961 284.631 122.961 284.865 122.892Z" fill="black"/>
<path d="M136.286 115.32C136.181 115.726 136.233 116.156 136.43 116.526C136.627 116.896 136.956 117.18 137.351 117.32L147.142 120.06C148.025 120.33 148.939 120.486 149.862 120.524L152.942 120.32L150.034 104.64C143.324 109.04 142.863 109.244 136.834 114.368C136.551 114.616 136.358 114.951 136.286 115.32Z" fill="#263238"/>
<path d="M200.044 90.5483L193.887 117.32L201.931 116.74L205.612 90.8003C203.729 90.6883 201.873 90.6043 200.044 90.5483Z" fill="#263238"/>
<path d="M225.566 111.736L236.862 97.6441C237.195 97.2586 237.4 96.7791 237.447 96.2721C237.571 95.0121 236.778 93.8721 235.673 93.7401C233.357 93.4241 230.894 93.1241 228.43 92.8281" fill="#263238"/>
<path d="M145.187 118.044C144.722 118.05 144.26 117.964 143.828 117.791C143.396 117.619 143.002 117.363 142.67 117.038C142.337 116.713 142.072 116.326 141.889 115.899C141.707 115.472 141.61 115.013 141.605 114.548C141.596 113.742 141.863 112.957 142.361 112.323C142.859 111.689 143.559 111.243 144.346 111.06L149.064 109.956L150.266 117.852L145.283 118.04L145.187 118.044Z" fill="#00A8A8"/>
<path opacity="0.3" d="M148.88 117.904L150.262 117.852L149.065 109.956L147.715 110.276L148.88 117.904Z" fill="black"/>
<path opacity="0.6" d="M195.629 151.76H195.609C195.596 151.757 195.584 151.752 195.573 151.744C195.563 151.737 195.553 151.727 195.546 151.716C195.539 151.705 195.534 151.692 195.532 151.679C195.53 151.666 195.53 151.653 195.533 151.64C195.585 151.396 200.741 127.24 201.402 123.936C201.654 122.676 201.746 120.256 201.67 116.736C201.67 116.71 201.681 116.684 201.7 116.666C201.718 116.647 201.744 116.636 201.771 116.636C201.796 116.636 201.821 116.646 201.84 116.664C201.859 116.682 201.87 116.706 201.871 116.732C201.947 120.256 201.871 122.688 201.598 123.964C200.937 127.26 195.782 151.428 195.73 151.672C195.726 151.696 195.714 151.718 195.695 151.734C195.677 151.75 195.654 151.76 195.629 151.76Z" fill="black"/>
<path opacity="0.6" d="M149.165 155.384C149.148 155.384 149.132 155.38 149.117 155.372C149.103 155.365 149.09 155.354 149.081 155.34C149.016 155.24 142.363 145.408 140.075 141.296C137.724 137.064 136.206 116.78 136.141 115.916C136.14 115.89 136.149 115.865 136.166 115.846C136.184 115.826 136.208 115.814 136.234 115.812C136.247 115.811 136.26 115.812 136.273 115.816C136.286 115.819 136.298 115.826 136.308 115.834C136.318 115.843 136.326 115.854 136.332 115.866C136.338 115.878 136.341 115.891 136.342 115.904C136.342 116.112 137.92 137.004 140.252 141.2C142.531 145.304 149.181 155.132 149.249 155.228C149.263 155.251 149.268 155.278 149.263 155.304C149.257 155.33 149.242 155.353 149.221 155.368C149.204 155.38 149.185 155.385 149.165 155.384Z" fill="black"/>
<path opacity="0.6" d="M84.0043 125.512C83.9848 125.512 83.9656 125.507 83.9492 125.496C83.9329 125.485 83.92 125.47 83.9122 125.452C83.9028 125.427 83.9034 125.4 83.9138 125.375C83.9242 125.351 83.9437 125.331 83.9683 125.32C89.0718 123.236 105.428 119.32 109.266 118.692C114.101 117.92 130.621 113.848 130.786 113.808C130.812 113.802 130.84 113.807 130.863 113.821C130.886 113.835 130.903 113.858 130.91 113.884C130.913 113.897 130.913 113.91 130.911 113.923C130.909 113.937 130.904 113.949 130.897 113.96C130.89 113.971 130.88 113.981 130.87 113.988C130.859 113.996 130.847 114.001 130.834 114.004C130.669 114.044 114.141 118.116 109.298 118.892C105.572 119.488 89.0197 123.472 84.0604 125.508L84.0043 125.512Z" fill="black"/>
<path opacity="0.8" d="M248.8 96.5843C248.618 96.7453 248.47 96.9406 248.364 97.159C248.258 97.3773 248.196 97.6145 248.182 97.8568C248.167 98.099 248.201 98.3417 248.281 98.5709C248.361 98.8001 248.486 99.0113 248.648 99.1923L250.695 101.416C250.93 101.666 251.229 101.847 251.56 101.94L276.649 108.888C277.086 109.004 277.535 109.065 277.987 109.068H282.971C282.713 108.893 282.446 108.733 282.169 108.588L257.982 95.8643C257.836 95.7928 257.707 95.6934 257.6 95.5718C257.494 95.4502 257.412 95.3088 257.361 95.1557C257.309 95.0026 257.288 94.8408 257.299 94.6796C257.31 94.5184 257.353 94.361 257.425 94.2163L249.569 96.1803C249.285 96.2528 249.021 96.3912 248.8 96.5843Z" fill="white"/>
<path d="M165.705 107.2C165.705 107.2 168.702 117.728 170.16 118.1C172.796 118.78 181.713 117.252 181.537 116.956L180.803 113.248C180.803 113.248 171.702 112.596 171.514 112.668L168.625 106.068L165.705 107.2Z" fill="#E1715B"/>
<path d="M168.649 107.92C168.649 107.92 169.559 107.076 169.583 106.048C169.607 105.02 169.899 104.212 169.867 103.448C169.835 102.684 169.194 103.496 168.942 103.996C168.689 104.496 168.397 105.06 168.048 104.796C167.7 104.532 166.206 101.196 165.685 100.912C165.164 100.628 165.24 101.236 165.24 101.236C165.24 101.236 164.84 100.436 164.495 100.5C164.403 100.5 164.211 100.708 164.331 101.1C164.599 101.984 165.256 103.812 165.256 103.812C165.22 103.708 164.247 101.508 164.055 101.2C163.81 100.8 163.486 100.728 163.253 100.88C162.929 101.092 164.055 103.856 164.002 104.008C164.002 104.008 163.418 102.408 162.917 102.316C162.416 102.224 162.733 103.276 163.181 104.136C163.582 104.936 164.199 106.58 164.696 107.336C165.308 108.272 165.933 108.764 166.971 108.604C167.58 108.525 168.159 108.289 168.649 107.92Z" fill="#E1715B"/>
<path opacity="0.3" d="M166.102 103.38C166.091 103.381 166.081 103.378 166.072 103.372C166.064 103.366 166.057 103.358 166.054 103.348C165.821 102.672 165.553 102.008 165.252 101.348C165.247 101.336 165.246 101.322 165.251 101.309C165.255 101.296 165.264 101.286 165.277 101.28C165.289 101.275 165.302 101.275 165.315 101.28C165.327 101.284 165.338 101.293 165.345 101.304C165.633 101.952 165.901 102.624 166.146 103.304C166.15 103.316 166.149 103.33 166.144 103.341C166.139 103.353 166.13 103.363 166.118 103.368L166.102 103.38Z" fill="black"/>
<path opacity="0.3" d="M164.211 104.704C164.203 104.704 164.196 104.702 164.189 104.698C164.182 104.695 164.176 104.69 164.171 104.684C164.166 104.679 164.163 104.674 164.16 104.668C164.158 104.663 164.157 104.656 164.157 104.65C164.157 104.644 164.158 104.637 164.16 104.632C164.163 104.626 164.166 104.62 164.171 104.616C164.897 104.021 165.781 103.651 166.715 103.552C166.728 103.551 166.741 103.555 166.751 103.563C166.762 103.571 166.769 103.583 166.771 103.596C166.772 103.603 166.772 103.609 166.77 103.616C166.768 103.622 166.765 103.628 166.761 103.634C166.757 103.639 166.752 103.643 166.746 103.646C166.74 103.65 166.733 103.651 166.727 103.652C165.812 103.749 164.946 104.11 164.235 104.692C164.228 104.698 164.22 104.703 164.211 104.704Z" fill="black"/>
<path opacity="0.3" d="M167.191 107.24C167.181 107.24 167.172 107.237 167.164 107.231C167.156 107.226 167.15 107.218 167.147 107.208C166.998 106.847 166.981 106.444 167.099 106.072C167.217 105.699 167.462 105.379 167.792 105.168C167.797 105.164 167.802 105.16 167.808 105.158C167.814 105.156 167.82 105.154 167.826 105.154C167.832 105.154 167.839 105.156 167.845 105.158C167.85 105.16 167.856 105.164 167.86 105.168C167.869 105.179 167.873 105.191 167.873 105.204C167.873 105.218 167.869 105.23 167.86 105.24C167.552 105.44 167.321 105.739 167.207 106.088C167.098 106.44 167.113 106.819 167.251 107.16C167.255 107.173 167.254 107.186 167.249 107.197C167.243 107.209 167.235 107.218 167.223 107.224L167.191 107.24Z" fill="black"/>
<path d="M189.204 103.692C189.204 103.692 192.541 100.892 192.409 99.9402C192.277 98.9882 191.728 99.2882 191.728 99.2882C191.728 99.2882 192.885 97.0202 191.748 96.6282C190.61 96.2362 190.546 96.6282 190.546 96.6282C190.546 96.6282 190.999 94.7762 190.093 94.2282C189.408 93.8002 189.116 94.6522 189.116 94.6522C189.116 94.6522 187.806 92.6202 186.24 92.6522C185.466 92.7122 185.082 93.2082 185.194 93.8042C185.192 93.8309 185.192 93.8576 185.194 93.8842C185.194 93.8842 182.029 92.5042 180.559 93.3722C179.089 94.2402 181.008 95.1802 181.008 95.1802C181.008 95.1802 177.923 94.8602 177.322 96.1002C176.842 97.0842 178.212 97.7442 178.212 97.7442C177.882 97.8697 177.577 98.0525 177.31 98.2842C177.125 98.4423 176.992 98.6529 176.93 98.888C176.867 99.1232 176.878 99.3718 176.96 99.6009C177.042 99.83 177.192 100.029 177.39 100.171C177.587 100.313 177.824 100.391 178.068 100.396H178.096C178.26 100.396 178.552 100.436 178.672 100.324C178.672 100.324 178.14 101.436 179.281 101.796C180.423 102.156 180.968 100.832 180.968 100.832L189.204 103.692Z" fill="#263238"/>
<path d="M188.154 110.936C188.154 110.936 187.97 109.336 189.112 105.428L188.908 105.328C189.064 104.784 189.232 104.28 189.392 103.844C189.393 103.838 189.393 103.831 189.392 103.824L184.032 107.112C184.156 108.364 183.7 110.776 183.431 111.792L184.817 114.14L188.154 110.936Z" fill="#E1715B"/>
<path opacity="0.2" d="M183.94 108.868L187.021 108.184C186.74 109.14 185.887 110.268 183.748 110.356C183.852 109.866 183.916 109.368 183.94 108.868Z" fill="black"/>
<path d="M180.363 97.8764C179.73 99.1084 179.502 101.828 181.473 101.264C183.443 100.7 181.469 95.7524 180.363 97.8764Z" fill="#263238"/>
<path d="M189.44 101.232C189.072 104.616 188.931 106.532 187.129 108.18C184.421 110.656 180.387 108.944 179.734 105.508C179.145 102.412 179.846 97.3963 183.247 96.2363C183.999 95.978 184.805 95.9147 185.589 96.0525C186.373 96.1902 187.109 96.5244 187.728 97.0237C188.347 97.523 188.828 98.1711 189.128 98.9073C189.428 99.6434 189.535 100.443 189.44 101.232Z" fill="#E1715B"/>
<path d="M184.529 102C184.529 102.344 184.317 102.616 184.088 102.604C183.86 102.592 183.688 102.3 183.688 101.952C183.688 101.604 183.904 101.332 184.128 101.344C184.353 101.356 184.545 101.636 184.529 102Z" fill="#263238"/>
<path d="M181.112 101.888C181.112 102.236 180.9 102.508 180.671 102.496C180.443 102.484 180.271 102.188 180.291 101.844C180.311 101.5 180.503 101.224 180.731 101.236C180.96 101.248 181.128 101.54 181.112 101.888Z" fill="#263238"/>
<path d="M182.234 101.748C182.234 101.748 181.032 103.424 180.663 104.108C181.128 104.568 181.969 104.408 181.969 104.408L182.234 101.748Z" fill="#DC5050"/>
<path d="M185.37 100.116C185.343 100.124 185.314 100.124 185.286 100.116C185.258 100.108 185.234 100.093 185.214 100.072C185.073 99.9243 184.899 99.8112 184.706 99.7418C184.514 99.6724 184.308 99.6486 184.104 99.6722C184.064 99.6762 184.023 99.6649 183.991 99.6407C183.958 99.6165 183.935 99.581 183.928 99.5412C183.92 99.5013 183.927 99.4599 183.947 99.425C183.968 99.3901 184.001 99.3642 184.04 99.3522C184.298 99.3198 184.56 99.3489 184.805 99.4372C185.049 99.5255 185.269 99.6705 185.446 99.8602C185.476 99.8908 185.493 99.9317 185.493 99.9742C185.493 100.017 185.476 100.058 185.446 100.088C185.425 100.106 185.398 100.115 185.37 100.116Z" fill="#263238"/>
<path d="M179.662 100.32C179.634 100.31 179.61 100.294 179.59 100.272C179.571 100.25 179.558 100.223 179.552 100.194C179.547 100.165 179.549 100.136 179.558 100.108C179.567 100.08 179.584 100.056 179.606 100.036C179.802 99.8691 180.037 99.7521 180.288 99.695C180.54 99.6379 180.802 99.6424 181.052 99.7081C181.092 99.7218 181.126 99.7509 181.145 99.789C181.165 99.8271 181.169 99.8713 181.156 99.9121C181.15 99.9325 181.139 99.9514 181.126 99.9677C181.112 99.984 181.095 99.9974 181.076 100.007C181.057 100.017 181.036 100.023 181.015 100.024C180.993 100.026 180.972 100.023 180.952 100.016C180.754 99.9666 180.547 99.9658 180.349 100.014C180.151 100.062 179.967 100.157 179.814 100.292C179.793 100.309 179.768 100.32 179.741 100.325C179.715 100.33 179.688 100.328 179.662 100.32Z" fill="#263238"/>
<path d="M182.43 105.364C182.979 105.192 183.984 104.824 184.473 104.312C184.536 104.431 184.583 104.557 184.613 104.688C184.67 104.918 184.67 105.158 184.613 105.388C184.493 105.856 184.08 106.364 182.979 106.668H182.955C182.955 106.668 182.358 106.82 182.057 105.468C182.053 105.472 182.201 105.436 182.43 105.364Z" fill="#263238"/>
<path d="M182.43 105.364L182.642 105.728C183.68 105.44 184.373 105.096 184.613 104.688C184.584 104.557 184.536 104.431 184.473 104.312C183.984 104.824 182.979 105.2 182.43 105.364Z" fill="white"/>
<path d="M182.983 106.668C184.084 106.364 184.497 105.868 184.617 105.388C184.2 105.513 183.807 105.71 183.459 105.972C183.232 106.149 183.066 106.393 182.983 106.668Z" fill="#DC5050"/>
<path d="M188.423 103.852C188.114 103.72 187.85 103.502 187.662 103.224C187.536 102.939 187.498 102.623 187.549 102.316C187.577 101.994 187.622 101.673 187.686 101.356C187.385 101.508 187.017 101.268 186.852 100.956C186.644 100.492 186.576 99.978 186.656 99.4761C186.464 99.5208 186.263 99.5136 186.074 99.4553C185.886 99.3969 185.716 99.2896 185.583 99.1441C185.457 98.9912 185.389 98.7997 185.389 98.6021C185.389 98.4046 185.457 98.2131 185.583 98.0601C184.327 98.2276 183.05 98.1488 181.825 97.8281C181.909 97.9841 181.825 98.1721 181.701 98.3121C181.257 98.8848 180.619 99.2749 179.906 99.4081C179.802 99.4281 179.674 99.4321 179.614 99.3441C179.59 99.2931 179.581 99.236 179.59 99.1801C179.625 98.8364 179.727 98.503 179.892 98.1989C180.056 97.8949 180.279 97.6262 180.547 97.4081C181.085 96.9764 181.693 96.6408 182.346 96.4161C183.407 95.9841 184.528 95.7144 185.671 95.6161C186.818 95.5216 187.971 95.7212 189.02 96.1961C189.25 96.293 189.457 96.4391 189.624 96.6241C189.767 96.8166 189.869 97.0356 189.925 97.2681C190.345 98.6521 190.506 100.102 190.398 101.544" fill="#263238"/>
<path d="M190.65 104.124C190.502 104.52 190.276 104.882 189.987 105.19C189.697 105.499 189.35 105.747 188.964 105.92C187.926 106.376 187.237 105.484 187.385 104.42C187.517 103.46 188.214 102.068 189.324 102.064C190.434 102.06 191.011 103.14 190.65 104.124Z" fill="#E1715B"/>
<path opacity="0.2" d="M188.319 104.192C188.305 104.19 188.293 104.185 188.281 104.179C188.27 104.172 188.26 104.162 188.252 104.152C188.244 104.141 188.239 104.129 188.235 104.116C188.232 104.103 188.232 104.089 188.234 104.076C188.285 103.768 188.415 103.479 188.611 103.236C188.774 103.018 189.008 102.864 189.272 102.8C189.412 102.77 189.558 102.783 189.691 102.835C189.824 102.888 189.939 102.979 190.021 103.096C190.034 103.119 190.038 103.146 190.032 103.172C190.026 103.198 190.011 103.221 189.989 103.236C189.965 103.249 189.938 103.253 189.912 103.246C189.885 103.24 189.863 103.223 189.849 103.2C189.789 103.118 189.706 103.054 189.611 103.018C189.515 102.982 189.412 102.974 189.312 102.996C189.094 103.051 188.901 103.18 188.767 103.36C188.594 103.577 188.48 103.834 188.435 104.108C188.433 104.121 188.428 104.134 188.421 104.145C188.414 104.157 188.405 104.167 188.394 104.174C188.383 104.182 188.371 104.188 188.358 104.191C188.345 104.194 188.332 104.194 188.319 104.192Z" fill="black"/>
<path d="M183.179 116.46C183.179 116.46 173.216 119.368 169.599 119.496C165.982 119.624 157.982 117.936 157.982 117.936L158.434 114.264L170.188 114.864L182.967 110.604L183.179 116.46Z" fill="#E1715B"/>
<path d="M179.618 118.704L181.577 110.62L186.552 109.752C186.772 109.72 190.81 109.388 192.024 113.816L192.292 117.332L179.618 118.704Z" fill="#263238"/>
<path d="M184.305 117.896C184.028 117.896 176.293 119.308 176.293 119.308L174.69 113.012C176.943 112.084 179.246 111.282 181.589 110.612C185.274 109.616 188.727 109.308 189.52 111.012C191.015 114.284 184.305 117.896 184.305 117.896Z" fill="#263238"/>
<path opacity="0.3" d="M168.249 114.824L170.184 114.924L175.211 113.204C175.211 113.204 176.253 112.756 175.988 112.848C175.724 112.94 173.641 112.72 173.501 112.744C173.36 112.768 168.249 114.824 168.249 114.824Z" fill="black"/>
<path d="M154.569 112.596C154.34 112.732 151.676 115.48 151.676 115.48L152.197 118.888L155.546 115.436L154.569 112.596Z" fill="#263238"/>
<path d="M158.579 119.704C158.294 119.843 157.966 119.864 157.666 119.763C157.366 119.662 157.118 119.447 156.976 119.164L151.672 108.4C151.533 108.116 151.512 107.789 151.613 107.489C151.714 107.19 151.93 106.942 152.213 106.8C152.498 106.661 152.825 106.64 153.126 106.741C153.426 106.842 153.674 107.058 153.815 107.34L159.131 118.092C159.202 118.234 159.243 118.389 159.253 118.547C159.264 118.705 159.243 118.863 159.191 119.013C159.14 119.163 159.059 119.301 158.954 119.42C158.849 119.539 158.721 119.635 158.579 119.704Z" fill="#263238"/>
<path d="M162.404 114.56L158.03 113.972L156.768 112.444C156.768 112.444 154.544 112.244 154.068 112.64C153.591 113.036 153.11 114.296 153.11 114.296C153.11 114.296 152.53 115.332 153.511 115.872C153.511 115.872 152.882 116.792 154.004 117.44C154.004 117.44 153.178 117.908 154.36 118.392C154.815 118.573 155.301 118.661 155.79 118.652C156.279 118.642 156.761 118.535 157.208 118.336C157.863 118.176 158.54 118.126 159.211 118.188L163.189 118.888L162.404 114.56Z" fill="#E1715B"/>
</g>
<defs>
<clipPath id="clip0_325_30441">
<rect width="300.444" height="200" fill="white"/>
</clipPath>
</defs>
</svg>
