<svg width="393" height="100" viewBox="0 0 393 100" fill="none" xmlns="http://www.w3.org/2000/svg">
<path d="M32.5212 79.4492C26.024 79.4492 20.3037 78.178 15.3602 75.6356C10.4873 73.0932 6.70906 69.6329 4.02542 65.2542C1.34181 60.8051 0 55.7558 0 50.1059C0 44.3856 1.3065 39.3363 3.91949 34.9576C6.60313 30.5085 10.2401 27.048 14.8305 24.5763C19.4209 22.0339 24.6116 20.7627 30.4026 20.7627C35.9816 20.7627 40.9958 21.9633 45.4449 24.3644C49.9645 26.6949 53.5313 30.0847 56.1441 34.5339C58.7569 38.9126 60.0636 44.1737 60.0636 50.3178C60.0636 50.9534 60.0281 51.6949 59.9576 52.5424C59.8872 53.3194 59.8162 54.0609 59.7458 54.7669H13.4534V45.1271H51.0593L44.7034 47.9873C44.7034 45.0212 44.1031 42.4433 42.9026 40.2542C41.702 38.0651 40.0424 36.3702 37.9237 35.1695C35.8051 33.8983 33.3333 33.2627 30.5085 33.2627C27.6836 33.2627 25.1765 33.8983 22.9873 35.1695C20.8687 36.3702 19.2091 38.1001 18.0085 40.3602C16.8079 42.5493 16.2076 45.1626 16.2076 48.1992V50.7415C16.2076 53.849 16.8786 56.6033 18.2203 59.0042C19.6328 61.3347 21.5748 63.1356 24.0466 64.4068C26.589 65.6075 29.5551 66.2076 32.9449 66.2076C35.9816 66.2076 38.6299 65.7484 40.8898 64.8305C43.2204 63.9126 45.339 62.5355 47.2458 60.6992L56.0382 70.233C53.4253 73.1992 50.1414 75.4942 46.1865 77.1186C42.2316 78.6721 37.6765 79.4492 32.5212 79.4492ZM306.086 78.6017V0H322.612V78.6017H306.086ZM343.563 100C340.597 100 337.666 99.5408 334.771 98.6229C331.875 97.705 329.51 96.4338 327.673 94.8093L333.711 83.0508C334.983 84.1806 336.43 85.0636 338.055 85.6992C339.75 86.3347 341.409 86.6525 343.033 86.6525C345.364 86.6525 347.2 86.0874 348.542 84.9576C349.955 83.8983 351.226 82.0975 352.356 79.5551L355.322 72.5636L356.593 70.7627L377.038 21.6102H392.928L367.186 82.0975C365.35 86.688 363.231 90.2897 360.83 92.9025C358.5 95.5154 355.887 97.3517 352.991 98.411C350.166 99.4703 347.023 100 343.563 100ZM353.309 80.8263L327.885 21.6102H344.94L364.644 69.2797L353.309 80.8263Z" fill="white"/>
<path d="M106.131 81.1424C100.41 81.1424 95.0783 80.2245 90.135 78.3881C85.2621 76.4814 81.0248 73.7976 77.4231 70.3373C73.8214 66.877 70.9967 62.8161 68.9485 58.1551C66.9713 53.4941 65.9824 48.3739 65.9824 42.7949C65.9824 37.2159 66.9713 32.0958 68.9485 27.4348C70.9967 22.7738 73.8214 18.713 77.4231 15.2526C81.0952 11.7922 85.368 9.14385 90.2409 7.30768C95.1138 5.4009 100.446 4.44751 106.237 4.44751C112.663 4.44751 118.454 5.57744 123.61 7.83734C128.836 10.0266 133.214 13.2752 136.745 17.5831L125.728 27.7526C123.186 24.8571 120.361 22.7032 117.254 21.2907C114.146 19.8077 110.756 19.0661 107.084 19.0661C103.624 19.0661 100.446 19.6311 97.5502 20.7611C94.6546 21.891 92.1477 23.5153 90.029 25.6339C87.9104 27.7526 86.251 30.2596 85.0502 33.1551C83.9205 36.0506 83.3553 39.2637 83.3553 42.7949C83.3553 46.3262 83.9205 49.5391 85.0502 52.4348C86.251 55.3304 87.9104 57.8373 90.029 59.9559C92.1477 62.0746 94.6546 63.6991 97.5502 64.8288C100.446 65.9586 103.624 66.5237 107.084 66.5237C110.756 66.5237 114.146 65.8177 117.254 64.4051C120.361 62.9221 123.186 60.6975 125.728 57.7314L136.745 67.9009C133.214 72.2086 128.836 75.4925 123.61 77.7525C118.454 80.0126 112.628 81.1424 106.131 81.1424ZM230.944 79.8712V5.7187H262.618C272.929 5.7187 280.944 8.11981 286.665 12.9221C292.385 17.6537 295.245 24.2215 295.245 32.6255C295.245 38.1339 293.939 42.9009 291.326 46.9263C288.713 50.8813 285.005 53.9178 280.203 56.0365C275.401 58.1551 269.68 59.2144 263.042 59.2144H240.478L248.105 51.6932V79.8712H230.944ZM278.084 79.8712L259.546 52.9644H277.872L296.622 79.8712H278.084ZM248.105 53.6L240.478 45.5492H262.088C267.385 45.5492 271.34 44.4194 273.953 42.1594C276.566 39.8288 277.872 36.6509 277.872 32.6255C277.872 28.5294 276.566 25.3515 273.953 23.0916C271.34 20.8317 267.385 19.7017 262.088 19.7017H240.478L248.105 11.545V53.6Z" fill="black"/>
<path fill-rule="evenodd" clip-rule="evenodd" d="M176.447 4.44897H178.693H179.344L181.946 6.43522V8.42143L182.596 11.0698L181.295 18.3526L179.994 32.5043H177.75L176.717 32.7298L175.729 33.0907L174.965 33.4515L174.292 33.8574L173.663 34.3085L173.169 34.7144L172.63 35.2557L172.046 35.9322L171.507 36.699L171.058 37.556L170.744 38.2777L170.474 39.0896L170.249 40.1722L170.16 41.1194V41.9311L170.249 42.9233L170.474 43.9609L170.789 44.9081L171.193 45.8103L171.462 46.2611L171.911 46.9379L172.36 47.5242L172.989 48.1555L173.528 48.6518L174.112 49.1027L174.831 49.554L175.729 50.0048L176.807 50.3657L177.795 50.5912L178.693 50.6816H179.466H180.238L180.645 59.0258L181.169 59.2967L179.994 59.6575H178.693H177.705L176.582 59.5221L175.325 59.2967L174.247 59.0258L172.899 58.5749L171.776 58.1241L170.699 57.5827L169.62 56.951L168.947 56.5001L168.138 55.9138L167.42 55.3275L167.061 55.0116L166.342 54.2899L165.938 53.839L165.623 53.4782H165.533V53.3877L164.725 52.4405L164.096 51.8992L163.422 51.4933L162.749 51.2229L161.85 51.0425H160.907L160.323 51.1325L159.739 51.3129L158.976 51.6738L157.449 52.486L156.46 53.0268L155.428 53.5681L153.901 54.3803L153.451 54.6508L153.137 55.0116L153.002 55.3725V55.7334L153.182 56.2297L153.631 57.0414L154.17 57.8981L154.619 58.5749L155.203 59.3866L155.742 60.1084L156.371 60.8751L156.91 61.5069L157.224 61.8678L157.359 61.9128V62.0027L158.617 63.2658L159.335 63.9426L159.964 64.4839L160.728 65.1152L161.491 65.7015L162.165 66.1978L163.243 66.9195L164.5 67.6863L165.309 68.1371L166.207 68.5885L167.689 69.2647L169.172 69.851L170.833 70.3923L172.181 70.7532L173.393 71.0241C174.711 71.302 175.992 71.5318 177.346 71.5318H178.043H178.693H179.576H180.435L179.344 78.6015H176.223L174.517 78.4211L172.72 78.1507L170.744 77.7443L168.722 77.2035L167.016 76.6622L165.489 76.0759L163.692 75.3087L162.075 74.4969L160.862 73.8202L160.099 73.3693L159.246 72.828L158.302 72.1967L157.404 71.5649L156.685 71.0241L156.056 70.5278L155.428 69.9865L154.933 69.5806L154.439 69.1293L154.08 68.8139L153.496 68.2276L153.137 67.9117V67.8212H153.047V67.7313H152.957L152.912 67.6408L152.463 67.19L151.745 66.4232L151.34 65.9269L151.026 65.566L150.622 65.1152L149.993 64.3034L149.409 63.5367L148.915 62.8599L148.196 61.7773L147.702 61.0106L147.118 60.0184L146.4 58.7104L145.636 57.1314L144.918 55.4625L144.289 53.794L143.705 51.9447L143.301 50.4107L142.941 48.7873L142.672 47.2538L142.447 45.5849L142.268 43.3296V42.4497L142.966 42.6929L143.95 42.8897H145.23L146.082 42.7913L146.508 42.7419L146.933 42.6929L147.488 42.5634L148.043 42.4339L148.267 42.3953L149.399 42.071L150.531 41.7467L151.353 41.5253L152.094 41.2998L153.047 40.9839L154.754 40.3527L155.922 39.8563L157.314 39.1796L158.527 38.5032L159.47 37.9168L160.144 37.4658L160.952 36.8794L161.536 36.4284L162.03 36.0224L162.569 35.5263L162.928 35.2106L163.288 34.8497L163.917 34.1731L164.231 33.8123L164.68 33.3162L165.174 32.6847L165.713 31.963L166.297 31.106L166.836 30.249L167.42 29.1665L168.138 27.6781L168.722 26.2347L169.127 25.062L169.486 23.8892L169.8 22.6714L170.204 20.7319L170.474 18.9277L170.654 17.2137L170.789 15.2291V14.0563L170.961 10.3005V5.33515L172.899 4.90002L174.382 4.6745L176.447 4.44897ZM153.137 49.8244L153.586 50.0503H154.17L154.484 49.9149L154.799 49.644L155.023 49.1931V45.4944L154.978 45.314L154.799 45.0436L154.574 44.8181L154.215 44.6377L153.721 44.5922L153.406 44.6827L153.047 44.9081L152.777 45.3589L152.688 45.9003V47.0734L152.732 49.1481L152.867 49.509L153.137 49.8244ZM159.425 46.532L159.784 46.7125H160.413L160.818 46.532L161.087 46.2161L161.266 45.7653V42.247L161.132 41.8411L160.862 41.5253L160.413 41.2998H159.829L159.425 41.4803L159.066 41.8861L158.931 42.337V45.6299L158.976 45.9457L159.201 46.3066L159.425 46.532Z" fill="black"/>
<path d="M153.137 49.8244L153.586 50.0503H154.17L154.484 49.9149L154.799 49.644L155.023 49.1931V45.4944L154.978 45.314L154.799 45.0436L154.574 44.8181L154.215 44.6377L153.721 44.5922L153.406 44.6827L153.047 44.9081L152.777 45.3589L152.688 45.9003V47.0734L152.732 49.1481L152.867 49.509L153.137 49.8244Z" fill="black"/>
<path d="M159.425 46.532L159.784 46.7125H160.413L160.818 46.532L161.087 46.2161L161.266 45.7653V42.247L161.132 41.8411L160.862 41.5253L160.413 41.2998H159.829L159.425 41.4803L159.066 41.8861L158.931 42.337V45.6299L158.976 45.9457L159.201 46.3066L159.425 46.532Z" fill="black"/>
<path fill-rule="evenodd" clip-rule="evenodd" d="M182.241 4.44897H179.995H179.344L176.742 6.43522V8.42143L176.092 11.0698L177.393 18.3526L178.694 32.5043H180.938L181.971 32.7298L182.959 33.0907L183.723 33.4515L184.396 33.8574L185.025 34.3085L185.519 34.7144L186.058 35.2557L186.642 35.9322L187.181 36.699L187.63 37.556L187.944 38.2777L188.214 39.0896L188.439 40.1722L188.528 41.1194V41.9311L188.439 42.9233L188.214 43.9609L187.899 44.9081L187.495 45.8103L187.226 46.2611L186.777 46.9379L186.328 47.5242L185.699 48.1555L185.16 48.6518L184.576 49.1027L183.857 49.554L182.959 50.0048L181.881 50.3657L180.893 50.5912L179.995 50.6816H179.222H178.45L178.043 59.0258L177.518 59.2967L178.694 59.6575H179.995H180.983L182.106 59.5221L183.363 59.2967L184.441 59.0258L185.788 58.5749L186.912 58.1241L187.989 57.5827L189.068 56.951L189.741 56.5001L190.55 55.9138L191.268 55.3275L191.627 55.0116L192.346 54.2899L192.75 53.839L193.065 53.4782H193.155V53.3877L193.963 52.4405L194.592 51.8992L195.266 51.4933L195.939 51.2229L196.838 51.0425H197.781L198.365 51.1325L198.949 51.3129L199.712 51.6738L201.239 52.486L202.228 53.0268L203.26 53.5681L204.787 54.3803L205.237 54.6508L205.551 55.0116L205.686 55.3725V55.7334L205.506 56.2297L205.057 57.0414L204.518 57.8981L204.069 58.5749L203.485 59.3866L202.946 60.1084L202.317 60.8751L201.778 61.5069L201.464 61.8678L201.329 61.9128V62.0027L200.071 63.2658L199.353 63.9426L198.724 64.4839L197.96 65.1152L197.197 65.7015L196.523 66.1978L195.445 66.9195L194.188 67.6863L193.379 68.1371L192.481 68.5885L190.999 69.2647L189.516 69.851L187.855 70.3923L186.507 70.7532L185.295 71.0241C183.977 71.302 182.696 71.5318 181.342 71.5318H180.645H179.995H179.112H178.253L179.344 78.6015H182.465L184.171 78.4211L185.968 78.1507L187.944 77.7443L189.966 77.2035L191.672 76.6622L193.199 76.0759L194.996 75.3087L196.613 74.4969L197.826 73.8202L198.589 73.3693L199.442 72.828L200.386 72.1967L201.284 71.5649L202.003 71.0241L202.632 70.5278L203.26 69.9865L203.755 69.5806L204.249 69.1293L204.608 68.8139L205.192 68.2276L205.551 67.9117V67.8212H205.641V67.7313H205.731L205.776 67.6408L206.225 67.19L206.943 66.4232L207.348 65.9269L207.662 65.566L208.066 65.1152L208.695 64.3034L209.279 63.5367L209.773 62.8599L210.492 61.7773L210.986 61.0106L211.57 60.0184L212.288 58.7104L213.052 57.1314L213.77 55.4625L214.399 53.794L214.983 51.9447L215.387 50.4107L215.747 48.7873L216.016 47.2538L216.241 45.5849L216.42 43.3296V42.4497L215.722 42.6929L214.738 42.8897H213.458L212.606 42.7913L212.18 42.7419L211.755 42.6929L211.2 42.5634L210.645 42.4339L210.421 42.3953L209.289 42.071L208.157 41.7467L207.335 41.5253L206.594 41.2998L205.641 40.9839L203.934 40.3527L202.766 39.8563L201.374 39.1796L200.161 38.5032L199.218 37.9168L198.544 37.4658L197.736 36.8794L197.152 36.4284L196.658 36.0224L196.119 35.5263L195.76 35.2106L195.4 34.8497L194.771 34.1731L194.457 33.8123L194.008 33.3162L193.514 32.6847L192.975 31.963L192.391 31.106L191.852 30.249L191.268 29.1665L190.55 27.6781L189.966 26.2347L189.561 25.062L189.202 23.8892L188.888 22.6714L188.484 20.7319L188.214 18.9277L188.034 17.2137L187.899 15.2291V14.0563L187.727 10.3005V5.33515L185.788 4.90002L184.306 4.6745L182.241 4.44897ZM205.551 49.8244L205.102 50.0503H204.518L204.204 49.9149L203.889 49.644L203.665 49.1931V45.4944L203.71 45.314L203.889 45.0436L204.114 44.8181L204.473 44.6377L204.967 44.5922L205.282 44.6827L205.641 44.9081L205.911 45.3589L206 45.9003V47.0734L205.955 49.1481L205.821 49.509L205.551 49.8244ZM199.263 46.532L198.904 46.7125H198.275L197.87 46.532L197.601 46.2161L197.422 45.7653V42.247L197.556 41.8411L197.826 41.5253L198.275 41.2998H198.859L199.263 41.4803L199.622 41.8861L199.757 42.337V45.6299L199.712 45.9457L199.487 46.3066L199.263 46.532Z" fill="black"/>
<path d="M199.263 46.532L198.904 46.7125H198.275L197.87 46.532L197.601 46.2161L197.422 45.7653V42.247L197.556 41.8411L197.826 41.5253L198.275 41.2998H198.859L199.263 41.4803L199.622 41.8861L199.757 42.337V45.6299L199.712 45.9457L199.487 46.3066L199.263 46.532Z" fill="black"/>
<path d="M205.551 49.8244L205.102 50.0503H204.518L204.204 49.9149L203.889 49.644L203.665 49.1931V45.4944L203.71 45.314L203.889 45.0436L204.114 44.8181L204.473 44.6377L204.967 44.5922L205.282 44.6827L205.641 44.9081L205.911 45.3589L206 45.9003V47.0734L205.955 49.1481L205.821 49.509L205.551 49.8244Z" fill="black"/>
</svg>
