<svg width="237" height="61" viewBox="0 0 237 61" fill="none" xmlns="http://www.w3.org/2000/svg">
<path d="M19.6156 47.9209C15.6968 47.9209 12.2465 47.1542 9.26471 45.6207C6.32556 44.0873 4.04667 42.0001 2.42799 39.3591C0.80933 36.6755 0 33.63 0 30.2221C0 26.7718 0.788034 23.7263 2.3641 21.0852C3.98277 18.4016 6.17647 16.3144 8.94524 14.8235C11.714 13.2901 14.8449 12.5233 18.3377 12.5233C21.7028 12.5233 24.7272 13.2475 27.4108 14.6958C30.1368 16.1014 32.2882 18.1461 33.8641 20.8296C35.4401 23.4707 36.2282 26.644 36.2282 30.3499C36.2282 30.7333 36.2068 31.1806 36.1643 31.6917C36.1218 32.1604 36.079 32.6076 36.0365 33.0335H8.11461V27.2191H30.7972L26.9635 28.9442C26.9635 27.1552 26.6015 25.6003 25.8773 24.2799C25.1532 22.9596 24.1522 21.9372 22.8743 21.213C21.5964 20.4463 20.1055 20.0629 18.4016 20.0629C16.6978 20.0629 15.1856 20.4463 13.8651 21.213C12.5872 21.9372 11.5862 22.9806 10.8621 24.3438C10.1379 25.6642 9.77587 27.2405 9.77587 29.072V30.6055C9.77587 32.4799 10.1805 34.1411 10.9899 35.5893C11.8418 36.995 13.0132 38.0812 14.5041 38.8479C16.0375 39.5721 17.8266 39.9341 19.8712 39.9341C21.7028 39.9341 23.3002 39.6571 24.6633 39.1035C26.069 38.5498 27.3469 37.7192 28.497 36.6116L33.8002 42.3621C32.2243 44.1512 30.2435 45.5354 27.858 46.5153C25.4726 47.4523 22.7252 47.9209 19.6156 47.9209ZM184.621 47.4098V0H194.588V47.4098H184.621ZM207.225 60.3165C205.436 60.3165 203.668 60.0395 201.922 59.4859C200.175 58.9322 198.749 58.1655 197.641 57.1856L201.283 50.0933C202.05 50.7748 202.923 51.3073 203.903 51.6907C204.925 52.0741 205.926 52.2658 206.906 52.2658C208.311 52.2658 209.419 51.9249 210.228 51.2435C211.08 50.6045 211.847 49.5183 212.528 47.9848L214.317 43.7678L215.084 42.6816L227.416 13.0345H237L221.474 49.5183C220.366 52.2872 219.088 54.4596 217.64 56.0355C216.234 57.6115 214.658 58.7191 212.912 59.3581C211.208 59.997 209.312 60.3165 207.225 60.3165ZM213.103 48.7516L197.769 13.0345H208.056L219.94 41.7871L213.103 48.7516Z" fill="#00A8A8"/>
<path d="M64.0132 48.9433C60.5629 48.9433 57.3467 48.3896 54.3651 47.282C51.4259 46.1319 48.8701 44.5131 46.6977 42.426C44.5253 40.3389 42.8216 37.8895 41.5862 35.0781C40.3936 32.2668 39.7971 29.1784 39.7971 25.8134C39.7971 22.4483 40.3936 19.3601 41.5862 16.5487C42.8216 13.7374 44.5253 11.2881 46.6977 9.20084C48.9126 7.11363 51.4898 5.51626 54.429 4.40875C57.3681 3.25865 60.5843 2.68359 64.0771 2.68359C67.9532 2.68359 71.4463 3.36513 74.5558 4.72822C77.708 6.0487 80.3488 8.00815 82.4787 10.6065L75.8337 16.7404C74.3002 14.9939 72.5964 13.6948 70.7221 12.8428C68.8477 11.9483 66.8031 11.501 64.5882 11.501C62.5011 11.501 60.5843 11.8418 58.8377 12.5234C57.0911 13.2049 55.5791 14.1846 54.3012 15.4625C53.0233 16.7404 52.0224 18.2526 51.2981 19.999C50.6167 21.7455 50.2758 23.6835 50.2758 25.8134C50.2758 27.9434 50.6167 29.8813 51.2981 31.6278C52.0224 33.3744 53.0233 34.8865 54.3012 36.1644C55.5791 37.4422 57.0911 38.4221 58.8377 39.1035C60.5843 39.7849 62.5011 40.1258 64.5882 40.1258C66.8031 40.1258 68.8477 39.7 70.7221 38.8479C72.5964 37.9534 74.3002 36.6116 75.8337 34.8226L82.4787 40.9564C80.3488 43.5547 77.708 45.5355 74.5558 46.8986C71.4463 48.2618 67.9321 48.9433 64.0132 48.9433ZM139.296 48.1765V3.45033H158.401C164.62 3.45033 169.455 4.8986 172.905 7.79516C176.355 10.6491 178.08 14.6106 178.08 19.6796C178.08 23.0021 177.292 25.8773 175.716 28.3053C174.14 30.6908 171.904 32.5224 169.007 33.8003C166.111 35.0781 162.661 35.7171 158.656 35.7171H145.047L149.647 31.1806V48.1765H139.296ZM167.729 48.1765L156.548 31.9473H167.602L178.911 48.1765H167.729ZM149.647 32.3307L145.047 27.4747H158.081C161.276 27.4747 163.662 26.7933 165.238 25.4301C166.814 24.0244 167.602 22.1075 167.602 19.6796C167.602 17.209 166.814 15.2921 165.238 13.929C163.662 12.5659 161.276 11.8844 158.081 11.8844H145.047L149.647 6.96453V32.3307Z" fill="black"/>
<path fill-rule="evenodd" clip-rule="evenodd" d="M106.427 2.68359H107.781H108.174L109.743 3.88163V5.07964L110.136 6.67702L109.351 11.0698L108.566 19.6055H107.213L106.59 19.7416L105.994 19.9592L105.533 20.1769L105.127 20.4217L104.747 20.6938L104.449 20.9386L104.124 21.2651L103.772 21.6732L103.447 22.1357L103.176 22.6526L102.987 23.0879L102.824 23.5776L102.688 24.2306L102.634 24.8019V25.2915L102.688 25.8899L102.824 26.5158L103.014 27.0871L103.257 27.6313L103.42 27.9032L103.691 28.3114L103.962 28.665L104.341 29.0458L104.666 29.3452L105.018 29.6171L105.452 29.8894L105.994 30.1613L106.644 30.379L107.24 30.5149L107.781 30.5695H108.248H108.713L108.959 35.6024L109.275 35.7658L108.566 35.9834H107.781H107.185L106.508 35.9017L105.75 35.7658L105.099 35.6024L104.287 35.3304L103.609 35.0585L102.959 34.732L102.309 34.3509L101.903 34.079L101.415 33.7254L100.982 33.3717L100.765 33.1812L100.332 32.7459L100.088 32.4739L99.8981 32.2563H99.8438V32.2017L99.3563 31.6304L98.977 31.3039L98.5706 31.0591L98.1642 30.896L97.6224 30.7872H97.0535L96.7013 30.8414L96.3492 30.9503L95.8885 31.1679L94.9674 31.6578L94.3714 31.984L93.7485 32.3105L92.8274 32.8004L92.5564 32.9635L92.3668 33.1812L92.2857 33.3989V33.6165L92.3939 33.9159L92.6649 34.4055L92.9899 34.9222L93.2607 35.3304L93.6131 35.82L93.9381 36.2554L94.3174 36.7178L94.6424 37.0989L94.8321 37.3166L94.9135 37.3437V37.398L95.672 38.1598L96.1053 38.568L96.4846 38.8945L96.9452 39.2753L97.4056 39.6289L97.812 39.9283L98.4623 40.3636L99.2209 40.8261L99.7084 41.098L100.25 41.3703L101.144 41.7782L102.038 42.1318L103.041 42.4583L103.853 42.676L104.585 42.8394C105.38 43.0069 106.152 43.1456 106.969 43.1456H107.389H107.781H108.314H108.832L108.174 47.4098H106.292L105.262 47.301L104.178 47.1379L102.987 46.8928L101.767 46.5666L100.738 46.2401L99.817 45.8864L98.7331 45.4237L97.7578 44.9341L97.0263 44.5259L96.566 44.2539L96.0513 43.9274L95.4824 43.5466L94.9403 43.1656L94.5071 42.8394L94.1278 42.54L93.7485 42.2135L93.4503 41.9687L93.1524 41.6965L92.9357 41.5062L92.5835 41.1526L92.3668 40.9621V40.9075H92.3125V40.8532H92.2585L92.2314 40.7987L91.9603 40.5267L91.5271 40.0643L91.2832 39.7649L91.0936 39.5472L90.8496 39.2753L90.4704 38.7857L90.1182 38.3232L89.8203 37.915L89.3868 37.262L89.0889 36.7995L88.7365 36.2011L88.3032 35.4121L87.8426 34.4598L87.4093 33.4531L87.03 32.4468L86.6776 31.3313L86.434 30.4061L86.2172 29.4269L86.0547 28.5019L85.919 27.4953L85.8108 26.135V25.6043L86.2318 25.751L86.8258 25.8697H87.5978L88.1115 25.8103L88.3682 25.7805L88.625 25.751L88.9595 25.6729L89.2941 25.5947L89.4291 25.5715L90.112 25.3759L90.7948 25.1803L91.2906 25.0467L91.7379 24.9107L92.3125 24.7202L93.3421 24.3394L94.0464 24.0401L94.8863 23.6319L95.6178 23.2239L96.1867 22.8702L96.5931 22.5982L97.0806 22.2445L97.4327 21.9725L97.7309 21.7276L98.0559 21.4283L98.2727 21.2379L98.4895 21.0203L98.8688 20.6122L99.0584 20.3945L99.3291 20.0953L99.6273 19.7144L99.9523 19.2791L100.304 18.7622L100.629 18.2453L100.982 17.5923L101.415 16.6946L101.767 15.8239L102.011 15.1166L102.228 14.4093L102.418 13.6747L102.661 12.5049L102.824 11.4166L102.932 10.3828L103.014 9.18577V8.47841L103.117 6.213V3.2181L104.287 2.95565L105.181 2.81962L106.427 2.68359ZM92.3668 30.0525L92.6378 30.1887H92.9899L93.1796 30.107L93.3692 29.9436L93.5046 29.6717V27.4407L93.4775 27.3319L93.3692 27.1688L93.2339 27.0328L93.0171 26.924L92.7189 26.8966L92.5293 26.9511L92.3125 27.0871L92.15 27.359L92.096 27.6855V28.3931L92.1228 29.6445L92.2043 29.8622L92.3668 30.0525ZM96.1595 28.0666L96.3763 28.1754H96.7556L96.9995 28.0666L97.162 27.8761L97.2702 27.6041V25.482L97.1891 25.2372L97.0263 25.0467L96.7556 24.9107H96.4034L96.1595 25.0196L95.9428 25.2644L95.8617 25.5363V27.5224L95.8885 27.713L96.0242 27.9306L96.1595 28.0666Z" fill="black"/>
<path d="M92.3668 30.0525L92.6378 30.1887H92.9899L93.1796 30.107L93.3692 29.9436L93.5046 29.6717V27.4407L93.4775 27.3319L93.3692 27.1688L93.2339 27.0328L93.0171 26.924L92.7189 26.8966L92.5293 26.9511L92.3125 27.0871L92.15 27.359L92.096 27.6855V28.3931L92.1228 29.6445L92.2043 29.8622L92.3668 30.0525Z" fill="black"/>
<path d="M96.1595 28.0666L96.3763 28.1754H96.7556L96.9995 28.0666L97.162 27.8761L97.2702 27.6041V25.482L97.1891 25.2372L97.0263 25.0467L96.7556 24.9107H96.4034L96.1595 25.0196L95.9428 25.2644L95.8617 25.5363V27.5224L95.8885 27.713L96.0242 27.9306L96.1595 28.0666Z" fill="black"/>
<path fill-rule="evenodd" clip-rule="evenodd" d="M109.92 2.68359H108.566H108.173L106.604 3.88163V5.07964L106.211 6.67702L106.996 11.0698L107.781 19.6055H109.134L109.757 19.7416L110.353 19.9592L110.814 20.1769L111.22 20.4217L111.6 20.6938L111.898 20.9386L112.223 21.2651L112.575 21.6732L112.9 22.1357L113.171 22.6526L113.36 23.0879L113.523 23.5776L113.659 24.2306L113.713 24.8019V25.2915L113.659 25.8899L113.523 26.5158L113.333 27.0871L113.09 27.6313L112.927 27.9032L112.656 28.3114L112.385 28.665L112.006 29.0458L111.681 29.3452L111.329 29.6171L110.895 29.8894L110.353 30.1613L109.703 30.379L109.107 30.5149L108.566 30.5695H108.099H107.634L107.388 35.6024L107.072 35.7658L107.781 35.9834H108.566H109.162L109.839 35.9017L110.597 35.7658L111.248 35.6024L112.06 35.3304L112.738 35.0585L113.388 34.732L114.038 34.3509L114.444 34.079L114.932 33.7254L115.365 33.3717L115.582 33.1812L116.015 32.7459L116.259 32.4739L116.449 32.2563H116.503V32.2017L116.991 31.6304L117.37 31.3039L117.776 31.0591L118.183 30.896L118.725 30.7872H119.294L119.646 30.8414L119.998 30.9503L120.459 31.1679L121.38 31.6578L121.976 31.984L122.599 32.3105L123.52 32.8004L123.791 32.9635L123.98 33.1812L124.061 33.3989V33.6165L123.953 33.9159L123.682 34.4055L123.357 34.9222L123.086 35.3304L122.734 35.82L122.409 36.2554L122.03 36.7178L121.705 37.0989L121.515 37.3166L121.434 37.3437V37.398L120.675 38.1598L120.242 38.568L119.862 38.8945L119.402 39.2753L118.941 39.6289L118.535 39.9283L117.885 40.3636L117.126 40.8261L116.639 41.098L116.097 41.3703L115.203 41.7782L114.309 42.1318L113.306 42.4583L112.494 42.676L111.762 42.8394C110.967 43.0069 110.195 43.1456 109.378 43.1456H108.958H108.566H108.033H107.515L108.173 47.4098H110.056L111.085 47.301L112.169 47.1379L113.36 46.8928L114.58 46.5666L115.609 46.2401L116.53 45.8864L117.614 45.4237L118.589 44.9341L119.321 44.5259L119.781 44.2539L120.296 43.9274L120.865 43.5466L121.407 43.1656L121.84 42.8394L122.219 42.54L122.599 42.2135L122.897 41.9687L123.195 41.6965L123.411 41.5062L123.763 41.1526L123.98 40.9621V40.9075H124.035V40.8532H124.088L124.116 40.7987L124.387 40.5267L124.82 40.0643L125.064 39.7649L125.253 39.5472L125.497 39.2753L125.877 38.7857L126.229 38.3232L126.527 37.915L126.96 37.262L127.258 36.7995L127.611 36.2011L128.044 35.4121L128.504 34.4598L128.938 33.4531L129.317 32.4468L129.669 31.3313L129.913 30.4061L130.13 29.4269L130.292 28.5019L130.428 27.4953L130.536 26.135V25.6043L130.115 25.751L129.521 25.8697H128.749L128.236 25.8103L127.979 25.7805L127.722 25.751L127.388 25.6729L127.053 25.5947L126.918 25.5715L126.235 25.3759L125.552 25.1803L125.056 25.0467L124.609 24.9107L124.035 24.7202L123.005 24.3394L122.301 24.0401L121.461 23.6319L120.729 23.2239L120.16 22.8702L119.754 22.5982L119.266 22.2445L118.914 21.9725L118.616 21.7276L118.291 21.4283L118.074 21.2379L117.858 21.0203L117.478 20.6122L117.289 20.3945L117.018 20.0953L116.72 19.7144L116.395 19.2791L116.043 18.7622L115.718 18.2453L115.365 17.5923L114.932 16.6946L114.58 15.824L114.336 15.1166L114.119 14.4093L113.929 13.6747L113.686 12.5049L113.523 11.4166L113.415 10.3828L113.333 9.18577V8.47841L113.23 6.213V3.2181L112.06 2.95565L111.166 2.81962L109.92 2.68359ZM123.98 30.0525L123.709 30.1887H123.357L123.167 30.107L122.978 29.9436L122.842 29.6717V27.4407L122.87 27.3319L122.978 27.1688L123.113 27.0328L123.33 26.924L123.628 26.8966L123.818 26.9511L124.035 27.0871L124.197 27.359L124.251 27.6855V28.3931L124.224 29.6445L124.143 29.8622L123.98 30.0525ZM120.187 28.0666L119.971 28.1754H119.591L119.348 28.0666L119.185 27.8761L119.077 27.6041V25.482L119.158 25.2372L119.321 25.0467L119.591 24.9107H119.944L120.187 25.0196L120.404 25.2644L120.485 25.5363V27.5224L120.459 27.713L120.323 27.9306L120.187 28.0666Z" fill="black"/>
<path d="M120.187 28.0666L119.971 28.1754H119.591L119.348 28.0666L119.185 27.8761L119.077 27.6041V25.482L119.158 25.2372L119.321 25.0467L119.591 24.9107H119.944L120.187 25.0196L120.404 25.2644L120.485 25.5363V27.5224L120.459 27.713L120.323 27.9306L120.187 28.0666Z" fill="black"/>
<path d="M123.98 30.0525L123.709 30.1887H123.357L123.167 30.107L122.978 29.9436L122.842 29.6717V27.4407L122.87 27.3319L122.978 27.1688L123.113 27.0328L123.33 26.924L123.628 26.8966L123.818 26.9511L124.035 27.0871L124.197 27.359L124.251 27.6855V28.3931L124.224 29.6445L124.143 29.8622L123.98 30.0525Z" fill="black"/>
</svg>
