<svg width="25" height="25" viewBox="0 0 25 25" fill="none" xmlns="http://www.w3.org/2000/svg">
<path d="M15.8294 18.45C14.942 19.1408 13.7762 19.56 12.4994 19.56C11.2227 19.56 10.0569 19.1408 9.16943 18.45" stroke="#00A8A8" stroke-width="2" stroke-linecap="round"/>
<path d="M1.78995 14.247C1.39809 11.697 1.20217 10.4221 1.68425 9.29186C2.16632 8.16159 3.23588 7.38827 5.37497 5.84163L6.9732 4.68605C9.6342 2.76205 10.9648 1.80005 12.4999 1.80005C14.0351 1.80005 15.3656 2.76205 18.0266 4.68605L19.6249 5.84163C21.7639 7.38827 22.8335 8.16159 23.3156 9.29186C23.7977 10.4221 23.6018 11.697 23.2098 14.247L22.8757 16.4214C22.3203 20.0361 22.0424 21.8435 20.7461 22.9218C19.4497 24 17.5545 24 13.7639 24H11.2358C7.44534 24 5.55009 24 4.25371 22.9218C2.95733 21.8435 2.67959 20.0361 2.1241 16.4214L1.78995 14.247Z" stroke="#00A8A8" stroke-width="2" stroke-linejoin="round"/>
</svg>
