<svg width="25" height="24" viewBox="0 0 25 24" fill="none" xmlns="http://www.w3.org/2000/svg">
<path d="M12.5001 0.796631C6.36883 0.796631 1.39844 5.76703 1.39844 11.8983C1.39844 18.0296 6.36883 23 12.5001 23C18.6314 23 23.6018 18.0296 23.6018 11.8983C23.6018 5.76703 18.6314 0.796631 12.5001 0.796631Z" stroke="#00A8A8" stroke-width="1.5" stroke-linecap="round" stroke-linejoin="round"/>
<path d="M4.06299 18.5594C4.06299 18.5594 6.49626 15.895 12.5002 15.895C18.5042 15.895 20.9376 18.5594 20.9376 18.5594" stroke="#00A8A8" stroke-width="1.5" stroke-linecap="round" stroke-linejoin="round"/>
<path d="M12.5006 12.3424C14.2174 12.3424 15.609 10.7519 15.609 8.78985C15.609 6.82784 14.2174 5.2373 12.5006 5.2373C10.7838 5.2373 9.39209 6.82784 9.39209 8.78985C9.39209 10.7519 10.7838 12.3424 12.5006 12.3424Z" stroke="#00A8A8" stroke-width="1.5" stroke-linecap="round" stroke-linejoin="round"/>
</svg>
