<svg width="156" height="135" viewBox="0 0 156 135" fill="none" xmlns="http://www.w3.org/2000/svg">
<mask id="mask0_845_3305" style="mask-type:alpha" maskUnits="userSpaceOnUse" x="30" y="1" width="117" height="133">
<path d="M84.5235 2.35829C87.017 0.90134 90.1021 0.901341 92.5956 2.35829L142.356 31.4338C144.811 32.8682 146.32 35.4978 146.32 38.3411V96.6589C146.32 99.5022 144.811 102.132 142.356 103.566L92.5956 132.642C90.1021 134.099 87.017 134.099 84.5235 132.642L34.7634 103.566C32.3085 102.132 30.7994 99.5022 30.7994 96.6589V38.3411C30.7994 35.4978 32.3085 32.8682 34.7634 31.4338L84.5235 2.35829Z" fill="#0CAF60"/>
</mask>
<g mask="url(#mask0_845_3305)">
<path d="M84.5235 2.35829C87.017 0.90134 90.1021 0.901341 92.5956 2.35829L142.356 31.4338C144.811 32.8682 146.32 35.4978 146.32 38.3411V96.6589C146.32 99.5022 144.811 102.132 142.356 103.566L92.5956 132.642C90.1021 134.099 87.017 134.099 84.5235 132.642L34.7634 103.566C32.3085 102.132 30.7994 99.5022 30.7994 96.6589V38.3411C30.7994 35.4978 32.3085 32.8682 34.7634 31.4338L84.5235 2.35829Z" fill="#00A8A8"/>
<path d="M185.863 28.1226H79.4506C76.7304 28.1226 74.5252 30.3543 74.5252 33.1073V106.289C74.5252 109.042 76.7304 111.274 79.4506 111.274H185.863C188.583 111.274 190.788 109.042 190.788 106.289V33.1073C190.788 30.3543 188.583 28.1226 185.863 28.1226Z" fill="white"/>
<path d="M182.304 30.9497H83.0447C80.5292 30.9497 78.49 33.0135 78.49 35.5593V102.657C78.49 105.202 80.5292 107.266 83.0447 107.266H182.304C184.82 107.266 186.859 105.202 186.859 102.657V35.5593C186.859 33.0135 184.82 30.9497 182.304 30.9497Z" fill="#00A8A8"/>
<path d="M193.097 110.491H69.6404C67.204 110.491 65.2289 112.49 65.2289 114.956V115.439C65.2289 117.905 67.204 119.904 69.6404 119.904H193.097C195.534 119.904 197.509 117.905 197.509 115.439V114.956C197.509 112.49 195.534 110.491 193.097 110.491Z" fill="white"/>
<path d="M193.097 110.491H69.6404C67.204 110.491 65.2289 112.49 65.2289 114.956V115.439C65.2289 117.905 67.204 119.904 69.6404 119.904H193.097C195.534 119.904 197.509 117.905 197.509 115.439V114.956C197.509 112.49 195.534 110.491 193.097 110.491Z" fill="#519292"/>
<path d="M145.112 110.576H118.275V113.365H145.112V110.576Z" fill="#519292"/>
</g>
<g filter="url(#filter0_d_845_3305)">
<path d="M114.125 42.5905V84.6091C114.125 86.0782 113.549 87.4873 112.525 88.5277C111.5 89.568 110.109 90.1546 108.657 90.1588H24.1425C23.4229 90.1588 22.7104 90.0152 22.0458 89.7361C21.3811 89.4571 20.7774 89.0481 20.2692 88.5326C19.7609 88.0171 19.3581 87.4052 19.0838 86.7319C18.8095 86.0587 18.6692 85.3373 18.6707 84.6091V42.5905C18.6707 41.1218 19.2472 39.7132 20.2734 38.6747C21.2995 37.6362 22.6913 37.0527 24.1425 37.0527H108.657C110.107 37.0559 111.497 37.6405 112.521 38.6785C113.546 39.7164 114.123 41.1231 114.125 42.5905Z" fill="white"/>
<path d="M90.2208 89.0708L106.895 100.125V86.6245L90.2208 89.0708Z" fill="white"/>
</g>
<path d="M66.3189 47.8276C66.0725 47.9173 65.8014 47.9068 65.5625 47.7983C65.3236 47.6897 65.1357 47.4917 65.0382 47.2457L64.0786 44.6655C63.8044 43.9608 63.267 43.3938 62.5828 43.0871C61.8986 42.7804 61.1226 42.7586 60.4226 43.0266C59.7227 43.2945 59.1552 43.8306 58.8428 44.5188C58.5305 45.207 58.4984 45.992 58.7536 46.704L60.0819 50.2554C60.1033 50.3139 60.1192 50.3744 60.1295 50.4359H58.028L56.898 47.4143C56.4703 46.2079 56.5279 44.8798 57.0585 43.716C57.589 42.5522 58.55 41.6459 59.7345 41.1923C60.9189 40.7387 62.232 40.7741 63.3909 41.2909C64.5498 41.8077 65.4617 42.7645 65.9303 43.9552L66.8938 46.5314C66.9404 46.6547 66.9624 46.7861 66.9587 46.918C66.9549 47.05 66.9255 47.1799 66.8721 47.3003C66.8187 47.4207 66.7424 47.5292 66.6474 47.6197C66.5525 47.7102 66.4408 47.7808 66.3189 47.8276Z" fill="#00A8A8"/>
<path d="M69.4145 50.4619H56.3893V62.6409H69.4145V50.4619Z" fill="#519292"/>
<path d="M69.3926 50.436H61.2246V62.615H69.3926V50.436Z" fill="#519292"/>
<path d="M62.5932 56.1441C62.5932 56.1441 61.3086 55.0606 62.4307 54.1376C63.5528 53.2147 64.8097 55.1408 63.6202 56.1441L64.4568 58.4033H61.6337L62.5932 56.1441Z" fill="white"/>
<path d="M98.1858 66.8014H33.5002C32.0884 66.8014 30.9459 67.9594 30.9459 69.3853V76.472C30.9459 77.898 32.0884 79.056 33.5002 79.056H98.1858C99.5977 79.056 100.74 77.898 100.74 76.472V69.3853C100.74 67.9594 99.5977 66.8014 98.1858 66.8014Z" fill="white" stroke="#CCCCCC" stroke-width="0.2"/>
<path d="M41.0041 75.1639C42.3771 75.1639 43.4902 74.0375 43.4902 72.6479C43.4902 71.2583 42.3771 70.1318 41.0041 70.1318C39.6311 70.1318 38.518 71.2583 38.518 72.6479C38.518 74.0375 39.6311 75.1639 41.0041 75.1639Z" fill="#00A8A8"/>
<path d="M47.7219 75.1639C49.0949 75.1639 50.208 74.0375 50.208 72.6479C50.208 71.2583 49.0949 70.1318 47.7219 70.1318C46.3489 70.1318 45.2358 71.2583 45.2358 72.6479C45.2358 74.0375 46.3489 75.1639 47.7219 75.1639Z" fill="#00A8A8"/>
<path d="M54.4184 75.1639C55.7914 75.1639 56.9045 74.0375 56.9045 72.6479C56.9045 71.2583 55.7914 70.1318 54.4184 70.1318C53.0454 70.1318 51.9323 71.2583 51.9323 72.6479C51.9323 74.0375 53.0454 75.1639 54.4184 75.1639Z" fill="#00A8A8"/>
<path d="M61.1304 75.1639C62.5034 75.1639 63.6165 74.0375 63.6165 72.6479C63.6165 71.2583 62.5034 70.1318 61.1304 70.1318C59.7574 70.1318 58.6443 71.2583 58.6443 72.6479C58.6443 74.0375 59.7574 75.1639 61.1304 75.1639Z" fill="#00A8A8"/>
<path d="M68.3601 75.1639C69.7331 75.1639 70.8461 74.0375 70.8461 72.6479C70.8461 71.2583 69.7331 70.1318 68.3601 70.1318C66.987 70.1318 65.874 71.2583 65.874 72.6479C65.874 74.0375 66.987 75.1639 68.3601 75.1639Z" fill="#00A8A8"/>
<path d="M75.0546 75.1639C76.4276 75.1639 77.5407 74.0375 77.5407 72.6479C77.5407 71.2583 76.4276 70.1318 75.0546 70.1318C73.6816 70.1318 72.5685 71.2583 72.5685 72.6479C72.5685 74.0375 73.6816 75.1639 75.0546 75.1639Z" fill="#00A8A8"/>
<path d="M81.7666 75.1639C83.1396 75.1639 84.2527 74.0375 84.2527 72.6479C84.2527 71.2583 83.1396 70.1318 81.7666 70.1318C80.3936 70.1318 79.2805 71.2583 79.2805 72.6479C79.2805 74.0375 80.3936 75.1639 81.7666 75.1639Z" fill="#00A8A8"/>
<path d="M88.4728 75.1639C89.8458 75.1639 90.9589 74.0375 90.9589 72.6479C90.9589 71.2583 89.8458 70.1318 88.4728 70.1318C87.0998 70.1318 85.9867 71.2583 85.9867 72.6479C85.9867 74.0375 87.0998 75.1639 88.4728 75.1639Z" fill="#00A8A8"/>
<path d="M22.0183 33.1241C21.6327 33.1239 21.2556 33.0099 20.933 32.7961C20.6105 32.5822 20.3565 32.2779 20.2023 31.9202L15.9201 21.9362C15.8159 21.6944 15.7599 21.4341 15.7551 21.1703C15.7504 20.9065 15.797 20.6443 15.8924 20.3988C15.9877 20.1532 16.13 19.929 16.3109 19.7391C16.4919 19.5492 16.708 19.3972 16.947 19.2918C17.186 19.1864 17.4432 19.1297 17.7038 19.1248C17.9645 19.12 18.2235 19.1672 18.4662 19.2637C18.7088 19.3603 18.9303 19.5042 19.118 19.6873C19.3056 19.8705 19.4558 20.0892 19.56 20.3311L23.8383 30.3191C23.97 30.6247 24.0245 30.9586 23.9967 31.2909C23.9689 31.6231 23.8598 31.9431 23.6791 32.2219C23.4985 32.5007 23.252 32.7295 22.9621 32.8878C22.6721 33.046 22.3477 33.1286 22.0183 33.1281V33.1241Z" fill="#00A8A8"/>
<path d="M2.79393 46.8116C2.26813 46.8291 1.75698 46.6346 1.37291 46.2707C0.988848 45.9068 0.763335 45.4035 0.745984 44.8713C0.728633 44.3392 0.920864 43.8219 1.28039 43.4332C1.63991 43.0445 2.13728 42.8163 2.66308 42.7987L13.3885 42.0724C13.9143 42.0367 14.4326 42.2139 14.8293 42.565C15.226 42.9161 15.4686 43.4122 15.5039 43.9444C15.5391 44.4765 15.364 45.001 15.0171 45.4025C14.6702 45.804 14.18 46.0496 13.6542 46.0852L2.92477 46.8075L2.79393 46.8116Z" fill="#00A8A8"/>
<path d="M14.2039 36.9371C13.812 36.9359 13.4294 36.8156 13.1056 36.592L4.19618 30.4764C3.77004 30.1737 3.47864 29.7135 3.38493 29.1952C3.29122 28.6769 3.40271 28.1421 3.69534 27.7063C3.98796 27.2705 4.43822 26.9687 4.94887 26.8661C5.45952 26.7634 5.98957 26.8682 6.42454 27.1578L15.3181 33.2733C15.6678 33.5149 15.932 33.8634 16.0718 34.2678C16.2117 34.6722 16.22 35.1113 16.0954 35.5209C15.9709 35.9304 15.7201 36.2888 15.3797 36.5437C15.0394 36.7985 14.6273 36.9364 14.2039 36.9371Z" fill="#00A8A8"/>
<defs>
<filter id="filter0_d_845_3305" x="6.67072" y="29.0527" width="127.454" height="95.0718" filterUnits="userSpaceOnUse" color-interpolation-filters="sRGB">
<feFlood flood-opacity="0" result="BackgroundImageFix"/>
<feColorMatrix in="SourceAlpha" type="matrix" values="0 0 0 0 0 0 0 0 0 0 0 0 0 0 0 0 0 0 127 0" result="hardAlpha"/>
<feOffset dx="4" dy="8"/>
<feGaussianBlur stdDeviation="8"/>
<feColorMatrix type="matrix" values="0 0 0 0 0.0666667 0 0 0 0 0.0941176 0 0 0 0 0.152941 0 0 0 0.08 0"/>
<feBlend mode="normal" in2="BackgroundImageFix" result="effect1_dropShadow_845_3305"/>
<feBlend mode="normal" in="SourceGraphic" in2="effect1_dropShadow_845_3305" result="shape"/>
</filter>
</defs>
</svg>
