<svg width="20" height="20" viewBox="0 0 20 20" fill="none" xmlns="http://www.w3.org/2000/svg">
<g clip-path="url(#clip0_845_3299)">
<path d="M19.375 11.25C19.1704 9.44219 18.301 7.77502 16.9357 6.57256C15.5703 5.3701 13.8067 4.71826 11.9875 4.74376H2.5L4.53125 1.87501C4.57989 1.80725 4.61447 1.73044 4.63296 1.64911C4.65145 1.56778 4.65347 1.48357 4.63891 1.40144C4.62435 1.31931 4.5935 1.24093 4.54817 1.17092C4.50285 1.1009 4.44397 1.04066 4.375 0.993756C4.23977 0.898867 4.07246 0.861378 3.90967 0.889487C3.74688 0.917595 3.60183 1.00901 3.50625 1.14376L0.718749 5.05001C0.65447 5.14154 0.61998 5.25066 0.61998 5.36251C0.61998 5.47435 0.65447 5.58348 0.718749 5.67501L3.5125 9.58751C3.61375 9.70417 3.75462 9.77921 3.90793 9.79813C4.06124 9.81706 4.21613 9.77855 4.34272 9.69001C4.46931 9.60148 4.55863 9.4692 4.59344 9.3187C4.62825 9.1682 4.6061 9.01014 4.53125 8.87501L2.5 5.99376H11.9875C13.5191 5.97332 15.002 6.53161 16.1398 7.55705C17.2776 8.58249 17.9866 9.99954 18.125 11.525C18.1798 12.337 18.0672 13.1515 17.7943 13.9182C17.5214 14.6849 17.094 15.3873 16.5385 15.9821C15.983 16.5768 15.3113 17.0511 14.5651 17.3757C13.8188 17.7002 13.0138 17.868 12.2 17.8688H1.25C1.08424 17.8688 0.925268 17.9346 0.808057 18.0518C0.690847 18.169 0.624999 18.328 0.624999 18.4938C0.624999 18.6595 0.690847 18.8185 0.808057 18.9357C0.925268 19.0529 1.08424 19.1188 1.25 19.1188H12.1875C13.1913 19.1223 14.1846 18.9158 15.1038 18.5124C16.0229 18.109 16.8475 17.5178 17.5245 16.7767C18.2014 16.0356 18.7158 15.161 19.0345 14.2091C19.3532 13.2573 19.4692 12.2493 19.375 11.25Z" fill="black"/>
<path d="M3.49999 9.85628L0.706243 5.94378C0.644438 5.85128 0.61145 5.74253 0.61145 5.63128C0.61145 5.52003 0.644438 5.41128 0.706243 5.31878L3.49999 1.39378C3.54784 1.32667 3.60848 1.26969 3.67843 1.22611C3.74838 1.18253 3.82626 1.15322 3.90759 1.13986C3.98891 1.1265 4.07208 1.12935 4.15229 1.14826C4.23251 1.16717 4.3082 1.20176 4.37499 1.25003C4.4421 1.29787 4.49908 1.35851 4.54266 1.42847C4.58624 1.49842 4.61555 1.5763 4.62891 1.65762C4.64227 1.73895 4.63942 1.82211 4.62051 1.90233C4.6016 1.98255 4.56702 2.05823 4.51874 2.12503L2.01874 5.62503L4.51874 9.12503C4.56702 9.19183 4.6016 9.26751 4.62051 9.34773C4.63942 9.42795 4.64227 9.51111 4.62891 9.59244C4.61555 9.67376 4.58624 9.75164 4.54266 9.82159C4.49908 9.89155 4.4421 9.95219 4.37499 10C4.3082 10.0483 4.23251 10.0829 4.15229 10.1018C4.07208 10.1207 3.98891 10.1236 3.90759 10.1102C3.82626 10.0968 3.74838 10.0675 3.67843 10.0239C3.60848 9.98037 3.54784 9.92339 3.49999 9.85628Z" fill="black"/>
<path d="M11.975 5.00004H1.25C1.08424 5.00004 0.925269 5.06589 0.808058 5.1831C0.690848 5.30031 0.625 5.45928 0.625 5.62504C0.625 5.7908 0.690848 5.94978 0.808058 6.06699C0.925269 6.1842 1.08424 6.25004 1.25 6.25004H11.975C13.5087 6.22643 14.9947 6.7833 16.1352 7.80905C17.2757 8.8348 17.9865 10.2537 18.125 11.7813C18.1798 12.5943 18.0669 13.4099 17.7933 14.1774C17.5196 14.9449 17.0911 15.648 16.5342 16.2429C15.9774 16.8378 15.3042 17.3119 14.5565 17.6357C13.8087 17.9595 13.0024 18.126 12.1875 18.125H1.25C1.08424 18.125 0.925269 18.1909 0.808058 18.3081C0.690848 18.4253 0.625 18.5843 0.625 18.75C0.625 18.9158 0.690848 19.0748 0.808058 19.192C0.925269 19.3092 1.08424 19.375 1.25 19.375H12.1875C13.1924 19.3788 14.187 19.1719 15.107 18.7678C16.0271 18.3637 16.8523 17.7713 17.5295 17.0288C18.2066 16.2863 18.7207 15.4101 19.0386 14.4568C19.3564 13.5035 19.471 12.4941 19.375 11.4938C19.1687 9.6855 18.2966 8.01877 16.9286 6.81832C15.5607 5.61787 13.7948 4.96968 11.975 5.00004Z" fill="black"/>
</g>
<defs>
<clipPath id="clip0_845_3299">
<rect width="20" height="20" fill="white"/>
</clipPath>
</defs>
</svg>
