<svg width="16" height="15" viewBox="0 0 16 15" fill="none" xmlns="http://www.w3.org/2000/svg">
<g clip-path="url(#clip0_1787_2112)">
<path d="M15.5327 0.793599C15.3497 0.639831 15.1282 0.538805 14.8921 0.501359C14.656 0.463914 14.4141 0.491462 14.1925 0.581049L0.665994 5.99519C0.468816 6.07709 0.300325 6.21558 0.181792 6.39317C0.0632594 6.57076 0 6.77948 0 6.993C0 7.20651 0.0632594 7.41524 0.181792 7.59282C0.300325 7.77041 0.468816 7.9089 0.665994 7.9908L1.53981 8.35096C1.68389 8.41191 1.84626 8.41319 1.99128 8.35452C2.13629 8.29585 2.2521 8.18202 2.31326 8.03804C2.34327 7.96634 2.35882 7.88942 2.35903 7.81169C2.35924 7.73397 2.34409 7.65696 2.31447 7.5851C2.28485 7.51324 2.24133 7.44794 2.18641 7.39294C2.13149 7.33794 2.06625 7.29432 1.99444 7.26459L1.34498 6.9989L14.6353 1.68513C14.6557 1.6726 14.6792 1.66597 14.7032 1.66597C14.7272 1.66597 14.7507 1.6726 14.7711 1.68513C14.7904 1.7015 14.8049 1.72272 14.8132 1.74659C14.8215 1.77047 14.8233 1.79614 14.8183 1.82093L12.3917 13.1452C12.3838 13.1855 12.3654 13.223 12.3385 13.2541C12.3116 13.2852 12.277 13.3087 12.2382 13.3223C12.2001 13.3374 12.1587 13.3421 12.1183 13.3358C12.0778 13.3296 12.0397 13.3127 12.0079 13.2869L7.28459 9.60265L11.9076 4.93244C12.0063 4.82998 12.0647 4.69529 12.0721 4.55318C12.0794 4.41106 12.0352 4.27108 11.9475 4.15898C11.8599 4.04688 11.7347 3.97022 11.595 3.9431C11.4553 3.91598 11.3105 3.94023 11.1873 4.01138L4.40925 8.02623C4.33397 8.06025 4.26666 8.1097 4.21169 8.17136C4.15671 8.23303 4.11529 8.30555 4.0901 8.38423C4.06491 8.4629 4.05651 8.54599 4.06545 8.62812C4.07439 8.71025 4.10046 8.78959 4.14198 8.86101C4.18351 8.93243 4.23956 8.99434 4.30651 9.04274C4.37346 9.09114 4.44982 9.12495 4.53066 9.14198C4.6115 9.15902 4.69501 9.1589 4.7758 9.14163C4.85659 9.12437 4.93285 9.09034 4.99967 9.04175L7.85139 7.35906L6.4639 8.77016C6.33697 8.88942 6.238 9.03528 6.17407 9.19729C6.11014 9.3593 6.08284 9.53345 6.09412 9.70725C6.10541 9.88105 6.155 10.0502 6.23935 10.2026C6.32369 10.355 6.4407 10.4868 6.58199 10.5886L11.3053 14.2197C11.5539 14.4116 11.8592 14.5154 12.1733 14.5149C12.3405 14.5137 12.5062 14.4838 12.6633 14.4264C12.8888 14.3454 13.0898 14.2079 13.247 14.027C13.4041 13.846 13.5121 13.6278 13.5607 13.3931L15.9696 2.08071C16.0208 1.84672 16.0071 1.60322 15.9301 1.37642C15.8531 1.14961 15.7157 0.94811 15.5327 0.793599Z" fill="black"/>
</g>
<defs>
<clipPath id="clip0_1787_2112">
<rect width="16" height="14.0298" fill="white" transform="translate(0 0.485107)"/>
</clipPath>
</defs>
</svg>
