<svg width="251" height="250" viewBox="0 0 251 250" fill="none" xmlns="http://www.w3.org/2000/svg">
<g clip-path="url(#clip0_643_7254)">
<path d="M250.5 191.2H0.5V191.325H250.5V191.2Z" fill="#EBEBEB"/>
<path d="M119 168.9H22.455C21.6987 168.899 20.9738 168.597 20.4394 168.062C19.9051 167.527 19.605 166.801 19.605 166.045V30.33C19.6116 29.578 19.9146 28.859 20.4482 28.3291C20.9818 27.7992 21.703 27.5013 22.455 27.5H119C119.757 27.5 120.483 27.8008 121.019 28.3362C121.554 28.8716 121.855 29.5978 121.855 30.355V166.045C121.855 166.802 121.554 167.528 121.019 168.064C120.483 168.599 119.757 168.9 119 168.9ZM22.455 27.6C21.7318 27.6013 21.0387 27.8895 20.5278 28.4014C20.0169 28.9132 19.73 29.6068 19.73 30.33V166.045C19.73 166.768 20.0169 167.462 20.5278 167.974C21.0387 168.485 21.7318 168.774 22.455 168.775H119C119.724 168.774 120.417 168.486 120.929 167.974C121.441 167.462 121.729 166.769 121.73 166.045V30.33C121.729 29.6064 121.441 28.9127 120.929 28.4011C120.417 27.8894 119.724 27.6013 119 27.6H22.455Z" fill="#EBEBEB"/>
<path d="M227.155 168.9H130.605C129.848 168.899 129.123 168.597 128.588 168.062C128.053 167.527 127.751 166.802 127.75 166.045V30.33C127.758 29.5776 128.062 28.8585 128.596 28.3288C129.131 27.7991 129.853 27.5013 130.605 27.5H227.155C227.906 27.5026 228.626 27.8011 229.159 28.3309C229.691 28.8606 229.993 29.5789 230 30.33V166.045C230 166.8 229.701 167.525 229.167 168.06C228.634 168.595 227.91 168.897 227.155 168.9ZM130.605 27.6C129.881 27.6013 129.188 27.8894 128.676 28.4011C128.164 28.9127 127.876 29.6064 127.875 30.33V166.045C127.876 166.769 128.164 167.462 128.676 167.974C129.188 168.486 129.881 168.774 130.605 168.775H227.155C227.879 168.774 228.572 168.486 229.084 167.974C229.596 167.462 229.884 166.769 229.885 166.045V30.33C229.884 29.6064 229.596 28.9127 229.084 28.4011C228.572 27.8894 227.879 27.6013 227.155 27.6H130.605Z" fill="#EBEBEB"/>
<path d="M225.45 199.245H212.45V199.37H225.45V199.245Z" fill="#EBEBEB"/>
<path d="M178.515 200.605H156V200.73H178.515V200.605Z" fill="#EBEBEB"/>
<path d="M211.95 194.605H181.555V194.73H211.95V194.605Z" fill="#EBEBEB"/>
<path d="M36.345 195.445H26.73V195.57H36.345V195.445Z" fill="#EBEBEB"/>
<path d="M68.4448 195.445H40.7998V195.57H68.4448V195.445Z" fill="#EBEBEB"/>
<path d="M122.57 197.555H85.335V197.68H122.57V197.555Z" fill="#EBEBEB"/>
<path d="M189.795 188.64H193.795V114.615H189.795V188.64Z" fill="#F0F0F0"/>
<path d="M170.6 191.19H192.745V188.635H170.6V191.19Z" fill="#F0F0F0"/>
<path d="M189.8 114.61H169.54V188.635H189.8V114.61Z" fill="#F5F5F5"/>
<path d="M187.64 153.16H171.7V166.38H187.64V153.16Z" fill="#F0F0F0"/>
<path d="M187.64 170.46H171.7V183.68H187.64V170.46Z" fill="#F0F0F0"/>
<path d="M177.545 160.675H181.79C182.116 160.675 182.38 160.411 182.38 160.085V159.45C182.38 159.124 182.116 158.86 181.79 158.86H177.545C177.219 158.86 176.955 159.124 176.955 159.45V160.085C176.955 160.411 177.219 160.675 177.545 160.675Z" fill="#F5F5F5"/>
<path d="M177.545 177.975H181.79C182.116 177.975 182.38 177.711 182.38 177.385V176.75C182.38 176.424 182.116 176.16 181.79 176.16H177.545C177.219 176.16 176.955 176.424 176.955 176.75V177.385C176.955 177.711 177.219 177.975 177.545 177.975Z" fill="#F5F5F5"/>
<path d="M187.64 118.695H171.7V131.915H187.64V118.695Z" fill="#F0F0F0"/>
<path d="M187.64 135.855H171.7V149.075H187.64V135.855Z" fill="#F0F0F0"/>
<path d="M177.545 126.21H181.79C182.116 126.21 182.38 125.946 182.38 125.62V124.985C182.38 124.659 182.116 124.395 181.79 124.395H177.545C177.219 124.395 176.955 124.659 176.955 124.985V125.62C176.955 125.946 177.219 126.21 177.545 126.21Z" fill="#F5F5F5"/>
<path d="M177.545 143.375H181.79C182.116 143.375 182.38 143.111 182.38 142.785V142.15C182.38 141.824 182.116 141.56 181.79 141.56H177.545C177.219 141.56 176.955 141.824 176.955 142.15V142.785C176.955 143.111 177.219 143.375 177.545 143.375Z" fill="#F5F5F5"/>
<path d="M211.97 188.64H223.97V114.615H211.97V188.64Z" fill="#F0F0F0"/>
<path d="M192.76 191.19H222.735V188.635H192.76V191.19Z" fill="#F0F0F0"/>
<path d="M211.97 114.61H191.71V188.635H211.97V114.61Z" fill="#F5F5F5"/>
<path d="M209.81 153.16H193.87V166.38H209.81V153.16Z" fill="#F0F0F0"/>
<path d="M209.81 170.46H193.87V183.68H209.81V170.46Z" fill="#F0F0F0"/>
<path d="M199.715 160.675H203.96C204.286 160.675 204.55 160.411 204.55 160.085V159.45C204.55 159.124 204.286 158.86 203.96 158.86H199.715C199.389 158.86 199.125 159.124 199.125 159.45V160.085C199.125 160.411 199.389 160.675 199.715 160.675Z" fill="#F5F5F5"/>
<path d="M199.715 177.975H203.96C204.286 177.975 204.55 177.711 204.55 177.385V176.75C204.55 176.424 204.286 176.16 203.96 176.16H199.715C199.389 176.16 199.125 176.424 199.125 176.75V177.385C199.125 177.711 199.389 177.975 199.715 177.975Z" fill="#F5F5F5"/>
<path d="M209.81 118.695H193.87V131.915H209.81V118.695Z" fill="#F0F0F0"/>
<path d="M209.81 135.855H193.87V149.075H209.81V135.855Z" fill="#F0F0F0"/>
<path d="M199.715 126.21H203.96C204.286 126.21 204.55 125.946 204.55 125.62V124.985C204.55 124.659 204.286 124.395 203.96 124.395H199.715C199.389 124.395 199.125 124.659 199.125 124.985V125.62C199.125 125.946 199.389 126.21 199.715 126.21Z" fill="#F5F5F5"/>
<path d="M199.715 143.375H203.96C204.286 143.375 204.55 143.111 204.55 142.785V142.15C204.55 141.824 204.286 141.56 203.96 141.56H199.715C199.389 141.56 199.125 141.824 199.125 142.15V142.785C199.125 143.111 199.389 143.375 199.715 143.375Z" fill="#F5F5F5"/>
<path d="M146.815 99.1599L214.17 99.1599V40.0299L146.815 40.0299V99.1599Z" fill="#E6E6E6"/>
<path d="M139.595 37.73H218.53C218.708 37.73 218.878 37.8006 219.004 37.9262C219.13 38.0519 219.2 38.2223 219.2 38.4C219.199 38.5768 219.128 38.7459 219.002 38.8705C218.877 38.9951 218.707 39.065 218.53 39.065H139.595C139.419 39.0637 139.251 38.9932 139.126 38.8688C139.002 38.7443 138.931 38.5759 138.93 38.4C138.93 38.2232 139 38.0535 139.125 37.928C139.249 37.8025 139.418 37.7313 139.595 37.73Z" fill="#E6E6E6"/>
<path d="M143.96 99.1599L212.84 99.1599V40.0299L143.96 40.0299V99.1599Z" fill="#F0F0F0"/>
<path d="M146.815 99.1599H214.17V101.055H144.845L146.815 99.1599Z" fill="#E6E6E6"/>
<path d="M139.195 99.1599H208.075L206.105 101.055H137.225L139.195 99.1599Z" fill="#F0F0F0"/>
<path d="M208.835 95.16V44.03L147.96 44.03V95.16H208.835Z" fill="white"/>
<path d="M195.015 95.16L171.53 44.03H160.445L183.93 95.16H195.015Z" fill="white"/>
<path d="M181.55 95.16L158.065 44.03H153.74L177.225 95.16H181.55Z" fill="white"/>
<path d="M148.465 95.16V44.03H147.955V95.16H148.465Z" fill="#E6E6E6"/>
<g opacity="0.4">
<path d="M208.785 85.325H215.67V36.5299H208.785V85.325Z" fill="#F0F0F0"/>
<path d="M206.105 85.325H211.47V36.5299H206.105V85.325Z" fill="#E6E6E6"/>
<path d="M201.905 85.325H208.79V36.5299H201.905V85.325Z" fill="#F0F0F0"/>
<path d="M199.22 85.325H204.585V36.5299H199.22V85.325Z" fill="#E6E6E6"/>
<path d="M195.015 85.325H201.9V36.5299H195.015V85.325Z" fill="#F0F0F0"/>
</g>
<g opacity="0.4">
<path d="M150.52 85.325H154.49V36.5299H150.52V85.325Z" fill="#F0F0F0"/>
<path d="M148.975 85.325H152.065V36.5299H148.975V85.325Z" fill="#E6E6E6"/>
<path d="M146.55 85.325H150.52V36.5299H146.55V85.325Z" fill="#F0F0F0"/>
<path d="M145.01 85.325H148.1V36.5299H145.01V85.325Z" fill="#E6E6E6"/>
<path d="M142.58 85.325H146.55V36.5299H142.58V85.325Z" fill="#F0F0F0"/>
</g>
<path d="M82.6099 75.8499H92.1399L91.0149 51.6799H82.6099V75.8499Z" fill="#F5F5F5"/>
<path d="M97.5249 77.155L99.5799 87.89H97.5249L84.9199 77.155H97.5249Z" fill="#F5F5F5"/>
<path d="M99.5801 77.155V87.89L86.9751 77.155H99.5801Z" fill="#E6E6E6"/>
<path d="M48.0899 77.155L50.1449 87.89H48.0899L35.4849 77.155H48.0899Z" fill="#F5F5F5"/>
<path d="M50.145 77.155V87.89L37.54 77.155H50.145Z" fill="#E6E6E6"/>
<path d="M108.835 75.885H95.125V77.435H108.835V75.885Z" fill="#E6E6E6"/>
<path d="M26.965 77.4351L95.125 77.4351V75.8851L26.965 75.8851V77.4351Z" fill="#F5F5F5"/>
<path d="M68.605 75.8501H89.065L91.595 46.5601H71.135L68.605 75.8501Z" fill="#E6E6E6"/>
<path d="M67.5449 75.8501H88.0049L90.5349 46.5601H70.0749L67.5449 75.8501Z" fill="#F0F0F0"/>
<path d="M86.29 72.6051L88.605 49.8H71.795L69.48 72.6051H86.29Z" fill="white"/>
<path d="M59.4448 75.8501H66.0098L65.2348 59.2051H59.4448V75.8501Z" fill="#E0E0E0"/>
<path d="M49.8052 75.8499H63.8902L65.6352 55.6799H51.5452L49.8052 75.8499Z" fill="#F0F0F0"/>
<path d="M49.0752 75.8499H63.1652L64.9052 55.6799H50.8152L49.0752 75.8499Z" fill="#F5F5F5"/>
<path d="M61.9798 73.615L63.5698 57.915H51.9998L50.4048 73.615H61.9798Z" fill="#E0E0E0"/>
<path d="M131.68 118.22C131.727 118.779 131.607 119.339 131.335 119.83C131.063 120.321 130.651 120.72 130.153 120.976C129.654 121.233 129.09 121.336 128.533 121.272C127.975 121.209 127.45 120.981 127.022 120.618C126.594 120.255 126.283 119.774 126.129 119.235C125.975 118.695 125.984 118.122 126.156 117.588C126.328 117.054 126.654 116.583 127.094 116.234C127.533 115.886 128.066 115.676 128.625 115.63C128.996 115.599 129.369 115.642 129.723 115.755C130.078 115.869 130.406 116.051 130.69 116.292C130.973 116.532 131.207 116.826 131.377 117.157C131.547 117.488 131.65 117.849 131.68 118.22Z" fill="#E0E0E0"/>
<path d="M136.945 119.7C136.991 120.259 136.871 120.819 136.599 121.31C136.327 121.801 135.916 122.199 135.417 122.456C134.918 122.713 134.355 122.816 133.797 122.752C133.24 122.688 132.714 122.461 132.286 122.098C131.858 121.735 131.548 121.254 131.394 120.714C131.24 120.175 131.249 119.602 131.421 119.068C131.592 118.534 131.919 118.063 132.358 117.714C132.798 117.366 133.331 117.155 133.89 117.11C134.638 117.049 135.38 117.288 135.953 117.773C136.526 118.259 136.882 118.952 136.945 119.7Z" fill="#E0E0E0"/>
<path d="M140.75 118C140.796 118.559 140.674 119.119 140.402 119.609C140.129 120.099 139.717 120.497 139.219 120.753C138.72 121.009 138.156 121.111 137.599 121.047C137.042 120.982 136.516 120.754 136.089 120.391C135.662 120.028 135.351 119.547 135.198 119.007C135.044 118.468 135.054 117.895 135.226 117.362C135.398 116.828 135.724 116.357 136.164 116.009C136.603 115.66 137.136 115.45 137.695 115.405C138.444 115.345 139.186 115.585 139.758 116.071C140.331 116.558 140.688 117.251 140.75 118Z" fill="#E0E0E0"/>
<path d="M144.765 119.06C144.809 119.618 144.688 120.176 144.415 120.664C144.143 121.153 143.731 121.549 143.233 121.804C142.736 122.059 142.173 122.161 141.618 122.096C141.062 122.032 140.538 121.804 140.112 121.442C139.685 121.08 139.376 120.6 139.222 120.062C139.069 119.524 139.078 118.953 139.249 118.42C139.42 117.888 139.745 117.418 140.183 117.07C140.621 116.722 141.152 116.511 141.71 116.465C142.081 116.434 142.454 116.477 142.809 116.591C143.164 116.705 143.492 116.887 143.776 117.128C144.06 117.369 144.293 117.664 144.463 117.996C144.633 118.327 144.735 118.689 144.765 119.06Z" fill="#E0E0E0"/>
<path d="M148.37 119.5C148.37 119.5 148.04 127.37 135.4 127.37C122.76 127.37 122.4 119.5 122.4 119.5H148.37Z" fill="#F0F0F0"/>
<path d="M30.4402 191.2H35.0352L35.0352 127.385H30.4402L30.4402 191.2Z" fill="#E6E6E6"/>
<path d="M29.2149 191.2H31.9199L31.9199 127.385H29.2149L29.2149 191.2Z" fill="#F0F0F0"/>
<path d="M93.605 127.385H28.375V132.17H93.605V127.385Z" fill="#F0F0F0"/>
<path d="M155.38 191.2H159.975V127.385H155.38V191.2Z" fill="#E6E6E6"/>
<path d="M154.52 191.2H157.225V127.385H154.52V191.2Z" fill="#F0F0F0"/>
<path d="M160.795 127.385H95.5649V132.17H160.795V127.385Z" fill="#E6E6E6"/>
<path d="M93.99 191.2H98.585L98.585 127.385H93.99L93.99 191.2Z" fill="#E6E6E6"/>
<path d="M92.7652 191.2H95.4702L95.4702 127.385H92.7652L92.7652 191.2Z" fill="#F0F0F0"/>
<path d="M109.07 106.16H75.0148L68.9448 126.27H103.005L109.07 106.16Z" fill="#E6E6E6"/>
<path d="M103.005 126.27L102.87 127.385H68.8101L68.9451 126.27H103.005Z" fill="#E6E6E6"/>
<path d="M108.025 106.16H73.9649L67.8999 126.27H101.955L108.025 106.16Z" fill="#F0F0F0"/>
<path d="M101.29 125.355L106.8 107.08H74.6351L69.1201 125.355H101.29Z" fill="white"/>
<path d="M93.0849 126.27L92.9449 127.385H55.4399L55.5749 126.27H93.0849Z" fill="#F0F0F0"/>
<path d="M125.5 213.78C179.041 213.78 222.445 211.246 222.445 208.12C222.445 204.994 179.041 202.46 125.5 202.46C71.9589 202.46 28.5552 204.994 28.5552 208.12C28.5552 211.246 71.9589 213.78 125.5 213.78Z" fill="#F5F5F5"/>
<path d="M189.275 54.5749H131.73C129.756 54.6073 127.865 55.3743 126.427 56.726C124.988 58.0776 124.105 59.917 123.95 61.8849L115 199.665C114.927 200.603 115.05 201.546 115.362 202.434C115.673 203.322 116.166 204.135 116.809 204.823C117.452 205.51 118.23 206.055 119.096 206.425C119.961 206.795 120.894 206.98 121.835 206.97H179.4C181.373 206.939 183.264 206.173 184.703 204.822C186.141 203.471 187.025 201.632 187.18 199.665L193.6 100.635C193.873 100.54 194.112 100.368 194.289 100.14C194.467 99.9119 194.575 99.6376 194.6 99.3499L195.75 81.6299C195.77 81.3546 195.7 81.0803 195.55 80.8484C195.4 80.6165 195.179 80.4398 194.92 80.3449L196.115 61.8849C196.188 60.9461 196.065 60.0024 195.753 59.1138C195.441 58.2252 194.948 57.4112 194.305 56.7237C193.661 56.0361 192.882 55.4899 192.016 55.12C191.15 54.7501 190.216 54.5644 189.275 54.5749Z" fill="#00A8A8"/>
<path d="M119.29 90.2498H120.42C120.77 90.2436 121.105 90.1076 121.36 89.8682C121.615 89.6289 121.772 89.3034 121.8 88.9548L122.3 81.5548C122.313 81.3883 122.29 81.2211 122.235 81.0636C122.179 80.9062 122.091 80.762 121.977 80.6403C121.863 80.5185 121.725 80.4218 121.571 80.3563C121.417 80.2908 121.252 80.258 121.085 80.2598H119.96C119.61 80.265 119.275 80.4006 119.019 80.6401C118.764 80.8797 118.607 81.2059 118.58 81.5548L118.08 88.9548C118.068 89.1209 118.09 89.2878 118.145 89.4448C118.2 89.6019 118.287 89.7459 118.401 89.8675C118.515 89.9892 118.653 90.086 118.806 90.1518C118.959 90.2176 119.123 90.251 119.29 90.2498Z" fill="#00A8A8"/>
<path d="M118.435 103.46H119.56C119.911 103.454 120.247 103.317 120.503 103.077C120.759 102.836 120.917 102.51 120.945 102.16L121.445 94.7648C121.457 94.5983 121.435 94.431 121.38 94.2736C121.324 94.1162 121.236 93.972 121.122 93.8502C121.008 93.7285 120.87 93.6318 120.716 93.5663C120.562 93.5008 120.397 93.4679 120.23 93.4698H119.105C118.754 93.4749 118.418 93.6103 118.162 93.8497C117.906 94.0892 117.749 94.4154 117.72 94.7648L117.22 102.16C117.206 102.327 117.227 102.495 117.282 102.653C117.337 102.812 117.425 102.957 117.539 103.079C117.654 103.202 117.792 103.299 117.947 103.364C118.101 103.43 118.267 103.462 118.435 103.46Z" fill="#00A8A8"/>
<path d="M176.34 206.97H118.795C117.854 206.98 116.921 206.795 116.056 206.425C115.19 206.055 114.412 205.51 113.769 204.823C113.126 204.135 112.633 203.322 112.321 202.434C112.01 201.546 111.887 200.603 111.96 199.665L120.89 61.8848C121.046 59.9165 121.93 58.0771 123.37 56.7255C124.809 55.3739 126.701 54.6072 128.675 54.5748H186.215C187.156 54.5651 188.089 54.7512 188.954 55.1215C189.82 55.4917 190.598 56.038 191.241 56.7255C191.884 57.413 192.377 58.2267 192.688 59.1149C193 60.0031 193.123 60.9464 193.05 61.8848L184.12 199.665C183.965 201.632 183.081 203.471 181.643 204.822C180.204 206.173 178.313 206.939 176.34 206.97Z" fill="#263238"/>
<path opacity="0.2" d="M151.479 201.111C153.495 199.16 153.647 196.047 151.818 194.158C149.99 192.269 146.873 192.32 144.857 194.271C142.842 196.223 142.69 199.336 144.518 201.224C146.347 203.113 149.463 203.063 151.479 201.111Z" fill="white"/>
<path d="M181.54 189.085H116.125C115.902 189.085 115.682 189.039 115.478 188.95C115.273 188.861 115.089 188.732 114.937 188.569C114.785 188.407 114.667 188.215 114.592 188.005C114.517 187.795 114.486 187.572 114.5 187.35L122.155 69.1899C122.189 68.7818 122.374 68.4013 122.675 68.1235C122.976 67.8458 123.37 67.691 123.78 67.6899H189.2C189.423 67.6902 189.643 67.736 189.847 67.8247C190.052 67.9135 190.236 68.0431 190.388 68.2057C190.54 68.3683 190.658 68.5603 190.733 68.7701C190.808 68.9798 190.839 69.2026 190.825 69.4249L183.165 187.56C183.138 187.973 182.956 188.36 182.654 188.644C182.352 188.927 181.954 189.085 181.54 189.085Z" fill="white"/>
<path opacity="0.2" d="M163.288 142.513C170.605 135.429 171.156 124.128 164.518 117.271C157.88 110.415 146.567 110.598 139.25 117.682C131.933 124.765 131.382 136.066 138.02 142.923C144.658 149.78 155.97 149.596 163.288 142.513Z" fill="#00A8A8"/>
<path opacity="0.2" d="M149.5 157.63C134.315 157.63 122.76 145.275 123.745 130.09C124.73 114.905 137.88 102.55 153.07 102.55C168.26 102.55 179.81 114.905 178.825 130.09C177.84 145.275 164.67 157.63 149.5 157.63ZM153 103.05C138.09 103.05 125.175 115.18 124.21 130.09C123.245 145 134.585 157.13 149.495 157.13C164.405 157.13 177.32 145 178.29 130.09C179.26 115.18 167.93 103.05 153 103.05Z" fill="#00A8A8"/>
<path d="M147 138.745L145.5 135.85C142.25 129.545 134.765 123.91 132.15 122.27L134.62 118.575C137.715 120.515 143.9 125.32 147.78 131.03C154.955 122.53 165.095 113.775 178.67 104.33L180.985 107.83C166.485 117.92 156.05 127.145 149.11 136.035L147 138.745Z" fill="#00A8A8"/>
<path opacity="0.2" d="M146.291 62.4402C147.106 61.6508 147.166 60.3901 146.425 59.6242C145.683 58.8584 144.421 58.8775 143.606 59.6669C142.79 60.4563 142.73 61.717 143.472 62.4829C144.213 63.2487 145.475 63.2296 146.291 62.4402Z" fill="white"/>
<path opacity="0.2" d="M151.955 59.0599H168.5C168.757 59.0569 169.012 59.1077 169.248 59.2091C169.485 59.3104 169.697 59.46 169.872 59.6483C170.047 59.8367 170.181 60.0595 170.265 60.3026C170.349 60.5457 170.381 60.8037 170.36 61.0599C170.319 61.5974 170.079 62.1002 169.687 62.4701C169.295 62.84 168.779 63.0503 168.24 63.0599H151.7C151.443 63.0621 151.188 63.0108 150.952 62.9093C150.715 62.8077 150.503 62.6582 150.327 62.4701C150.152 62.282 150.018 62.0596 149.933 61.8168C149.848 61.574 149.815 61.3163 149.835 61.0599C149.876 60.5225 150.116 60.0197 150.508 59.6498C150.9 59.2799 151.416 59.0696 151.955 59.0599Z" fill="white"/>
<path d="M90.3701 95.9999C89.5251 96.8649 88.6201 97.8199 87.7851 98.7699C86.9501 99.7199 86.1151 100.695 85.3301 101.695C84.5451 102.695 83.8301 103.695 83.0901 104.75L82.5901 105.535L82.0901 106.33C81.9251 106.595 81.7751 106.865 81.6301 107.14L81.2301 107.875C81.067 108.295 80.9741 108.739 80.9551 109.19C80.9151 109.769 80.9151 110.351 80.9551 110.93C81.0531 112.18 81.2201 113.423 81.4551 114.655C81.6751 115.915 81.9551 117.18 82.2501 118.44C82.5451 119.7 82.8701 120.975 83.2001 122.215L81.3501 122.91C80.2133 120.464 79.2607 117.937 78.5001 115.35C78.1139 114.016 77.8182 112.658 77.6151 111.285C77.514 110.553 77.4622 109.814 77.4601 109.075C77.4484 108.204 77.5958 107.338 77.8951 106.52C78.0101 106.24 78.0701 106.13 78.1501 105.96L78.3801 105.485C78.5301 105.17 78.6851 104.855 78.8801 104.55L79.3801 103.63L79.9101 102.735C80.6164 101.556 81.3858 100.416 82.2151 99.3199C83.0351 98.2249 83.8851 97.1599 84.7801 96.1299C85.6751 95.0999 86.5801 94.1299 87.6201 93.1299L90.3701 95.9999Z" fill="#B55B52"/>
<path d="M90.5848 89.9999C87.8748 90.1199 85.2998 94.6199 85.2998 94.6199L88.8798 101.925C88.8798 101.925 93.7298 97.8849 93.7898 93.9249C93.8298 91.3299 93.2498 89.8749 90.5848 89.9999Z" fill="#00A8A8"/>
<path opacity="0.7" d="M90.5848 89.9999C87.8748 90.1199 85.2998 94.6199 85.2998 94.6199L88.8798 101.925C88.8798 101.925 93.7298 97.8849 93.7898 93.9249C93.8298 91.3299 93.2498 89.8749 90.5848 89.9999Z" fill="white"/>
<path opacity="0.2" d="M91.2299 95.2499C90.4399 96.4449 90.0599 99.5449 89.9399 100.925C91.1329 99.7648 92.1443 98.4315 92.9399 96.9699C92.4049 95.6349 91.7499 94.4649 91.2299 95.2499Z" fill="black"/>
<path d="M82.6651 121.455L85.9601 122.455L83.7651 124.675C83.7651 124.675 81.3901 123.94 81.0601 122.325L82.6651 121.455Z" fill="#B55B52"/>
<path d="M87.9551 124.97L87.4001 127.095L83.7651 124.655L85.9601 122.435L87.9551 124.97Z" fill="#B55B52"/>
<path d="M109.635 81.3249C109.53 81.6199 109.605 81.9199 109.8 81.9899C109.995 82.0599 110.235 81.8849 110.335 81.5899C110.435 81.2949 110.365 80.9899 110.17 80.9199C109.975 80.8499 109.74 81.0249 109.635 81.3249Z" fill="#263238"/>
<path d="M110.08 80.905L110.865 80.97C110.865 80.97 110.305 81.385 110.08 80.905Z" fill="#263238"/>
<path d="M109.785 81.7048C109.815 82.4827 109.949 83.253 110.185 83.9948C109.994 84.0448 109.795 84.0527 109.601 84.0182C109.406 83.9837 109.222 83.9075 109.06 83.7948L109.785 81.7048Z" fill="#A80000"/>
<path d="M110.605 80.1698C110.569 80.1649 110.536 80.1494 110.509 80.1253C110.483 80.1012 110.464 80.0697 110.455 80.0348C110.4 79.8088 110.295 79.5982 110.147 79.4189C109.999 79.2396 109.812 79.0963 109.6 78.9998C109.555 78.9829 109.518 78.9488 109.497 78.9048C109.476 78.8609 109.474 78.8106 109.49 78.7648C109.498 78.7419 109.51 78.7208 109.526 78.7027C109.543 78.6847 109.562 78.6701 109.584 78.6598C109.606 78.6495 109.63 78.6438 109.654 78.6429C109.678 78.6421 109.702 78.6461 109.725 78.6548C109.997 78.773 110.238 78.9537 110.427 79.1822C110.616 79.4106 110.749 79.6804 110.815 79.9698C110.821 79.9935 110.822 80.018 110.819 80.0422C110.815 80.0663 110.807 80.0895 110.794 80.1104C110.782 80.1313 110.765 80.1495 110.746 80.164C110.726 80.1785 110.704 80.189 110.68 80.1948L110.605 80.1698Z" fill="#263238"/>
<path d="M99.3647 82.5798C99.4347 84.9448 99.1947 89.1998 97.3647 90.4048C97.3647 90.4048 97.6097 92.8348 101.865 93.6598C106.54 94.5648 104.48 91.7848 104.48 91.7848C102.03 90.6848 102.405 88.8148 103.14 87.1348L99.3647 82.5798Z" fill="#B55B52"/>
<path d="M113.26 98.7649C113.68 99.9099 114.16 101.15 114.67 102.325C115.18 103.5 115.67 104.69 116.265 105.825C116.86 106.96 117.44 108.1 118.07 109.205C118.395 109.75 118.72 110.295 119.07 110.815C119.24 111.085 119.415 111.345 119.6 111.59L119.87 111.97L120.005 112.165L120.075 112.26L120.12 112.31C120.445 112.68 120.818 113.004 121.23 113.275C121.725 113.613 122.24 113.924 122.77 114.205C123.865 114.795 125.04 115.33 126.235 115.835C127.43 116.34 128.65 116.835 129.885 117.27C131.12 117.705 132.385 118.165 133.6 118.59L133.135 120.515C130.455 120.067 127.808 119.444 125.21 118.65C123.88 118.244 122.574 117.762 121.3 117.205C120.632 116.908 119.981 116.574 119.35 116.205C118.618 115.788 117.955 115.26 117.385 114.64L117.265 114.505L117.18 114.4L117.015 114.195L116.685 113.775C116.46 113.5 116.245 113.22 116.045 112.935C115.62 112.37 115.23 111.79 114.845 111.205C114.086 110.044 113.387 108.846 112.75 107.615C112.115 106.39 111.515 105.155 110.965 103.895C110.415 102.635 109.92 101.395 109.465 100.015L113.26 98.7649Z" fill="#B55B52"/>
<path d="M132.94 118.58L135.89 117.44L135.745 120.845C135.745 120.845 133.355 121.48 132.245 120.275L132.94 118.58Z" fill="#B55B52"/>
<path d="M138.115 118.61L139.125 120.785L135.745 120.845L135.89 117.44L138.115 118.61Z" fill="#B55B52"/>
<path d="M89.1899 203.945L93.0949 204.235L94.2549 195.27L90.3499 194.98L89.1899 203.945Z" fill="#B55B52"/>
<path d="M58.2598 183.665L60.8098 186.695L68.3798 181.83L65.8298 178.8L58.2598 183.665Z" fill="#B55B52"/>
<path d="M62 186.305L59.945 182.355C59.9123 182.286 59.8555 182.232 59.7854 182.203C59.7154 182.173 59.6369 182.17 59.565 182.195L56.3 183.325C56.2181 183.358 56.144 183.408 56.0828 183.471C56.0216 183.535 55.9745 183.611 55.9448 183.694C55.915 183.777 55.9032 183.866 55.9101 183.954C55.9171 184.042 55.9426 184.127 55.985 184.205C56.725 185.57 57.15 186.205 58.05 187.93C58.61 188.995 59.315 190.615 60.08 192.09C60.845 193.565 62.305 192.91 62.115 192.225C61.255 189.17 61.825 188.325 62.115 187C62.1562 186.762 62.1157 186.517 62 186.305Z" fill="#263238"/>
<path d="M93.34 203.68H88.95C88.8745 203.679 88.8011 203.705 88.7432 203.754C88.6854 203.803 88.647 203.87 88.635 203.945L88.045 207.415C88.0328 207.501 88.0394 207.59 88.0642 207.673C88.0891 207.757 88.1316 207.835 88.189 207.9C88.2463 207.966 88.3172 208.019 88.3967 208.055C88.4763 208.091 88.5626 208.11 88.65 208.11C90.185 208.085 90.92 207.995 92.85 207.995C94.04 207.995 96.49 208.12 98.13 208.12C99.77 208.12 99.9 206.5 99.22 206.35C96.175 205.695 94.995 204.785 93.985 203.92C93.8068 203.763 93.5772 203.678 93.34 203.68Z" fill="#263238"/>
<path opacity="0.2" d="M94.2552 195.27L93.6102 200.255L89.7202 199.865L90.3502 194.985L94.2552 195.27Z" fill="black"/>
<path opacity="0.2" d="M65.8301 178.8L68.3801 181.83L65.2451 183.845L62.6001 180.875L65.8301 178.8Z" fill="black"/>
<path d="M89.5 113.775L105.16 116.81C112.56 95.025 110.79 94.31 110.79 94.31C109.64 93.6884 108.452 93.1374 107.235 92.66L107.02 92.58C106.02 92.215 105.81 92.16 104.47 91.77C102.16 91.225 100.015 90.77 97.36 90.395L96.86 90.325C96.36 90.265 95.9 90.215 95.44 90.17C95.13 90.135 94.82 90.115 94.525 90.095L93.525 90.04C91.815 89.955 90.59 89.98 90.59 89.98C91.45 103.585 90.795 107.5 89.5 113.775Z" fill="#00A8A8"/>
<path opacity="0.7" d="M89.5 113.775L105.16 116.81C112.56 95.025 110.79 94.31 110.79 94.31C109.64 93.6884 108.452 93.1374 107.235 92.66L107.02 92.58C106.02 92.215 105.81 92.16 104.47 91.77C102.16 91.225 100.015 90.77 97.36 90.395L96.86 90.325C96.36 90.265 95.9 90.215 95.44 90.17C95.13 90.135 94.82 90.115 94.525 90.095L93.525 90.04C91.815 89.955 90.59 89.98 90.59 89.98C91.45 103.585 90.795 107.5 89.5 113.775Z" fill="white"/>
<path opacity="0.2" d="M108.54 99.395L107.125 99.165C107.125 101.03 107.835 104.23 108.525 106.265C109.11 104.265 109.565 102.62 109.91 101.235L108.54 99.395Z" fill="black"/>
<path d="M110.245 94.0448C112.56 94.7848 114.245 99.3648 114.875 101.34L110.375 106.625C110.375 106.625 105.765 99.9998 106.5 97.9448C107.22 95.8048 109.125 93.6798 110.245 94.0448Z" fill="#00A8A8"/>
<path opacity="0.7" d="M110.245 94.0448C112.56 94.7848 114.245 99.3648 114.875 101.34L110.375 106.625C110.375 106.625 105.765 99.9998 106.5 97.9448C107.22 95.8048 109.125 93.6798 110.245 94.0448Z" fill="white"/>
<path d="M111.745 77.1348C111.28 78.4998 109.245 79.0448 107.22 78.3598C105.195 77.6748 103.915 75.9998 104.38 74.6348C104.845 73.2698 106.88 72.7248 108.88 73.4148C110.88 74.1048 112.205 75.7698 111.745 77.1348Z" fill="#263238"/>
<path d="M99.9997 76.76C98.9597 80.48 98.4397 82.03 99.6297 84.59C101.42 88.445 106.21 89.05 108.34 85.745C110.255 82.775 111.635 77.19 108.575 74.395C107.929 73.7709 107.132 73.326 106.261 73.1042C105.391 72.8823 104.478 72.8912 103.612 73.13C102.746 73.3688 101.958 73.8292 101.324 74.4658C100.691 75.1023 100.234 75.8931 99.9997 76.76Z" fill="#B55B52"/>
<path d="M105.81 72.4149C104.31 73.2749 101.125 67.8899 97.1701 72.4149C94.3401 75.6599 96.1451 80.4149 96.1451 80.4149C96.1451 80.4149 93.8901 76.4499 92.0901 78.3849C89.7401 80.8849 92.1701 89.8299 99.9201 89.2149C107.67 88.5999 106.92 82.3099 106.92 82.3099C106.92 82.3099 110.55 78.6199 110.37 75.3099C110.235 72.8299 108.31 70.9999 105.81 72.4149Z" fill="#263238"/>
<path d="M106.75 79.9549C106.557 80.6472 106.581 81.3821 106.82 82.0599C107.14 83.0149 107.875 83.0199 108.265 82.3599C108.655 81.6999 108.87 80.5549 108.315 79.7849C107.76 79.0149 107 79.1899 106.75 79.9549Z" fill="#B55B52"/>
<path d="M101 116C101 116 99.3298 121.79 97.1848 129.43C95.7598 134.52 94.1198 140.43 92.6248 145.995C91.7698 149.18 90.9648 152.25 90.2698 154.995C86.3398 170.52 66.7398 183.865 66.7398 183.865L62.9448 179.69C62.9448 179.69 76.1148 168.6 79.9448 154.115C87.6798 124.71 83.3298 119.75 89.4948 113.775L101 116Z" fill="#263238"/>
<path opacity="0.2" d="M99.31 121.19C98.73 123.435 98 126.27 97.195 129.44C95.77 134.53 94.13 140.44 92.635 146.005C91.995 138.905 91.635 125.85 96.86 121.79C97.89 121 98.705 120.835 99.31 121.19Z" fill="black"/>
<path d="M67.0652 184.465L62.3252 179.25L63.7602 177.81L69.5752 183.29L67.0652 184.465Z" fill="#00A8A8"/>
<path opacity="0.7" d="M67.0652 184.465L62.3252 179.25L63.7602 177.81L69.5752 183.29L67.0652 184.465Z" fill="white"/>
<path d="M62.7149 188.425C62.6672 188.424 62.62 188.415 62.5749 188.4C62.1099 188.23 61.8149 187.34 61.6799 186.825C61.6756 186.807 61.6766 186.789 61.6828 186.772C61.689 186.755 61.7002 186.74 61.7149 186.73C61.7294 186.719 61.747 186.714 61.7649 186.714C61.7829 186.714 61.8004 186.719 61.8149 186.73C61.9549 186.81 63.1849 187.53 63.2099 188.035C63.2141 188.09 63.2032 188.145 63.1786 188.194C63.1539 188.244 63.1164 188.285 63.0699 188.315C62.9677 188.391 62.8424 188.43 62.7149 188.425ZM61.9199 187C62.1249 187.675 62.3849 188.13 62.6399 188.22C62.6944 188.237 62.7523 188.24 62.8082 188.228C62.8642 188.217 62.9163 188.192 62.9599 188.155C63.0249 188.11 63.0299 188.065 63.0249 188.035C62.9999 187.775 62.4049 187.305 61.9199 187Z" fill="#00A8A8"/>
<path d="M104.91 116.81C104.91 116.81 105.91 147.72 103.7 159.365C101.43 171.5 94.5001 199 94.5001 199L88.8701 198.275C88.8701 198.275 92.4301 170.445 93.9451 158.415C95.5901 145.295 93.4451 114.57 93.4451 114.57L104.91 116.81Z" fill="#263238"/>
<path d="M95.7101 199.345L87.6851 198.31L87.7801 196.4L96.5151 196.78L95.7101 199.345Z" fill="#00A8A8"/>
<path opacity="0.7" d="M95.7101 199.345L87.6851 198.31L87.7801 196.4L96.5151 196.78L95.7101 199.345Z" fill="white"/>
<path d="M62.9048 187.215C62.4894 187.195 62.0841 187.081 61.7198 186.88C61.7062 186.872 61.6949 186.86 61.687 186.846C61.6791 186.832 61.6749 186.816 61.6748 186.8C61.677 186.784 61.6826 186.768 61.6912 186.755C61.6998 186.741 61.7113 186.729 61.7248 186.72C61.7698 186.72 62.7248 186.195 63.2748 186.4C63.3437 186.425 63.4064 186.465 63.4582 186.517C63.51 186.568 63.5499 186.631 63.5748 186.7C63.6077 186.767 63.6172 186.842 63.6017 186.915C63.5863 186.987 63.5469 187.053 63.4898 187.1C63.3122 187.2 63.1071 187.24 62.9048 187.215ZM61.9698 186.81C62.4048 187.01 63.1648 187.12 63.3748 186.955C63.4098 186.925 63.4448 186.88 63.3748 186.765C63.3601 186.721 63.3352 186.681 63.3023 186.648C63.2693 186.615 63.2291 186.59 63.1848 186.575C62.7653 186.528 62.3415 186.61 61.9698 186.81Z" fill="#00A8A8"/>
<path d="M94.7898 204.36C94.3781 204.351 93.968 204.304 93.5648 204.22C93.5457 204.218 93.5278 204.209 93.5142 204.196C93.5006 204.182 93.492 204.164 93.4898 204.145C93.4869 204.126 93.4901 204.106 93.4991 204.089C93.5081 204.072 93.5224 204.058 93.5398 204.05C93.7198 203.955 95.2998 203.16 95.7698 203.425C95.8147 203.45 95.8522 203.486 95.8785 203.53C95.9049 203.574 95.9191 203.624 95.9198 203.675C95.9296 203.758 95.9182 203.843 95.8867 203.92C95.8553 203.998 95.8048 204.067 95.7398 204.12C95.459 204.304 95.1244 204.388 94.7898 204.36ZM93.8748 204.09C94.7348 204.235 95.3748 204.195 95.6198 203.985C95.6619 203.948 95.6944 203.901 95.7144 203.849C95.7344 203.797 95.7415 203.74 95.7348 203.685C95.7363 203.665 95.7319 203.645 95.7221 203.627C95.7124 203.609 95.6977 203.594 95.6798 203.585C95.4248 203.445 94.5248 203.78 93.8748 204.09Z" fill="#00A8A8"/>
<path d="M93.585 204.225C93.567 204.23 93.548 204.23 93.53 204.225C93.5166 204.215 93.5058 204.203 93.4988 204.188C93.4918 204.173 93.4888 204.156 93.49 204.14C93.49 204.07 93.685 202.38 94.63 202.48C94.88 202.505 94.955 202.63 94.97 202.735C95.04 203.175 94.095 204.025 93.62 204.235L93.585 204.225ZM94.555 202.64C93.995 202.64 93.77 203.565 93.7 203.965C94.2 203.675 94.83 203.01 94.79 202.745C94.79 202.745 94.79 202.66 94.61 202.645L94.555 202.64Z" fill="#00A8A8"/>
<path d="M89.4002 112.82L88.4652 114.075C88.3952 114.175 88.5052 114.31 88.6852 114.345L105.11 117.525C105.25 117.525 105.38 117.525 105.4 117.42L105.775 116.05C105.775 115.96 105.69 115.85 105.535 115.82L89.6752 112.75C89.6272 112.737 89.5767 112.737 89.5285 112.749C89.4804 112.761 89.4362 112.786 89.4002 112.82Z" fill="#00A8A8"/>
<path d="M91.24 115L90.815 114.915C90.73 114.915 90.675 114.845 90.69 114.795L91.19 113.02C91.19 112.97 91.29 112.94 91.37 112.955L91.795 113.04C91.88 113.04 91.94 113.11 91.925 113.16L91.425 114.935C91.405 115 91.325 115 91.24 115Z" fill="#263238"/>
<path d="M101.965 117.095L101.54 117.015C101.455 117.015 101.4 116.94 101.415 116.89L101.915 115.12C101.915 115.065 102.01 115.035 102.095 115.055L102.52 115.135C102.6 115.135 102.66 115.21 102.645 115.26L102.145 117.03C102.13 117.085 102.05 117.115 101.965 117.095Z" fill="#263238"/>
</g>
<defs>
<clipPath id="clip0_643_7254">
<rect width="250" height="250" fill="white" transform="translate(0.5)"/>
</clipPath>
</defs>
</svg>
