<svg width="18" height="16" viewBox="0 0 18 16" fill="none" xmlns="http://www.w3.org/2000/svg">
<path fill-rule="evenodd" clip-rule="evenodd" d="M5.21899 0.354004H15.5318C16.4792 0.354004 17.2506 1.13396 17.2506 2.09181V9.73768C17.2506 10.6956 16.4792 11.4755 15.5318 11.4755H5.21899C4.2717 11.4755 3.50024 10.6956 3.50024 9.73768V2.09181C3.50024 1.13396 4.2717 0.354004 5.21899 0.354004ZM15.5318 1.74422H5.21899C5.0293 1.74422 4.87532 1.89987 4.87532 2.09178V8.65269L6.77284 6.7349C7.24242 6.25953 8.00766 6.25953 8.47786 6.7349L9.30974 7.5739L11.8632 4.47526C12.0915 4.19858 12.4256 4.03873 12.7817 4.03671C13.1399 4.04495 13.4734 4.19095 13.7038 4.46409L15.8756 7.02622V2.09181C15.8756 1.8999 15.7216 1.74422 15.5318 1.74422ZM2.61066 10.7448C2.96619 11.8055 3.9452 12.518 5.04583 12.518H15.0265L14.4071 14.5093C14.2318 15.1864 13.6061 15.6459 12.9214 15.6459C12.7878 15.6458 12.6547 15.6285 12.5254 15.5945L1.89421 12.716C1.07406 12.4873 0.585234 11.629 0.799739 10.8011L2.46763 5.17223V9.91141C2.46763 10.1478 2.50276 10.384 2.58662 10.6649L2.61066 10.7448ZM8.31149 3.82936C8.31149 4.59605 7.69492 5.21958 6.93654 5.21958C6.1782 5.21958 5.56146 4.59602 5.56146 3.82936C5.56146 3.0627 6.17817 2.43914 6.93654 2.43914C7.69492 2.43914 8.31149 3.06267 8.31149 3.82936Z" fill="#808080"/>
</svg>
