<svg width="9" height="16" viewBox="0 0 9 16" fill="none" xmlns="http://www.w3.org/2000/svg">
<path d="M7.87907 16C7.80141 16 7.72451 15.9845 7.65275 15.9544C7.58099 15.9242 7.51579 15.88 7.46086 15.8243L0.17311 8.42454C0.0622678 8.31197 0 8.15931 0 8.00013C0 7.84095 0.0622678 7.68828 0.17311 7.57571L7.46086 0.17594C7.51575 0.120179 7.58093 0.0759415 7.65266 0.0457536C7.72439 0.0155657 7.80128 1.85997e-05 7.87893 1.66785e-08C7.95658 -1.85664e-05 8.03347 0.0154918 8.10522 0.0456454C8.17697 0.0757989 8.24216 0.120005 8.29708 0.17574C8.352 0.231476 8.39557 0.297648 8.42531 0.370479C8.45504 0.443311 8.47035 0.521375 8.47037 0.600215C8.47039 0.679055 8.45511 0.757127 8.42541 0.829973C8.39571 0.902818 8.35217 0.969011 8.29728 1.02477L1.42735 7.99993L8.29728 14.9751C8.38002 15.059 8.43638 15.166 8.45921 15.2825C8.48205 15.399 8.47034 15.5197 8.42557 15.6295C8.38079 15.7392 8.30497 15.833 8.20769 15.8989C8.11041 15.9649 7.99605 16.0001 7.87907 16Z" fill="black"/>
</svg>
