<svg width="25" height="24" viewBox="0 0 25 24" fill="none" xmlns="http://www.w3.org/2000/svg">
<path d="M12.5001 23C18.6314 23 23.6018 18.0296 23.6018 11.8983C23.6018 5.76703 18.6314 0.796631 12.5001 0.796631C6.36884 0.796631 1.39844 5.76703 1.39844 11.8983C1.39844 18.0296 6.36884 23 12.5001 23Z" stroke="#00A8A8" stroke-width="1.5"/>
<path d="M13.3739 8.00701C14.6983 6.68256 16.8433 6.68256 18.1678 8.00701C19.4922 9.33146 19.4922 11.4765 18.1678 12.8009L17.2032 13.7655L12.4093 18.5594L7.61537 13.7655L6.65082 12.8009C5.32637 11.4765 5.32637 9.33146 6.65082 8.00701C7.97528 6.68256 10.1203 6.68256 11.4448 8.00701L12.4093 8.97156" stroke="#00A8A8" stroke-width="1.5" stroke-miterlimit="10" stroke-linecap="round" stroke-linejoin="round"/>
</svg>
