<svg width="25" height="24" viewBox="0 0 25 24" fill="none" xmlns="http://www.w3.org/2000/svg">
<path d="M12.5 23.0003C18.6313 23.0003 23.6017 18.0299 23.6017 11.8986C23.6017 5.76727 18.6313 0.796875 12.5 0.796875C6.36871 0.796875 1.39831 5.76727 1.39831 11.8986C1.39831 18.0299 6.36871 23.0003 12.5 23.0003Z" stroke="#00A8A8" stroke-width="1.5"/>
<g clip-path="url(#clip0_575_29060)">
<path d="M16.9409 6.34747H16.3858V5.79239C16.3858 5.64517 16.3274 5.50398 16.2233 5.39989C16.1192 5.29579 15.978 5.2373 15.8308 5.2373C15.6835 5.2373 15.5423 5.29579 15.4382 5.39989C15.3341 5.50398 15.2757 5.64517 15.2757 5.79239V6.34747H9.72482V5.79239C9.72482 5.64517 9.66634 5.50398 9.56224 5.39989C9.45814 5.29579 9.31695 5.2373 9.16973 5.2373C9.02252 5.2373 8.88133 5.29579 8.77723 5.39989C8.67313 5.50398 8.61465 5.64517 8.61465 5.79239V6.34747H8.05956C7.47069 6.34747 6.90594 6.5814 6.48955 6.9978C6.07315 7.41419 5.83923 7.97894 5.83923 8.56781V16.339C5.83923 16.9279 6.07315 17.4926 6.48955 17.909C6.90594 18.3254 7.47069 18.5593 8.05956 18.5593H16.9409C17.5298 18.5593 18.0945 18.3254 18.5109 17.909C18.9273 17.4926 19.1613 16.9279 19.1613 16.339V8.56781C19.1613 7.97894 18.9273 7.41419 18.5109 6.9978C18.0945 6.5814 17.5298 6.34747 16.9409 6.34747ZM18.0511 16.339C18.0511 16.6334 17.9341 16.9158 17.7259 17.124C17.5177 17.3322 17.2354 17.4492 16.9409 17.4492H8.05956C7.76513 17.4492 7.48275 17.3322 7.27456 17.124C7.06636 16.9158 6.9494 16.6334 6.9494 16.339V8.56781C6.9494 8.27338 7.06636 7.991 7.27456 7.7828C7.48275 7.57461 7.76513 7.45764 8.05956 7.45764H8.61465V8.01273C8.61465 8.15995 8.67313 8.30113 8.77723 8.40523C8.88133 8.50933 9.02252 8.56781 9.16973 8.56781C9.31695 8.56781 9.45814 8.50933 9.56224 8.40523C9.66634 8.30113 9.72482 8.15995 9.72482 8.01273V7.45764H15.2757V8.01273C15.2757 8.15995 15.3341 8.30113 15.4382 8.40523C15.5423 8.50933 15.6835 8.56781 15.8308 8.56781C15.978 8.56781 16.1192 8.50933 16.2233 8.40523C16.3274 8.30113 16.3858 8.15995 16.3858 8.01273V7.45764H16.9409C17.2354 7.45764 17.5177 7.57461 17.7259 7.7828C17.9341 7.991 18.0511 8.27338 18.0511 8.56781V16.339Z" fill="#00A8A8"/>
<path d="M16.3858 9.12305H8.61465C8.46743 9.12305 8.32624 9.18153 8.22214 9.28563C8.11804 9.38973 8.05956 9.53091 8.05956 9.67813C8.05956 9.82535 8.11804 9.96654 8.22214 10.0706C8.32624 10.1747 8.46743 10.2332 8.61465 10.2332H16.3858C16.5331 10.2332 16.6742 10.1747 16.7783 10.0706C16.8824 9.96654 16.9409 9.82535 16.9409 9.67813C16.9409 9.53091 16.8824 9.38973 16.7783 9.28563C16.6742 9.18153 16.5331 9.12305 16.3858 9.12305Z" fill="#00A8A8"/>
<path d="M9.72482 11.8984H8.61465C8.46743 11.8984 8.32624 11.9569 8.22214 12.061C8.11804 12.1651 8.05956 12.3063 8.05956 12.4535C8.05956 12.6007 8.11804 12.7419 8.22214 12.846C8.32624 12.9501 8.46743 13.0086 8.61465 13.0086H9.72482C9.87203 13.0086 10.0132 12.9501 10.1173 12.846C10.2214 12.7419 10.2799 12.6007 10.2799 12.4535C10.2799 12.3063 10.2214 12.1651 10.1173 12.061C10.0132 11.9569 9.87203 11.8984 9.72482 11.8984Z" fill="#00A8A8"/>
<path d="M9.72482 14.6738H8.61465C8.46743 14.6738 8.32624 14.7323 8.22214 14.8364C8.11804 14.9405 8.05956 15.0817 8.05956 15.2289C8.05956 15.3761 8.11804 15.5173 8.22214 15.6214C8.32624 15.7255 8.46743 15.784 8.61465 15.784H9.72482C9.87203 15.784 10.0132 15.7255 10.1173 15.6214C10.2214 15.5173 10.2799 15.3761 10.2799 15.2289C10.2799 15.0817 10.2214 14.9405 10.1173 14.8364C10.0132 14.7323 9.87203 14.6738 9.72482 14.6738Z" fill="#00A8A8"/>
<path d="M13.0553 11.8984H11.9452C11.7979 11.8984 11.6568 11.9569 11.5527 12.061C11.4486 12.1651 11.3901 12.3063 11.3901 12.4535C11.3901 12.6007 11.4486 12.7419 11.5527 12.846C11.6568 12.9501 11.7979 13.0086 11.9452 13.0086H13.0553C13.2025 13.0086 13.3437 12.9501 13.4478 12.846C13.5519 12.7419 13.6104 12.6007 13.6104 12.4535C13.6104 12.3063 13.5519 12.1651 13.4478 12.061C13.3437 11.9569 13.2025 11.8984 13.0553 11.8984Z" fill="#00A8A8"/>
<path d="M13.0553 14.6738H11.9452C11.7979 14.6738 11.6568 14.7323 11.5527 14.8364C11.4486 14.9405 11.3901 15.0817 11.3901 15.2289C11.3901 15.3761 11.4486 15.5173 11.5527 15.6214C11.6568 15.7255 11.7979 15.784 11.9452 15.784H13.0553C13.2025 15.784 13.3437 15.7255 13.4478 15.6214C13.5519 15.5173 13.6104 15.3761 13.6104 15.2289C13.6104 15.0817 13.5519 14.9405 13.4478 14.8364C13.3437 14.7323 13.2025 14.6738 13.0553 14.6738Z" fill="#00A8A8"/>
<path d="M16.3858 11.8984H15.2757C15.1284 11.8984 14.9873 11.9569 14.8832 12.061C14.7791 12.1651 14.7206 12.3063 14.7206 12.4535C14.7206 12.6007 14.7791 12.7419 14.8832 12.846C14.9873 12.9501 15.1284 13.0086 15.2757 13.0086H16.3858C16.5331 13.0086 16.6742 12.9501 16.7783 12.846C16.8824 12.7419 16.9409 12.6007 16.9409 12.4535C16.9409 12.3063 16.8824 12.1651 16.7783 12.061C16.6742 11.9569 16.5331 11.8984 16.3858 11.8984Z" fill="#00A8A8"/>
<path d="M16.3858 14.6738H15.2757C15.1284 14.6738 14.9873 14.7323 14.8832 14.8364C14.7791 14.9405 14.7206 15.0817 14.7206 15.2289C14.7206 15.3761 14.7791 15.5173 14.8832 15.6214C14.9873 15.7255 15.1284 15.784 15.2757 15.784H16.3858C16.5331 15.784 16.6742 15.7255 16.7783 15.6214C16.8824 15.5173 16.9409 15.3761 16.9409 15.2289C16.9409 15.0817 16.8824 14.9405 16.7783 14.8364C16.6742 14.7323 16.5331 14.6738 16.3858 14.6738Z" fill="#00A8A8"/>
</g>
<defs>
<clipPath id="clip0_575_29060">
<rect width="13.322" height="13.322" fill="white" transform="translate(5.83923 5.2373)"/>
</clipPath>
</defs>
</svg>
