<svg width="20" height="14" viewBox="0 0 20 14" fill="none" xmlns="http://www.w3.org/2000/svg">
<path d="M18.3337 5.33341H1.66699M1.66699 3.83341L1.66699 10.1667C1.66699 11.1002 1.66699 11.5669 1.84865 11.9234C2.00844 12.237 2.2634 12.492 2.57701 12.6518C2.93353 12.8334 3.40024 12.8334 4.33366 12.8334L15.667 12.8334C16.6004 12.8334 17.0671 12.8334 17.4236 12.6518C17.7372 12.492 17.9922 12.237 18.152 11.9234C18.3337 11.5669 18.3337 11.1002 18.3337 10.1667V3.83342C18.3337 2.89999 18.3337 2.43328 18.152 2.07677C17.9922 1.76316 17.7372 1.50819 17.4236 1.34841C17.0671 1.16675 16.6004 1.16675 15.667 1.16675L4.33366 1.16675C3.40024 1.16675 2.93353 1.16675 2.57701 1.3484C2.2634 1.50819 2.00844 1.76316 1.84865 2.07676C1.66699 2.43328 1.66699 2.89999 1.66699 3.83341Z" stroke="black" stroke-width="2" stroke-linecap="round" stroke-linejoin="round"/>
</svg>
