<svg width="11" height="12" viewBox="0 0 11 12" fill="none" xmlns="http://www.w3.org/2000/svg">
<g clip-path="url(#clip0_325_26598)">
<path d="M5.04199 2.3335H1.83366C1.59054 2.3335 1.35739 2.43007 1.18548 2.60198C1.01357 2.77389 0.916992 3.00705 0.916992 3.25016V9.66683C0.916992 9.90994 1.01357 10.1431 1.18548 10.315C1.35739 10.4869 1.59054 10.5835 1.83366 10.5835H8.25033C8.49344 10.5835 8.7266 10.4869 8.89851 10.315C9.07042 10.1431 9.16699 9.90994 9.16699 9.66683V6.4585" stroke="black" stroke-linecap="round" stroke-linejoin="round"/>
<path d="M8.47949 1.64561C8.66183 1.46328 8.90913 1.36084 9.16699 1.36084C9.42485 1.36084 9.67216 1.46328 9.85449 1.64561C10.0368 1.82795 10.1393 2.07525 10.1393 2.33311C10.1393 2.59097 10.0368 2.83828 9.85449 3.02061L5.50033 7.37478L3.66699 7.83311L4.12533 5.99978L8.47949 1.64561Z" stroke="black" stroke-linecap="round" stroke-linejoin="round"/>
</g>
<defs>
<clipPath id="clip0_325_26598">
<rect width="11" height="11" fill="white" transform="translate(0 0.5)"/>
</clipPath>
</defs>
</svg>
