<svg width="22" height="23" viewBox="0 0 22 23" fill="none" xmlns="http://www.w3.org/2000/svg">
<path d="M11 13.1667V9.375M11 5.58333H11.0108M8.725 18.8L10.3067 20.9089C10.5419 21.2225 10.6595 21.3793 10.8037 21.4354C10.9299 21.4845 11.0701 21.4845 11.1963 21.4354C11.3405 21.3793 11.4581 21.2225 11.6933 20.9089L13.275 18.8C13.5926 18.3766 13.7514 18.1648 13.945 18.0032C14.2033 17.7877 14.5082 17.6352 14.8355 17.558C15.0811 17.5 15.3457 17.5 15.875 17.5C17.3893 17.5 18.1465 17.5 18.7437 17.2526C19.5401 16.9228 20.1728 16.2901 20.5026 15.4937C20.75 14.8965 20.75 14.1393 20.75 12.625V6.45C20.75 4.62983 20.75 3.71974 20.3958 3.02453C20.0842 2.413 19.587 1.91582 18.9755 1.60423C18.2803 1.25 17.3702 1.25 15.55 1.25H6.45C4.62983 1.25 3.71974 1.25 3.02453 1.60423C2.413 1.91582 1.91582 2.413 1.60423 3.02453C1.25 3.71974 1.25 4.62983 1.25 6.45V12.625C1.25 14.1393 1.25 14.8965 1.49739 15.4937C1.82725 16.2901 2.45994 16.9228 3.25628 17.2526C3.85353 17.5 4.61069 17.5 6.125 17.5C6.65429 17.5 6.91894 17.5 7.16447 17.558C7.49183 17.6352 7.79671 17.7877 8.05495 18.0032C8.24864 18.1648 8.40742 18.3766 8.725 18.8Z" stroke="black" stroke-width="2" stroke-linecap="round" stroke-linejoin="round"/>
</svg>
