<svg width="50" height="51" viewBox="0 0 50 51" fill="none" xmlns="http://www.w3.org/2000/svg">
<rect x="0.5" y="0.5" width="49" height="50" rx="24.5" stroke="#808080"/>
<path d="M13.75 20.25H20.4304C20.7659 21.5452 21.9343 22.5088 23.333 22.5088C24.7318 22.5088 25.9001 21.5452 26.2357 20.25H36.25C36.6641 20.25 37 19.9141 37 19.5C37 19.0859 36.6641 18.75 36.25 18.75H26.2357C25.9001 17.4548 24.7318 16.4912 23.333 16.4912C21.9343 16.4912 20.7659 17.4548 20.4304 18.75H13.75C13.3359 18.75 13 19.0859 13 19.5C13 19.9141 13.3359 20.25 13.75 20.25ZM23.333 17.9912C24.165 17.9912 24.8418 18.668 24.8418 19.5C24.8418 20.332 24.165 21.0088 23.333 21.0088C22.501 21.0088 21.8242 20.332 21.8242 19.5C21.8242 18.668 22.501 17.9912 23.333 17.9912Z" fill="#808080"/>
<path d="M36.25 24.75H34.6439C34.3083 23.4548 33.14 22.4912 31.7412 22.4912C30.3425 22.4912 29.1741 23.4548 28.8386 24.75H13.75C13.3359 24.75 13 25.0859 13 25.5C13 25.9141 13.3359 26.25 13.75 26.25H28.8386C29.1741 27.5452 30.3425 28.5088 31.7412 28.5088C33.14 28.5088 34.3083 27.5452 34.6439 26.25H36.25C36.6641 26.25 37 25.9141 37 25.5C37 25.0859 36.6641 24.75 36.25 24.75ZM31.7412 27.0088C30.9092 27.0088 30.2324 26.332 30.2324 25.5C30.2324 24.668 30.9092 23.9912 31.7412 23.9912C32.5732 23.9912 33.25 24.668 33.25 25.5C33.25 26.332 32.5732 27.0088 31.7412 27.0088Z" fill="#808080"/>
<path d="M36.25 30.75H21.7181C21.3826 29.4548 20.2144 28.4912 18.8164 28.4912C17.4177 28.4912 16.2493 29.4548 15.9138 30.75H13.75C13.3359 30.75 13 31.0859 13 31.5C13 31.9141 13.3359 32.25 13.75 32.25H15.9138C16.2493 33.5452 17.4177 34.5088 18.8164 34.5088C20.2144 34.5088 21.3826 33.5452 21.7181 32.25H36.25C36.6641 32.25 37 31.9141 37 31.5C37 31.0859 36.6641 30.75 36.25 30.75ZM18.8164 33.0088C17.9844 33.0088 17.3076 32.332 17.3076 31.5C17.3076 30.668 17.9844 29.9912 18.8164 29.9912C19.6475 29.9912 20.3242 30.668 20.3242 31.5C20.3242 32.332 19.6475 33.0088 18.8164 33.0088Z" fill="#808080"/>
</svg>
