<svg width="26" height="26" viewBox="0 0 26 26" fill="none" xmlns="http://www.w3.org/2000/svg">
<path d="M13 25C19.6274 25 25 19.6274 25 13C25 6.37258 19.6274 1 13 1C6.37258 1 1 6.37258 1 13C1 19.6274 6.37258 25 13 25Z" fill="#00A8A8" stroke="#00A8A8" stroke-width="1.5"/>
<path d="M17.8 6.9998H17.2V6.3998C17.2 6.24067 17.1368 6.08806 17.0243 5.97554C16.9117 5.86302 16.7591 5.7998 16.6 5.7998C16.4409 5.7998 16.2883 5.86302 16.1757 5.97554C16.0632 6.08806 16 6.24067 16 6.3998V6.9998H10V6.3998C10 6.24067 9.93679 6.08806 9.82427 5.97554C9.71174 5.86302 9.55913 5.7998 9.4 5.7998C9.24087 5.7998 9.08826 5.86302 8.97574 5.97554C8.86322 6.08806 8.8 6.24067 8.8 6.3998V6.9998H8.2C7.56348 6.9998 6.95303 7.25266 6.50295 7.70275C6.05286 8.15284 5.8 8.76328 5.8 9.3998L5.8 17.7998C5.8 18.4363 6.05286 19.0468 6.50295 19.4969C6.95303 19.9469 7.56348 20.1998 8.2 20.1998H17.8C18.4365 20.1998 19.047 19.9469 19.4971 19.4969C19.9471 19.0468 20.2 18.4363 20.2 17.7998V9.3998C20.2 8.76328 19.9471 8.15284 19.4971 7.70275C19.047 7.25266 18.4365 6.9998 17.8 6.9998ZM19 17.7998C19 18.1181 18.8736 18.4233 18.6485 18.6483C18.4235 18.8734 18.1183 18.9998 17.8 18.9998H8.2C7.88174 18.9998 7.57652 18.8734 7.35147 18.6483C7.12643 18.4233 7 18.1181 7 17.7998V9.3998C7 9.08154 7.12643 8.77632 7.35147 8.55128C7.57652 8.32623 7.88174 8.1998 8.2 8.1998H8.8V8.7998C8.8 8.95893 8.86322 9.11155 8.97574 9.22407C9.08826 9.33659 9.24087 9.3998 9.4 9.3998C9.55913 9.3998 9.71174 9.33659 9.82427 9.22407C9.93679 9.11155 10 8.95893 10 8.7998V8.1998H16V8.7998C16 8.95893 16.0632 9.11155 16.1757 9.22407C16.2883 9.33659 16.4409 9.3998 16.6 9.3998C16.7591 9.3998 16.9117 9.33659 17.0243 9.22407C17.1368 9.11155 17.2 8.95893 17.2 8.7998V8.1998H17.8C18.1183 8.1998 18.4235 8.32623 18.6485 8.55128C18.8736 8.77632 19 9.08154 19 9.3998V17.7998Z" fill="white"/>
<path d="M17.2 10H8.8C8.64087 10 8.48825 10.0632 8.37573 10.1757C8.26321 10.2883 8.2 10.4409 8.2 10.6C8.2 10.7591 8.26321 10.9117 8.37573 11.0243C8.48825 11.1368 8.64087 11.2 8.8 11.2H17.2C17.3591 11.2 17.5117 11.1368 17.6243 11.0243C17.7368 10.9117 17.8 10.7591 17.8 10.6C17.8 10.4409 17.7368 10.2883 17.6243 10.1757C17.5117 10.0632 17.3591 10 17.2 10Z" fill="white"/>
<path d="M10 13H8.8C8.64087 13 8.48825 13.0632 8.37573 13.1757C8.26321 13.2883 8.2 13.4409 8.2 13.6C8.2 13.7591 8.26321 13.9117 8.37573 14.0243C8.48825 14.1368 8.64087 14.2 8.8 14.2H10C10.1591 14.2 10.3117 14.1368 10.4243 14.0243C10.5368 13.9117 10.6 13.7591 10.6 13.6C10.6 13.4409 10.5368 13.2883 10.4243 13.1757C10.3117 13.0632 10.1591 13 10 13Z" fill="white"/>
<path d="M10 16H8.8C8.64087 16 8.48825 16.0632 8.37573 16.1757C8.26321 16.2883 8.2 16.4409 8.2 16.6C8.2 16.7591 8.26321 16.9117 8.37573 17.0243C8.48825 17.1368 8.64087 17.2 8.8 17.2H10C10.1591 17.2 10.3117 17.1368 10.4243 17.0243C10.5368 16.9117 10.6 16.7591 10.6 16.6C10.6 16.4409 10.5368 16.2883 10.4243 16.1757C10.3117 16.0632 10.1591 16 10 16Z" fill="white"/>
<path d="M13.6 13H12.4C12.2409 13 12.0883 13.0632 11.9757 13.1757C11.8632 13.2883 11.8 13.4409 11.8 13.6C11.8 13.7591 11.8632 13.9117 11.9757 14.0243C12.0883 14.1368 12.2409 14.2 12.4 14.2H13.6C13.7591 14.2 13.9117 14.1368 14.0243 14.0243C14.1368 13.9117 14.2 13.7591 14.2 13.6C14.2 13.4409 14.1368 13.2883 14.0243 13.1757C13.9117 13.0632 13.7591 13 13.6 13Z" fill="white"/>
<path d="M13.6 16H12.4C12.2409 16 12.0883 16.0632 11.9757 16.1757C11.8632 16.2883 11.8 16.4409 11.8 16.6C11.8 16.7591 11.8632 16.9117 11.9757 17.0243C12.0883 17.1368 12.2409 17.2 12.4 17.2H13.6C13.7591 17.2 13.9117 17.1368 14.0243 17.0243C14.1368 16.9117 14.2 16.7591 14.2 16.6C14.2 16.4409 14.1368 16.2883 14.0243 16.1757C13.9117 16.0632 13.7591 16 13.6 16Z" fill="white"/>
<path d="M17.2 13H16C15.8409 13 15.6883 13.0632 15.5757 13.1757C15.4632 13.2883 15.4 13.4409 15.4 13.6C15.4 13.7591 15.4632 13.9117 15.5757 14.0243C15.6883 14.1368 15.8409 14.2 16 14.2H17.2C17.3591 14.2 17.5117 14.1368 17.6243 14.0243C17.7368 13.9117 17.8 13.7591 17.8 13.6C17.8 13.4409 17.7368 13.2883 17.6243 13.1757C17.5117 13.0632 17.3591 13 17.2 13Z" fill="white"/>
<path d="M17.2 16H16C15.8409 16 15.6883 16.0632 15.5757 16.1757C15.4632 16.2883 15.4 16.4409 15.4 16.6C15.4 16.7591 15.4632 16.9117 15.5757 17.0243C15.6883 17.1368 15.8409 17.2 16 17.2H17.2C17.3591 17.2 17.5117 17.1368 17.6243 17.0243C17.7368 16.9117 17.8 16.7591 17.8 16.6C17.8 16.4409 17.7368 16.2883 17.6243 16.1757C17.5117 16.0632 17.3591 16 17.2 16Z" fill="white"/>
</svg>
