<svg width="22" height="22" viewBox="0 0 22 22" fill="none" xmlns="http://www.w3.org/2000/svg">
<path d="M1.35137 12.2135C0.998355 9.9162 0.821845 8.76763 1.25615 7.74938C1.69045 6.73112 2.65402 6.03443 4.58113 4.64106L6.02098 3.6C8.41828 1.86667 9.61697 1 11 1C12.3831 1 13.5817 1.86667 15.979 3.6L17.4189 4.64106C19.346 6.03443 20.3096 6.73112 20.7439 7.74938C21.1782 8.76763 21.0017 9.9162 20.6486 12.2135L20.3476 14.1724C19.8472 17.4289 19.5969 19.0572 18.429 20.0286C17.2611 21 15.5537 21 12.1388 21H9.86117C6.44633 21 4.73889 21 3.57098 20.0286C2.40307 19.0572 2.15285 17.4289 1.65241 14.1724L1.35137 12.2135Z" fill="#00A8A8" stroke="#00A8A8" stroke-width="2" stroke-linejoin="round"/>
<path d="M13.9996 16C13.2001 16.6224 12.1499 17 10.9996 17C9.8494 17 8.79915 16.6224 7.99962 16" stroke="white" stroke-width="1.5" stroke-linecap="round"/>
</svg>
