<svg width="26" height="26" viewBox="0 0 26 26" fill="none" xmlns="http://www.w3.org/2000/svg">
<path d="M13 1C6.37258 1 1 6.37258 1 13C1 19.6274 6.37258 25 13 25C19.6274 25 25 19.6274 25 13C25 6.37258 19.6274 1 13 1Z" fill="#00A8A8" stroke="#00A8A8" stroke-width="1.5" stroke-linecap="round" stroke-linejoin="round"/>
<path d="M3.87977 20.2003C3.87977 20.2003 6.50993 17.3203 12.9997 17.3203C19.4895 17.3203 22.1198 20.2003 22.1198 20.2003" fill="#00A8A8"/>
<path d="M3.87977 20.2003C3.87977 20.2003 6.50993 17.3203 12.9997 17.3203C19.4895 17.3203 22.1198 20.2003 22.1198 20.2003" stroke="white" stroke-width="1.5" stroke-linecap="round" stroke-linejoin="round"/>
<path d="M13.0002 13.4798C14.856 13.4798 16.3602 11.7606 16.3602 9.6398C16.3602 7.51904 14.856 5.7998 13.0002 5.7998C11.1445 5.7998 9.64024 7.51904 9.64024 9.6398C9.64024 11.7606 11.1445 13.4798 13.0002 13.4798Z" fill="#00A8A8" stroke="white" stroke-width="1.5" stroke-linecap="round" stroke-linejoin="round"/>
</svg>
