<svg width="26" height="26" viewBox="0 0 26 26" fill="none" xmlns="http://www.w3.org/2000/svg">
<path d="M13 25C19.6274 25 25 19.6274 25 13C25 6.37258 19.6274 1 13 1C6.37258 1 1 6.37258 1 13C1 19.6274 6.37258 25 13 25Z" fill="#00A8A8" stroke="#00A8A8" stroke-width="1.5"/>
<path d="M13.9447 8.79344C15.3763 7.36182 17.6949 7.36182 19.1265 8.79344C20.5581 10.2251 20.5581 12.5437 19.1265 13.9753L18.0839 15.0179L12.9021 20.1997L7.72023 15.0179L6.67764 13.9753C5.24602 12.5437 5.24602 10.2251 6.67764 8.79344C8.10926 7.36182 10.4279 7.36182 11.8595 8.79344L12.9021 9.83604" fill="#00A8A8"/>
<path d="M13.9447 8.79344C15.3763 7.36182 17.6949 7.36182 19.1265 8.79344C20.5581 10.2251 20.5581 12.5437 19.1265 13.9753L18.0839 15.0179L12.9021 20.1997L7.72023 15.0179L6.67764 13.9753C5.24602 12.5437 5.24602 10.2251 6.67764 8.79344C8.10926 7.36182 10.4279 7.36182 11.8595 8.79344L12.9021 9.83604" stroke="white" stroke-width="1.5" stroke-miterlimit="10" stroke-linecap="round" stroke-linejoin="round"/>
</svg>
