<svg width="18" height="18" viewBox="0 0 18 18" fill="none" xmlns="http://www.w3.org/2000/svg">
<path fill-rule="evenodd" clip-rule="evenodd" d="M12.7658 0.783283C13.62 -0.0709916 15.005 -0.070989 15.8593 0.783283L17.2165 2.14052C18.0708 2.99478 18.0708 4.37983 17.2165 5.23411L6.45448 15.9962C6.1916 16.2591 5.86608 16.4506 5.50863 16.5527L1.44508 17.7137C1.1177 17.8073 0.765366 17.7159 0.524616 17.4752C0.283866 17.2344 0.192562 16.8822 0.28609 16.5548L1.44712 12.4912C1.54924 12.1338 1.74078 11.8082 2.00365 11.5453L12.7658 0.783283ZM14.5335 2.10911C14.4114 1.98707 14.2135 1.98707 14.0915 2.10911L12.5133 3.68731L14.3125 5.48648L15.8908 3.90828C16.0128 3.78625 16.0128 3.58838 15.8908 3.46635L14.5335 2.10911ZM12.9867 6.81231L11.1875 5.01313L3.32948 12.8712C3.29193 12.9087 3.26457 12.9552 3.24997 13.0063L2.55254 15.4473L4.99353 14.7498C5.04459 14.7353 5.09109 14.7079 5.12865 14.6703L12.9867 6.81231Z" fill="black"/>
</svg>
