<svg width="12" height="14" viewBox="0 0 12 14" fill="none" xmlns="http://www.w3.org/2000/svg">
<path d="M11.3332 12.7285C11.3332 11.7981 11.3332 11.3329 11.2183 10.9544C10.9598 10.1021 10.2929 9.43521 9.4406 9.17667C9.06207 9.06185 8.59688 9.06185 7.6665 9.06185H4.33317C3.4028 9.06185 2.93761 9.06185 2.55908 9.17667C1.70681 9.43521 1.03986 10.1021 0.78133 10.9544C0.666504 11.3329 0.666504 11.7981 0.666504 12.7285M8.99984 3.72852C8.99984 5.38537 7.65669 6.72852 5.99984 6.72852C4.34298 6.72852 2.99984 5.38537 2.99984 3.72852C2.99984 2.07166 4.34298 0.728516 5.99984 0.728516C7.65669 0.728516 8.99984 2.07166 8.99984 3.72852Z" stroke="#808080" stroke-linecap="round" stroke-linejoin="round"/>
</svg>
