<svg width="20" height="22" viewBox="0 0 20 22" fill="none" xmlns="http://www.w3.org/2000/svg">
<path d="M18.6663 20.75C18.6663 19.2381 18.6663 18.4822 18.4797 17.8671C18.0596 16.4822 16.9758 15.3984 15.5909 14.9783C14.9758 14.7917 14.2199 14.7917 12.708 14.7917H7.29135C5.77948 14.7917 5.02355 14.7917 4.40844 14.9783C3.0235 15.3984 1.93972 16.4822 1.5196 17.8671C1.33301 18.4822 1.33301 19.2381 1.33301 20.75M14.8747 6.125C14.8747 8.81739 12.6921 11 9.99967 11C7.30729 11 5.12467 8.81739 5.12467 6.125C5.12467 3.43261 7.30729 1.25 9.99967 1.25C12.6921 1.25 14.8747 3.43261 14.8747 6.125Z" stroke="black" stroke-width="2" stroke-linecap="round" stroke-linejoin="round"/>
</svg>
