<svg width="16" height="15" viewBox="0 0 16 15" fill="none" xmlns="http://www.w3.org/2000/svg">
<path d="M14.6665 10.7807V12.7807C14.6672 12.9664 14.6292 13.1502 14.5548 13.3203C14.4804 13.4904 14.3713 13.6431 14.2345 13.7686C14.0977 13.8941 13.9362 13.9897 13.7603 14.0492C13.5844 14.1087 13.398 14.1308 13.2131 14.114C11.1617 13.8911 9.19113 13.1901 7.45979 12.0674C5.84901 11.0438 4.48335 9.67816 3.45979 8.06738C2.33311 6.32819 1.63195 4.34805 1.41313 2.28738C1.39647 2.10303 1.41838 1.91722 1.47746 1.7418C1.53654 1.56637 1.63151 1.40518 1.7563 1.26846C1.8811 1.13175 2.033 1.02252 2.20232 0.94773C2.37164 0.872939 2.55469 0.834223 2.73979 0.834049H4.73979C5.06333 0.830865 5.37699 0.945435 5.6223 1.1564C5.86761 1.36737 6.02784 1.66035 6.07313 1.98072C6.15754 2.62076 6.31409 3.2492 6.53979 3.85405C6.62949 4.09266 6.6489 4.35199 6.59573 4.6013C6.54256 4.85061 6.41903 5.07946 6.23979 5.26072L5.39313 6.10738C6.34216 7.77641 7.7241 9.15835 9.39313 10.1074L10.2398 9.26072C10.4211 9.08147 10.6499 8.95795 10.8992 8.90478C11.1485 8.85161 11.4078 8.87102 11.6465 8.96072C12.2513 9.18642 12.8797 9.34297 13.5198 9.42738C13.8436 9.47307 14.1394 9.63619 14.3508 9.88571C14.5622 10.1352 14.6746 10.4538 14.6665 10.7807Z" stroke="black" stroke-width="1.5" stroke-linecap="round" stroke-linejoin="round"/>
</svg>
