<svg width="19" height="20" viewBox="0 0 19 20" fill="none" xmlns="http://www.w3.org/2000/svg">
<path fill-rule="evenodd" clip-rule="evenodd" d="M10.1667 0.166573C9.73306 0.0278096 9.26694 0.0278089 8.8333 0.166572L2.2708 2.26657C1.36479 2.55649 0.75 3.39872 0.75 4.34999V8.75006C0.75 10.7076 1.14904 12.7281 2.379 14.6027C3.60789 16.4759 5.61045 18.1185 8.66885 19.4211C9.19886 19.6469 9.80114 19.6469 10.3312 19.4211C13.3895 18.1185 15.3921 16.4759 16.621 14.6027C17.851 12.7281 18.25 10.7076 18.25 8.75006V4.34999C18.25 3.39872 17.6353 2.55649 16.7292 2.26657L10.1667 0.166573ZM9.40476 1.95237C9.4667 1.93254 9.5333 1.93254 9.59524 1.95237L16.1577 4.05237C16.2871 4.09378 16.375 4.21411 16.375 4.34999V8.75006C16.375 10.448 16.0316 12.083 15.0533 13.5742C14.0739 15.0671 12.402 16.5011 9.59641 17.6961C9.53583 17.7219 9.46418 17.7219 9.40359 17.6961C6.59798 16.5011 4.92618 15.0671 3.94671 13.5742C2.96831 12.083 2.625 10.448 2.625 8.75006V4.34999C2.625 4.21411 2.71283 4.09378 2.84226 4.05237L9.40476 1.95237ZM11.375 8.12509C11.375 8.81911 10.9979 9.42506 10.4375 9.74924V12.8126C10.4375 13.3304 10.0178 13.7501 9.5 13.7501C8.98224 13.7501 8.5625 13.3304 8.5625 12.8126V9.74924C8.00206 9.42506 7.625 8.81911 7.625 8.12509C7.625 7.08956 8.46446 6.25009 9.5 6.25009C10.5355 6.25009 11.375 7.08956 11.375 8.12509Z" fill="black"/>
</svg>
