<svg width="25" height="24" viewBox="0 0 25 24" fill="none" xmlns="http://www.w3.org/2000/svg">
<path d="M12.5 0.796875C6.3687 0.796875 1.39831 5.76727 1.39831 11.8986C1.39831 18.0298 6.3687 23.0003 12.5 23.0003C18.6312 23.0003 23.6017 18.0298 23.6017 11.8986C23.6017 5.76727 18.6312 0.796875 12.5 0.796875Z" stroke="#00A8A8" stroke-width="1.5" stroke-linecap="round" stroke-linejoin="round"/>
<path d="M4.06286 18.5599C4.06286 18.5599 6.49613 15.8955 12.5001 15.8955C18.5041 15.8955 20.9374 18.5599 20.9374 18.5599" stroke="#00A8A8" stroke-width="1.5" stroke-linecap="round" stroke-linejoin="round"/>
<path d="M12.5004 12.3424C14.2172 12.3424 15.6089 10.7519 15.6089 8.78985C15.6089 6.82784 14.2172 5.2373 12.5004 5.2373C10.7836 5.2373 9.39196 6.82784 9.39196 8.78985C9.39196 10.7519 10.7836 12.3424 12.5004 12.3424Z" stroke="#00A8A8" stroke-width="1.5" stroke-linecap="round" stroke-linejoin="round"/>
</svg>
