<svg width="14" height="16" viewBox="0 0 14 16" fill="none" xmlns="http://www.w3.org/2000/svg">
<path d="M5.6958 13.0624C6.20166 12.7586 6.78063 12.5981 7.37071 12.5981C7.96079 12.5981 8.53976 12.7586 9.04562 13.0624" stroke="#DC5050" stroke-linecap="round" stroke-linejoin="round"/>
<path d="M7.37061 1.45703V14.457" stroke="#DC5050" stroke-linecap="round" stroke-linejoin="round"/>
<path d="M13 4.70874L1.7417 11.2087" stroke="#DC5050" stroke-linecap="round" stroke-linejoin="round"/>
<path d="M1.7417 4.70874L13 11.2087" stroke="#DC5050" stroke-linecap="round" stroke-linejoin="round"/>
<path d="M2.11084 6.85247C2.62698 6.56623 3.0555 6.14495 3.3505 5.63377C3.6455 5.1226 3.79586 4.54079 3.78546 3.95068" stroke="#DC5050" stroke-linecap="round" stroke-linejoin="round"/>
<path d="M2.11084 9.0542C2.62698 9.34044 3.0555 9.76172 3.3505 10.2729C3.6455 10.7841 3.79586 11.3659 3.78546 11.956" stroke="#DC5050" stroke-linecap="round" stroke-linejoin="round"/>
<path d="M12.6307 6.85247C12.1146 6.56623 11.686 6.14495 11.391 5.63377C11.096 5.1226 10.9457 4.54079 10.9561 3.95068" stroke="#DC5050" stroke-linecap="round" stroke-linejoin="round"/>
<path d="M12.6307 9.0542C12.1146 9.34044 11.686 9.76172 11.391 10.2729C11.096 10.7841 10.9457 11.3659 10.9561 11.956" stroke="#DC5050" stroke-linecap="round" stroke-linejoin="round"/>
<path d="M9.04562 2.84814C8.54013 3.15281 7.96092 3.31337 7.37071 3.31243C6.78051 3.31337 6.20129 3.15281 5.6958 2.84814" stroke="#DC5050" stroke-linecap="round" stroke-linejoin="round"/>
</svg>
