<svg width="24" height="26" viewBox="0 0 24 26" fill="none" xmlns="http://www.w3.org/2000/svg">
<path fill-rule="evenodd" clip-rule="evenodd" d="M12.8667 0.216349C12.303 0.0359572 11.697 0.0359562 11.1333 0.216348L2.60204 2.94634C1.42422 3.32325 0.625 4.41814 0.625 5.6548V11.3749C0.625 13.9197 1.14375 16.5464 2.7427 18.9834C4.34025 21.4184 6.94359 23.5538 10.9195 25.2473C11.6085 25.5407 12.3915 25.5407 13.0805 25.2473C17.0564 23.5538 19.6598 21.4184 21.2573 18.9834C22.8563 16.5464 23.375 13.9197 23.375 11.3749V5.6548C23.375 4.41814 22.5758 3.32325 21.398 2.94634L12.8667 0.216349ZM11.8762 2.53788C11.9567 2.51211 12.0433 2.51211 12.1238 2.53788L20.6551 5.26788C20.8233 5.32172 20.9375 5.47814 20.9375 5.6548V11.3749C20.9375 13.5822 20.4911 15.7077 19.2192 17.6463C17.946 19.5871 15.7726 21.4513 12.1253 23.0048C12.0466 23.0382 11.9534 23.0382 11.8747 23.0048C8.22737 21.4513 6.05403 19.5871 4.78073 17.6463C3.50881 15.7077 3.0625 13.5822 3.0625 11.3749V5.6548C3.0625 5.47814 3.17667 5.32172 3.34494 5.26788L11.8762 2.53788ZM17.3305 10.2055C17.8064 9.7295 17.8064 8.95784 17.3305 8.48189C16.8545 8.00593 16.083 8.00593 15.607 8.48189L10.7812 13.3076L9.20554 11.7319C8.72959 11.2559 7.95791 11.2559 7.48196 11.7319C7.00602 12.2078 7.00602 12.9795 7.48196 13.4555L9.91946 15.893C10.3954 16.3689 11.1671 16.3689 11.643 15.893L17.3305 10.2055Z" fill="black"/>
</svg>
