<svg width="14" height="15" viewBox="0 0 14 15" fill="none" xmlns="http://www.w3.org/2000/svg">
<path d="M5.6958 12.6049C6.20166 12.3011 6.78063 12.1406 7.37071 12.1406C7.96079 12.1406 8.53976 12.3011 9.04562 12.6049" stroke="#808080" stroke-linecap="round" stroke-linejoin="round"/>
<path d="M7.37061 1V14" stroke="#808080" stroke-linecap="round" stroke-linejoin="round"/>
<path d="M13 4.25195L1.7417 10.752" stroke="#808080" stroke-linecap="round" stroke-linejoin="round"/>
<path d="M1.7417 4.25195L13 10.752" stroke="#808080" stroke-linecap="round" stroke-linejoin="round"/>
<path d="M2.11108 6.39593C2.62722 6.10969 3.05575 5.68841 3.35075 5.17723C3.64575 4.66605 3.7961 4.08424 3.7857 3.49414" stroke="#808080" stroke-linecap="round" stroke-linejoin="round"/>
<path d="M2.11108 8.59766C2.62722 8.88389 3.05575 9.30517 3.35075 9.81635C3.64575 10.3275 3.7961 10.9093 3.7857 11.4994" stroke="#808080" stroke-linecap="round" stroke-linejoin="round"/>
<path d="M12.6309 6.39593C12.1148 6.10969 11.6863 5.68841 11.3913 5.17723C11.0963 4.66605 10.9459 4.08424 10.9563 3.49414" stroke="#808080" stroke-linecap="round" stroke-linejoin="round"/>
<path d="M12.6309 8.59766C12.1148 8.88389 11.6863 9.30517 11.3913 9.81635C11.0963 10.3275 10.9459 10.9093 10.9563 11.4994" stroke="#808080" stroke-linecap="round" stroke-linejoin="round"/>
<path d="M9.04562 2.39062C8.54013 2.6953 7.96092 2.85585 7.37071 2.85491C6.78051 2.85585 6.20129 2.6953 5.6958 2.39062" stroke="#808080" stroke-linecap="round" stroke-linejoin="round"/>
</svg>
