<svg width="25" height="24" viewBox="0 0 25 24" fill="none" xmlns="http://www.w3.org/2000/svg">
<path d="M12.5 23.0003C18.6313 23.0003 23.6017 18.0299 23.6017 11.8986C23.6017 5.76727 18.6313 0.796875 12.5 0.796875C6.3687 0.796875 1.3983 5.76727 1.3983 11.8986C1.3983 18.0299 6.3687 23.0003 12.5 23.0003Z" stroke="#00A8A8" stroke-width="1.5"/>
<path d="M13.3737 8.00701C14.6982 6.68256 16.8432 6.68256 18.1677 8.00701C19.4921 9.33146 19.4921 11.4765 18.1677 12.8009L17.2031 13.7655L12.4092 18.5594L7.61524 13.7655L6.65069 12.8009C5.32624 11.4765 5.32624 9.33146 6.65069 8.00701C7.97514 6.68256 10.1202 6.68256 11.4446 8.00701L12.4092 8.97156" stroke="#00A8A8" stroke-width="1.5" stroke-miterlimit="10" stroke-linecap="round" stroke-linejoin="round"/>
</svg>
